<svg xmlns="http://www.w3.org/2000/svg" width="149" height="32" fill="none"><path fill="#E9E9E9" d="M45.368 26.377h-7.422V3.451h7.657c2.246 0 4.175.459 5.788 1.377 1.612.91 2.847 2.22 3.705 3.929.866 1.702 1.299 3.743 1.299 6.123 0 2.389-.437 4.441-1.31 6.158-.866 1.716-2.12 3.037-3.762 3.962-1.642.919-3.627 1.377-5.955 1.377zm-3.963-3.022h3.772c1.747 0 3.198-.329 4.355-.985 1.157-.665 2.023-1.623 2.597-2.877.575-1.262.862-2.799.862-4.613 0-1.798-.287-3.324-.862-4.578-.567-1.254-1.414-2.206-2.54-2.855-1.128-.65-2.527-.974-4.199-.974h-3.985v16.882zm22.338 3.403c-1.09 0-2.075-.201-2.956-.604a4.979 4.979 0 0 1-2.093-1.78c-.508-.777-.761-1.728-.761-2.855 0-.97.186-1.769.56-2.396a4.13 4.13 0 0 1 1.51-1.489 7.894 7.894 0 0 1 2.128-.828 21.135 21.135 0 0 1 2.395-.425l2.508-.292c.642-.082 1.108-.212 1.4-.391.29-.18.436-.47.436-.874v-.078c0-.978-.276-1.735-.829-2.273-.544-.537-1.358-.806-2.44-.806-1.127 0-2.015.25-2.664.75-.642.493-1.086 1.042-1.332 1.646l-3.146-.716c.373-1.045.918-1.888 1.634-2.53a6.63 6.63 0 0 1 2.497-1.41 9.745 9.745 0 0 1 2.966-.449c.687 0 1.415.082 2.183.247a6.39 6.39 0 0 1 2.172.873c.68.425 1.235 1.034 1.668 1.825.433.783.65 1.802.65 3.056v11.418h-3.27v-2.35h-.134c-.216.432-.54.858-.974 1.276-.433.418-.989.765-1.668 1.04-.679.277-1.492.415-2.44.415zm.727-2.687c.926 0 1.717-.183 2.374-.548.664-.366 1.168-.844 1.511-1.433.35-.597.526-1.235.526-1.915V17.96c-.12.12-.35.231-.694.336-.336.097-.72.183-1.153.257-.433.067-.855.13-1.265.19l-1.03.135a8.28 8.28 0 0 0-1.78.414c-.53.194-.955.474-1.276.84-.314.358-.47.836-.47 1.433 0 .828.306 1.455.918 1.88.612.418 1.392.627 2.34.627zm10.528 2.306V9.182h3.235v2.732h.18a4.156 4.156 0 0 1 1.656-2.183c.799-.538 1.702-.806 2.71-.806a14.303 14.303 0 0 1 1.421.078v3.202a5.988 5.988 0 0 0-.716-.123 6.842 6.842 0 0 0-1.03-.079c-.791 0-1.497.168-2.116.504a3.742 3.742 0 0 0-1.456 1.377c-.358.582-.537 1.246-.537 1.993v10.5h-3.347zm13.488-5.832-.022-4.086h.582l6.851-7.277h4.008l-7.814 8.284h-.526l-3.079 3.079zm-3.078 5.832V3.451h3.347v22.926h-3.347zm10.859 0-6.157-8.172 2.306-2.34 7.959 10.512h-4.108zm5 0V9.182h3.235v2.732h.179a4.16 4.16 0 0 1 1.657-2.183c.799-.538 1.702-.806 2.709-.806a14.32 14.32 0 0 1 1.422.078v3.202a5.959 5.959 0 0 0-.717-.123 6.83 6.83 0 0 0-1.029-.079c-.792 0-1.497.168-2.116.504a3.75 3.75 0 0 0-1.456 1.377c-.358.582-.537 1.246-.537 1.993v10.5h-3.347zm10.41 0V9.182h3.347v17.195h-3.347zm1.69-19.848a2.128 2.128 0 0 1-1.5-.582c-.41-.396-.616-.866-.616-1.41 0-.553.206-1.023.616-1.411a2.106 2.106 0 0 1 1.5-.593c.582 0 1.079.197 1.489.593.418.388.627.858.627 1.41 0 .545-.209 1.015-.627 1.411-.41.388-.907.582-1.489.582zm17.356 6.851-3.033.538a3.6 3.6 0 0 0-.605-1.109c-.269-.35-.634-.638-1.097-.862-.463-.223-1.041-.335-1.735-.335-.948 0-1.739.212-2.373.638-.635.418-.952.959-.952 1.623 0 .575.213 1.037.638 1.388.426.35 1.112.638 2.06.862l2.731.627c1.583.366 2.762.93 3.538 1.69.776.762 1.164 1.75 1.164 2.967 0 1.03-.298 1.948-.895 2.754-.59.798-1.415 1.425-2.474 1.88-1.053.456-2.273.683-3.661.683-1.926 0-3.497-.41-4.713-1.23-1.217-.83-1.963-2.005-2.239-3.527l3.235-.493c.202.843.616 1.482 1.243 1.914.627.426 1.444.638 2.452.638 1.097 0 1.974-.227 2.63-.682.657-.463.985-1.027.985-1.69 0-.538-.201-.99-.604-1.355-.396-.366-1.004-.642-1.825-.829l-2.91-.638c-1.605-.366-2.792-.948-3.56-1.746-.762-.799-1.142-1.81-1.142-3.034 0-1.015.283-1.903.851-2.664.567-.762 1.35-1.355 2.35-1.78 1.001-.433 2.146-.65 3.437-.65 1.859 0 3.321.403 4.389 1.21 1.067.798 1.772 1.869 2.115 3.212zm9.739 13.344c-1.694 0-3.153-.361-4.377-1.085-1.217-.732-2.157-1.758-2.822-3.079-.656-1.328-.985-2.884-.985-4.668 0-1.761.329-3.314.985-4.657.665-1.344 1.59-2.392 2.777-3.146 1.194-.754 2.589-1.13 4.187-1.13.97 0 1.91.16 2.821.48.91.322 1.727.825 2.451 1.512s1.295 1.579 1.713 2.676c.418 1.09.627 2.414.627 3.974v1.186H134.17V16.28h10.389c0-.88-.179-1.66-.537-2.34a4.065 4.065 0 0 0-1.512-1.623c-.641-.396-1.395-.594-2.261-.594-.94 0-1.761.232-2.463.695a4.662 4.662 0 0 0-1.612 1.79 5.173 5.173 0 0 0-.56 2.385v1.96c0 1.149.202 2.126.605 2.932.41.806.981 1.422 1.713 1.848.731.417 1.586.626 2.563.626.635 0 1.213-.09 1.735-.268a3.748 3.748 0 0 0 1.355-.829c.381-.365.672-.817.873-1.354l3.168.57a5.736 5.736 0 0 1-1.365 2.452c-.65.694-1.467 1.235-2.452 1.623-.978.381-2.093.572-3.347.572z"/><g clip-path="url(#a)"><path fill="#677FFF" d="M30.998 14.186h-11.78l8.37-8.512-2.17-2.206-8.369 8.511V0h-3.1v11.98L5.58 3.467 3.41 5.674l8.37 8.512H0v3.152h11.78L3.41 25.85l2.17 2.207 8.37-8.512v11.98h3.099v-11.98l8.37 8.512 2.17-2.207-8.37-8.512h11.78v-3.152z"/></g><defs><clipPath id="a"><path fill="#fff" d="M0 0h30.998v31.524H0z"/></clipPath></defs></svg>