<?xml version="1.0" encoding="UTF-8" standalone="no"?>
<!DOCTYPE svg PUBLIC "-//W3C//DTD SVG 1.1//EN" "http://www.w3.org/Graphics/SVG/1.1/DTD/svg11.dtd">
<svg width="100%" height="100%" viewBox="0 0 86 32" version="1.1" xmlns="http://www.w3.org/2000/svg" xmlns:xlink="http://www.w3.org/1999/xlink" xml:space="preserve" xmlns:serif="http://www.serif.com/" style="fill-rule:evenodd;clip-rule:evenodd;stroke-linejoin:round;stroke-miterlimit:2;">
    <g transform="matrix(0.277666,0,0,0.277666,-38.1931,-137.752)">
        <path d="M257.775,551.27C266.692,551.27 273.421,544.705 273.421,536.007L273.421,513.903C273.421,513.628 273.312,513.364 273.117,513.17C272.923,512.975 272.659,512.866 272.384,512.866L266.908,512.866C266.336,512.866 265.872,513.33 265.872,513.903L265.872,535.898C265.872,540.493 262.425,543.994 257.775,543.994C253.125,543.994 249.678,540.493 249.678,535.898L249.678,513.903C249.678,513.33 249.214,512.866 248.642,512.866L243.166,512.866C242.891,512.866 242.627,512.975 242.433,513.17C242.238,513.364 242.129,513.628 242.129,513.903L242.129,536.007C242.129,544.705 248.858,551.27 257.775,551.27Z" style="fill:white;fill-rule:nonzero;"/>
    </g>
    <g transform="matrix(0.277666,0,0,0.277666,-38.1931,-137.934)">
        <path d="M306.242,513.522C305.67,513.522 305.206,513.986 305.206,514.559L305.206,534.989C305.206,535.442 304.911,535.843 304.478,535.978C304.046,536.113 303.575,535.952 303.317,535.579C299.301,529.786 290.135,516.562 288.337,513.968C288.143,513.689 287.825,513.522 287.485,513.522L281.406,513.522C281.131,513.522 280.867,513.631 280.673,513.826C280.478,514.02 280.369,514.284 280.369,514.559L280.369,550.233C280.369,550.806 280.833,551.27 281.406,551.27L286.882,551.27C287.454,551.27 287.918,550.806 287.918,550.233L287.918,529.803C287.918,529.35 288.213,528.949 288.646,528.814C289.078,528.679 289.549,528.84 289.807,529.213C293.823,535.006 302.989,548.23 304.787,550.824C304.981,551.103 305.299,551.27 305.639,551.27L311.718,551.27C311.993,551.27 312.257,551.161 312.451,550.966C312.646,550.772 312.755,550.508 312.755,550.233L312.755,514.559C312.755,513.986 312.291,513.522 311.718,513.522L306.242,513.522Z" style="fill:white;fill-rule:nonzero;"/>
    </g>
    <g transform="matrix(0.277666,0,0,0.277666,-38.1931,-137.934)">
        <path d="M320.414,550.233C320.414,550.806 320.878,551.27 321.451,551.27L326.927,551.27C327.499,551.27 327.964,550.806 327.964,550.233L327.964,514.559C327.964,513.986 327.499,513.522 326.927,513.522L321.451,513.522C320.878,513.522 320.414,513.986 320.414,514.559L320.414,550.233Z" style="fill:white;fill-rule:nonzero;"/>
    </g>
    <g transform="matrix(0.277666,0,0,0.277666,-38.1931,-137.934)">
        <path d="M362.593,514.559C362.593,514.284 362.484,514.02 362.289,513.826C362.095,513.631 361.831,513.522 361.556,513.522L334.252,513.522C333.977,513.522 333.714,513.631 333.519,513.826C333.325,514.02 333.215,514.284 333.215,514.559L333.215,519.597C333.215,519.872 333.325,520.136 333.519,520.33C333.714,520.525 333.977,520.634 334.252,520.634L343.12,520.634C343.395,520.634 343.659,520.743 343.853,520.938C344.047,521.132 344.157,521.396 344.157,521.671L344.157,550.233C344.157,550.806 344.621,551.27 345.194,551.27L350.669,551.27C351.242,551.27 351.706,550.806 351.706,550.233L351.706,521.671C351.706,521.396 351.815,521.132 352.01,520.938C352.204,520.743 352.468,520.634 352.743,520.634L361.556,520.634C361.831,520.634 362.095,520.525 362.289,520.33C362.484,520.136 362.593,519.872 362.593,519.597L362.593,514.559Z" style="fill:white;fill-rule:nonzero;"/>
    </g>
    <g transform="matrix(0.277666,0,0,0.277666,-38.1931,-137.934)">
        <path d="M376.431,544.158C376.156,544.158 375.892,544.049 375.698,543.854C375.503,543.66 375.394,543.396 375.394,543.121L375.394,536.879C375.394,536.307 375.858,535.842 376.431,535.842L390.386,535.842C390.661,535.842 390.925,535.733 391.12,535.539C391.314,535.344 391.423,535.081 391.423,534.806L391.423,529.767C391.423,529.492 391.314,529.229 391.12,529.034C390.925,528.84 390.661,528.731 390.386,528.731L376.431,528.731C376.156,528.731 375.892,528.621 375.698,528.427C375.503,528.233 375.394,527.969 375.394,527.694L375.394,521.671C375.394,521.098 375.858,520.634 376.431,520.634L392.192,520.634C392.764,520.634 393.229,520.17 393.229,519.597L393.229,514.559C393.229,514.284 393.119,514.02 392.925,513.826C392.73,513.631 392.467,513.522 392.192,513.522L368.881,513.522C368.606,513.522 368.343,513.631 368.148,513.826C367.954,514.02 367.845,514.284 367.845,514.559L367.845,550.233C367.845,550.806 368.309,551.27 368.881,551.27L392.465,551.27C392.74,551.27 393.004,551.161 393.198,550.966C393.393,550.772 393.502,550.508 393.502,550.233L393.502,545.195C393.502,544.92 393.393,544.656 393.198,544.462C393.004,544.267 392.74,544.158 392.465,544.158L376.431,544.158Z" style="fill:white;fill-rule:nonzero;"/>
    </g>
    <g transform="matrix(0.277666,0,0,0.277666,-38.1931,-136.853)">
        <path d="M437.541,528.503C437.541,517.398 428.952,508.973 417.628,508.973C406.303,508.973 397.714,517.398 397.714,528.503C397.714,539.608 406.303,548.033 417.628,548.033C420.075,548.033 422.392,547.639 424.498,546.929C424.935,546.778 425.418,546.934 425.684,547.312C426.388,548.31 427.741,550.235 428.521,551.345C428.85,551.813 429.495,551.926 429.964,551.598C431.027,550.855 432.84,549.588 433.904,548.844C434.372,548.517 434.487,547.872 434.161,547.403C433.464,546.4 432.317,544.749 431.655,543.796C431.363,543.376 431.421,542.806 431.791,542.453C435.394,538.978 437.541,534.082 437.541,528.503ZM417.628,540.757C410.735,540.757 405.483,535.505 405.483,528.503C405.483,521.501 410.735,516.249 417.628,516.249C424.521,516.249 429.773,521.501 429.773,528.503C429.773,531.184 428.98,533.638 427.614,535.615C427.422,535.894 427.105,536.061 426.766,536.061C426.427,536.062 426.11,535.896 425.916,535.618C425.27,534.695 424.379,533.415 423.798,532.58C423.472,532.111 422.827,531.994 422.357,532.319C421.284,533.062 419.449,534.333 418.374,535.077C418.147,535.234 417.992,535.475 417.944,535.746C417.895,536.017 417.956,536.297 418.114,536.523C418.607,537.231 419.318,538.249 419.884,539.061C420.093,539.36 420.129,539.748 419.979,540.081C419.828,540.414 419.513,540.643 419.15,540.684C418.65,540.733 418.139,540.757 417.628,540.757Z" style="fill:white;fill-rule:nonzero;"/>
    </g>
    <g transform="matrix(0.277666,0,0,0.277666,-38.1931,-110.159)">
        <path d="M251.426,494.143C251.151,494.143 250.888,494.033 250.693,493.839C250.499,493.645 250.39,493.381 250.39,493.106L250.39,464.544C250.39,463.971 249.925,463.507 249.353,463.507L243.877,463.507C243.304,463.507 242.84,463.971 242.84,464.544L242.84,500.218C242.84,500.79 243.304,501.254 243.877,501.254L265.82,501.254C266.392,501.254 266.856,500.79 266.856,500.218L266.856,495.179C266.856,494.904 266.747,494.641 266.553,494.446C266.358,494.252 266.095,494.143 265.82,494.143L251.426,494.143Z" style="fill:white;fill-rule:nonzero;"/>
    </g>
    <g transform="matrix(0.277666,0,0,0.277666,-38.1931,-110.159)">
        <path d="M298.228,500.574C298.377,500.983 298.766,501.254 299.202,501.254L305.229,501.254C305.57,501.254 305.89,501.086 306.083,500.805C306.277,500.523 306.319,500.165 306.196,499.846C303.801,493.608 294.189,468.581 292.496,464.172C292.342,463.771 291.957,463.507 291.528,463.507L284.034,463.507C283.606,463.507 283.221,463.771 283.067,464.171C281.369,468.576 271.72,493.604 269.315,499.845C269.192,500.164 269.234,500.523 269.427,500.804C269.62,501.086 269.94,501.254 270.282,501.254L276.198,501.254C276.633,501.254 277.022,500.983 277.171,500.574C277.682,499.177 278.843,496.001 279.354,494.605C279.504,494.196 279.892,493.924 280.328,493.924L295.071,493.924C295.507,493.924 295.896,494.196 296.045,494.605C296.556,496.001 297.717,499.177 298.228,500.574ZM283.606,486.976C283.267,486.976 282.95,486.81 282.756,486.532C282.562,486.254 282.516,485.899 282.633,485.581C283.561,483.062 285.53,477.714 286.722,474.478C286.872,474.069 287.261,473.798 287.696,473.799C288.131,473.8 288.52,474.072 288.669,474.481C289.849,477.718 291.799,483.067 292.717,485.584C292.833,485.902 292.787,486.256 292.593,486.534C292.399,486.811 292.082,486.976 291.743,486.976L283.606,486.976Z" style="fill:white;fill-rule:nonzero;"/>
    </g>
    <g transform="matrix(0.277666,0,0,0.277666,-38.1931,-110.159)">
        <path d="M335.999,481.935C335.719,481.768 335.535,481.477 335.503,481.152C335.472,480.827 335.598,480.506 335.842,480.289C337.664,478.651 338.905,476.039 338.905,473.135C338.905,467.555 334.528,463.507 328.894,463.507L312.205,463.507C311.93,463.507 311.667,463.616 311.472,463.811C311.278,464.005 311.169,464.269 311.169,464.544L311.169,500.218C311.169,500.493 311.278,500.756 311.472,500.951C311.667,501.145 311.93,501.254 312.205,501.254L330.152,501.254C336.224,501.254 340.765,496.987 340.765,491.024C340.765,487.166 338.863,483.672 335.999,481.935ZM319.536,470.291L327.034,470.291C329.386,470.291 331.137,472.096 331.137,474.448C331.137,476.801 329.277,478.606 327.034,478.606L319.536,478.606C318.964,478.606 318.499,478.142 318.499,477.569L318.499,471.327C318.499,470.755 318.964,470.291 319.536,470.291ZM328.292,494.471L319.536,494.471C318.964,494.471 318.499,494.007 318.499,493.434L318.499,486.043C318.499,485.471 318.964,485.007 319.536,485.007L328.292,485.007C330.972,485.007 332.997,487.085 332.997,489.711C332.997,492.392 330.972,494.471 328.292,494.471Z" style="fill:white;fill-rule:nonzero;"/>
    </g>
    <g transform="matrix(0.277666,0,0,0.277666,-38.1931,-125.482)">
        <path d="M186.971,456.922C197.592,456.922 207.776,461.151 215.272,468.676C222.769,476.2 226.96,486.4 226.921,497.021C226.861,513.162 226.794,531.239 226.742,545.286C226.721,550.799 224.019,555.957 219.497,559.111C214.976,562.266 209.203,563.023 204.021,561.139C196.022,558.231 186.88,554.908 178.298,551.788C159.599,544.991 147.187,527.179 147.286,507.283C147.304,503.691 147.323,500.01 147.341,496.354C147.45,474.544 165.161,456.922 186.97,456.922L186.971,456.922Z" style="fill:rgb(255,150,54);"/>
    </g>
    <g transform="matrix(0.277666,0,0,0.277666,-38.1931,-125.387)">
        <path d="M197.077,527.685C197.077,527.321 196.887,526.983 196.576,526.794C196.265,526.604 195.878,526.59 195.555,526.757C192.962,528.05 190.036,528.775 186.942,528.775L186.02,528.775C175.299,528.775 166.609,520.084 166.609,509.364L166.609,496.285C166.609,485.565 175.299,476.874 186.02,476.874L186.942,476.874C197.269,476.874 205.713,484.939 206.318,495.114C206.319,495.132 206.334,495.147 206.353,495.147L206.353,531.032C206.353,532.369 207.437,533.453 208.774,533.453L211.973,533.453C212.549,533.453 213.017,533.921 213.017,534.498L213.017,541.685C213.017,541.962 212.907,542.228 212.711,542.424C212.515,542.62 212.249,542.73 211.973,542.73L205.365,542.73C200.788,542.73 197.077,539.019 197.077,534.441L197.077,527.685ZM197.105,495.147C197.089,495.147 197.077,495.159 197.077,495.175L197.077,510.687C197.077,510.734 197.074,510.78 197.068,510.825C196.769,513.055 195.747,515.139 194.139,516.748C192.206,518.681 189.584,519.767 186.85,519.767L186.849,519.767C184.115,519.767 181.493,518.681 179.56,516.748C177.627,514.814 176.541,512.193 176.541,509.459L176.541,496.19C176.541,493.457 177.627,490.835 179.56,488.901C181.493,486.968 184.115,485.882 186.849,485.882L186.85,485.882C189.584,485.882 192.206,486.968 194.139,488.901C195.824,490.587 196.866,492.796 197.105,495.147Z" style="fill:white;"/>
    </g>
</svg>
