<svg width="17" height="17" viewBox="0 0 17 17" fill="none" xmlns="http://www.w3.org/2000/svg" id="svg-620423928_3371">
   <g opacity="0.7" clip-path="url(#svg-620423928_3371_clip0_9920_1284)">
      <path
         d="M10.5607 11.1667C14.9407 11.1427 16.5 8.82269 16.5 6.83335C16.4996 6.30005 16.3165 5.78299 15.9812 5.36826C15.6459 4.95353 15.1787 4.66617 14.6573 4.55402C14.748 4.29602 14.8267 4.05935 14.8793 3.88002C14.9957 3.48998 15.0186 3.07802 14.9461 2.6775C14.8736 2.27698 14.7077 1.89917 14.462 1.57469C14.2143 1.23994 13.8912 0.968227 13.519 0.781527C13.1467 0.594827 12.7358 0.49839 12.3193 0.50002H4.68067C4.26423 0.49839 3.85326 0.594827 3.48102 0.781527C3.10878 0.968227 2.78572 1.23994 2.538 1.57469C2.29227 1.89917 2.12644 2.27698 2.05393 2.6775C1.98143 3.07802 2.00429 3.48998 2.12067 3.88002C2.17333 4.05935 2.254 4.29602 2.34267 4.55402C1.82129 4.66617 1.35406 4.95353 1.01879 5.36826C0.683509 5.78299 0.500418 6.30005 0.5 6.83335C0.5 8.82269 2.05933 11.1427 6.43933 11.1667C6.47827 11.3691 6.49858 11.5746 6.5 11.7807V13.8334C6.51146 14.0114 6.48482 14.1899 6.42186 14.3568C6.35891 14.5238 6.26108 14.6754 6.13491 14.8016C6.00874 14.9278 5.85712 15.0256 5.69016 15.0885C5.5232 15.1515 5.34473 15.1781 5.16667 15.1667H4.5C4.32319 15.1667 4.15362 15.2369 4.0286 15.3619C3.90357 15.487 3.83333 15.6565 3.83333 15.8334C3.83333 16.0102 3.90357 16.1797 4.0286 16.3048C4.15362 16.4298 4.32319 16.5 4.5 16.5H12.5C12.6768 16.5 12.8464 16.4298 12.9714 16.3048C13.0964 16.1797 13.1667 16.0102 13.1667 15.8334C13.1667 15.6565 13.0964 15.487 12.9714 15.3619C12.8464 15.2369 12.6768 15.1667 12.5 15.1667H11.8387C11.6602 15.1787 11.4813 15.1525 11.3138 15.0898C11.1462 15.0272 10.994 14.9294 10.8673 14.8032C10.7406 14.677 10.6423 14.5252 10.5789 14.358C10.5156 14.1907 10.4887 14.0118 10.5 13.8334V11.78C10.5015 11.5742 10.5218 11.3688 10.5607 11.1667ZM14.1667 5.83335C14.4319 5.83335 14.6862 5.93871 14.8738 6.12625C15.0613 6.31378 15.1667 6.56814 15.1667 6.83335C15.1667 8.18935 14.094 9.63335 11.1427 9.81335C11.2903 9.61189 11.4608 9.42822 11.6507 9.26602C12.7133 8.30868 13.5603 7.13631 14.1353 5.82669C14.146 5.82735 14.1553 5.83335 14.1667 5.83335ZM1.83333 6.83335C1.83333 6.56814 1.93869 6.31378 2.12623 6.12625C2.31376 5.93871 2.56812 5.83335 2.83333 5.83335C2.84467 5.83335 2.854 5.82735 2.86467 5.82669C3.4397 7.13631 4.28666 8.30868 5.34933 9.26602C5.53925 9.42822 5.70972 9.61189 5.85733 9.81335C2.906 9.63335 1.83333 8.18935 1.83333 6.83335ZM7.50867 15.1667C7.72907 14.7573 7.84085 14.2982 7.83333 13.8334V11.7807C7.83565 11.1099 7.69187 10.4467 7.412 9.83709C7.13213 9.2275 6.72287 8.68615 6.21267 8.25069C4.85702 6.95506 3.88376 5.31159 3.39933 3.50002C3.34241 3.3088 3.33146 3.10685 3.36737 2.91059C3.40328 2.71434 3.48505 2.52935 3.606 2.37069C3.73036 2.20304 3.89246 2.06703 4.07916 1.97368C4.26587 1.88032 4.47193 1.83225 4.68067 1.83335H12.3193C12.5283 1.83256 12.7345 1.88104 12.9212 1.97487C13.108 2.06869 13.2699 2.20521 13.394 2.37335C13.515 2.53202 13.5967 2.71701 13.6326 2.91326C13.6685 3.10951 13.6576 3.31147 13.6007 3.50269C13.1158 5.31329 12.1426 6.95579 10.7873 8.25069C10.2771 8.68602 9.86789 9.22724 9.58802 9.83673C9.30814 10.4462 9.16436 11.1093 9.16667 11.78V13.8334C9.15915 14.2982 9.27093 14.7573 9.49133 15.1667H7.50867Z"
         fill="white"></path>
   </g>
   <defs>
      <clipPath id="svg-620423928_3371_clip0_9920_1284">
         <rect width="16" height="16" fill="white" transform="translate(0.5 0.5)"></rect>
      </clipPath>
   </defs>
</svg>