<svg xmlns="http://www.w3.org/2000/svg" width="26" height="26" fill="none"><g clip-path="url(#a)"><path fill="#fff" d="M20.583 2.167H19.5V1.083a1.084 1.084 0 0 0-2.167 0v1.084H8.667V1.083a1.084 1.084 0 0 0-2.167 0v1.084H5.417A5.423 5.423 0 0 0 0 7.583v13A5.423 5.423 0 0 0 5.417 26h15.166A5.423 5.423 0 0 0 26 20.583v-13a5.423 5.423 0 0 0-5.417-5.416zM5.417 4.333h15.166a3.254 3.254 0 0 1 3.25 3.25v1.084H2.167V7.583a3.254 3.254 0 0 1 3.25-3.25zm15.166 19.5H5.417a3.254 3.254 0 0 1-3.25-3.25v-9.75h21.666v9.75a3.254 3.254 0 0 1-3.25 3.25zm-3.25-6.5c0 .598-.485 1.084-1.083 1.084h-2.167v2.166a1.084 1.084 0 0 1-2.166 0v-2.166H9.75a1.084 1.084 0 0 1 0-2.167h2.167v-2.167a1.084 1.084 0 0 1 2.166 0v2.167h2.167c.598 0 1.083.485 1.083 1.083z"/></g><defs><clipPath id="a"><path fill="#fff" d="M0 0h26v26H0z"/></clipPath></defs></svg>