<svg xmlns="http://www.w3.org/2000/svg" width="26" height="26" fill="none"><g clip-path="url(#a)"><path fill="#E9E9E9" d="M25.239 9.787a3.25 3.25 0 0 0-2.456-1.12h-.093C22.149 3.798 18.01 0 13 0S3.851 3.798 3.31 8.667h-.06a3.25 3.25 0 0 0-3.217 3.71l1.15 8.043C1.636 23.6 4.403 26 7.616 26h10.8c3.213 0 5.98-2.4 6.435-5.58l1.15-8.043a3.252 3.252 0 0 0-.763-2.59zM13 2.167c3.814 0 6.978 2.83 7.506 6.5H5.495c.527-3.67 3.692-6.5 7.505-6.5zm10.856 9.903-1.15 8.043a4.355 4.355 0 0 1-4.29 3.721H7.618a4.354 4.354 0 0 1-4.29-3.72l-1.15-8.044a1.072 1.072 0 0 1 .254-.863c.21-.242.5-.374.818-.374h19.534c.318 0 .609.133.819.374.208.242.3.548.254.863zm-9.772 2.013v6.5a1.082 1.082 0 1 1-2.167 0v-6.5a1.082 1.082 0 1 1 2.167 0zm5.416 0v6.5a1.082 1.082 0 1 1-2.166 0v-6.5a1.082 1.082 0 1 1 2.166 0zm-10.833 0v6.5a1.082 1.082 0 1 1-2.167 0v-6.5a1.082 1.082 0 1 1 2.167 0z"/></g><defs><clipPath id="a"><path fill="#fff" d="M0 0h26v26H0z"/></clipPath></defs></svg>