<svg xmlns="http://www.w3.org/2000/svg" width="26" height="26" fill="none"><g fill="#fff" clip-path="url(#a)"><path d="M20.272 13h-5.105A2.166 2.166 0 0 1 13 10.833v-5.12a3.25 3.25 0 0 0-1.263-2.581 3.11 3.11 0 0 0-2.688-.579 11.883 11.883 0 0 0 .6 23.199 11.916 11.916 0 0 0 13.794-8.79 3.116 3.116 0 0 0-.577-2.692A3.31 3.31 0 0 0 20.272 13zm1.07 3.432A9.716 9.716 0 1 1 9.58 4.658a.944.944 0 0 1 .827.187 1.102 1.102 0 0 1 .434.873v5.115a4.334 4.334 0 0 0 4.333 4.334h5.105a1.127 1.127 0 0 1 .884.433.957.957 0 0 1 .18.832z"/><path d="M25.622 8.066A10.913 10.913 0 0 0 17.964.403a2.275 2.275 0 0 0-1.425.081 2.165 2.165 0 0 0-1.352 2.008v5.091a3.25 3.25 0 0 0 3.25 3.25h5.113a2.176 2.176 0 0 0 2.072-2.767zm-2.706.6h-4.483a1.083 1.083 0 0 1-1.083-1.083L17.34 2.5a.052.052 0 0 1 .027-.01h.028a8.745 8.745 0 0 1 6.15 6.178h-.63z"/></g><defs><clipPath id="a"><path fill="#fff" d="M0 0h26v26H0z"/></clipPath></defs></svg>