<svg xmlns="http://www.w3.org/2000/svg" width="26" height="26" fill="none"><g clip-path="url(#a)"><path fill="#E9E9E9" d="M20.583 4.333h-1.192A5.427 5.427 0 0 0 14.083 0H5.417A5.423 5.423 0 0 0 0 5.417v13.925a2.324 2.324 0 0 0 2.328 2.328c.45 0 .9-.131 1.29-.39l3.195-2.131a5.426 5.426 0 0 0 5.104 3.601h6.171l4.295 2.863a2.32 2.32 0 0 0 2.389.114A2.322 2.322 0 0 0 26 23.675V9.75a5.423 5.423 0 0 0-5.417-5.417zM2.416 19.477a.153.153 0 0 1-.165.008c-.085-.046-.085-.118-.085-.142V5.417a3.254 3.254 0 0 1 3.25-3.25h8.666a3.254 3.254 0 0 1 3.25 3.25V13a3.254 3.254 0 0 1-3.25 3.25h-6.5c-.354 0-.586.172-.612.19l-4.554 3.037zm21.417 4.2c0 .022 0 .096-.085.141-.086.045-.144.006-.164-.007l-4.566-3.046a1.086 1.086 0 0 0-.601-.182h-6.5a3.255 3.255 0 0 1-3.064-2.166h5.23A5.423 5.423 0 0 0 19.5 13V6.5h1.083a3.254 3.254 0 0 1 3.25 3.25v13.926z"/></g><defs><clipPath id="a"><path fill="#fff" d="M0 0h26v26H0z"/></clipPath></defs></svg>