<svg xmlns="http://www.w3.org/2000/svg" width="26" height="26" fill="none"><g clip-path="url(#a)"><path fill="#E9E9E9" d="M8.125 14.083a4.876 4.876 0 1 1 0-9.75 4.876 4.876 0 0 1 0 9.75zm0-7.583a2.708 2.708 0 1 0 0 5.417 2.708 2.708 0 0 0 0-5.417zm8.125 18.417v-.542a8.125 8.125 0 1 0-16.25 0v.542a1.083 1.083 0 0 0 2.167 0v-.542a5.958 5.958 0 0 1 11.916 0v.542a1.084 1.084 0 0 0 2.167 0zM26 19.5a7.583 7.583 0 0 0-12.64-5.652 1.08 1.08 0 0 0-.307 1.17 1.085 1.085 0 0 0 1.753.444 5.416 5.416 0 0 1 9.027 4.038 1.083 1.083 0 0 0 2.167 0zm-7.042-9.75a4.875 4.875 0 1 1 0-9.75 4.875 4.875 0 0 1 0 9.75zm0-7.583a2.708 2.708 0 1 0 0 5.416 2.708 2.708 0 0 0 0-5.416z"/></g><defs><clipPath id="a"><path fill="#fff" d="M0 0h26v26H0z"/></clipPath></defs></svg>