<svg xmlns="http://www.w3.org/2000/svg" width="26" height="26" fill="none"><g fill="#fff" clip-path="url(#a)"><path d="M7.583 0h-3.25A4.333 4.333 0 0 0 0 4.333v3.25a4.333 4.333 0 0 0 4.333 4.334h3.25a4.334 4.334 0 0 0 4.334-4.334v-3.25A4.334 4.334 0 0 0 7.583 0zM9.75 7.583A2.167 2.167 0 0 1 7.583 9.75h-3.25a2.167 2.167 0 0 1-2.166-2.167v-3.25a2.167 2.167 0 0 1 2.166-2.166h3.25A2.167 2.167 0 0 1 9.75 4.333v3.25zm-2.167 6.5h-3.25A4.334 4.334 0 0 0 0 18.417v3.25A4.333 4.333 0 0 0 4.333 26h3.25a4.333 4.333 0 0 0 4.334-4.333v-3.25a4.334 4.334 0 0 0-4.334-4.334zm2.167 7.584a2.167 2.167 0 0 1-2.167 2.166h-3.25a2.166 2.166 0 0 1-2.166-2.166v-3.25a2.167 2.167 0 0 1 2.166-2.167h3.25a2.167 2.167 0 0 1 2.167 2.167v3.25zm11.917-7.584h-3.25a4.334 4.334 0 0 0-4.334 4.334v3.25A4.333 4.333 0 0 0 18.418 26h3.25A4.333 4.333 0 0 0 26 21.667v-3.25a4.334 4.334 0 0 0-4.333-4.334zm2.166 7.584a2.167 2.167 0 0 1-2.166 2.166h-3.25a2.166 2.166 0 0 1-2.167-2.166v-3.25a2.166 2.166 0 0 1 2.167-2.167h3.25a2.167 2.167 0 0 1 2.166 2.167v3.25zM15.167 7.583h3.25v3.25a1.083 1.083 0 0 0 2.166 0v-3.25h3.25a1.083 1.083 0 1 0 0-2.166h-3.25v-3.25a1.083 1.083 0 1 0-2.166 0v3.25h-3.25a1.083 1.083 0 0 0 0 2.166z"/></g><defs><clipPath id="a"><path fill="#fff" d="M0 0h26v26H0z"/></clipPath></defs></svg>