<svg xmlns="http://www.w3.org/2000/svg" width="28" height="28" fill="none"><path stroke="#E9E9E9" stroke-linecap="round" stroke-linejoin="round" stroke-width="2" d="M4.667 7A2.333 2.333 0 0 1 7 4.667h2.334A2.333 2.333 0 0 1 11.667 7v2.333a2.333 2.333 0 0 1-2.333 2.334H7a2.333 2.333 0 0 1-2.333-2.334V7zm11.667 0a2.333 2.333 0 0 1 2.333-2.333H21A2.333 2.333 0 0 1 23.334 7v2.333A2.333 2.333 0 0 1 21 11.667h-2.333a2.333 2.333 0 0 1-2.333-2.334V7zM4.667 18.667A2.333 2.333 0 0 1 7 16.333h2.334a2.333 2.333 0 0 1 2.333 2.334V21a2.333 2.333 0 0 1-2.333 2.333H7A2.333 2.333 0 0 1 4.667 21v-2.333zm11.667 0a2.333 2.333 0 0 1 2.333-2.334H21a2.333 2.333 0 0 1 2.334 2.334V21A2.333 2.333 0 0 1 21 23.333h-2.333A2.333 2.333 0 0 1 16.334 21v-2.333z"/></svg>