<?xml version="1.0" encoding="UTF-8" standalone="no"?>
<!DOCTYPE svg PUBLIC "-//W3C//DTD SVG 1.1//EN" "http://www.w3.org/Graphics/SVG/1.1/DTD/svg11.dtd">
<svg width="100%" height="100%" viewBox="0 0 70 70" version="1.1" xmlns="http://www.w3.org/2000/svg" xmlns:xlink="http://www.w3.org/1999/xlink" xml:space="preserve" xmlns:serif="http://www.serif.com/" style="fill-rule:evenodd;clip-rule:evenodd;stroke-linejoin:round;stroke-miterlimit:2;">
    <g transform="matrix(0.701382,0,0,0.701382,-0.163773,0)">
        <path d="M46.206,0L62.548,0L62.548,74.898C54.178,76.481 48.015,77.104 41.348,77.104C21.39,77.084 11,68.167 11,51.042C11,34.542 22.02,23.833 39.098,23.833C41.748,23.833 43.767,24.042 46.206,24.667L46.206,0ZM46.779,38.164C44.865,37.539 43.288,37.331 41.269,37.331C33.004,37.331 28.229,42.372 28.229,51.208C28.229,59.81 32.794,64.56 41.164,64.56C42.972,64.56 44.444,64.458 46.779,64.145L46.779,38.164Z" style="fill:rgb(43,169,119);fill-rule:nonzero;"/>
    </g>
    <g transform="matrix(0.701382,0,0,0.701382,-0.163773,0)">
        <path d="M89.27,25.844L89.27,63.344C89.27,76.259 88.303,82.469 85.464,87.824C82.814,92.971 79.323,96.217 72.109,99.803L56.946,92.657C64.159,89.305 67.65,86.342 69.88,81.822C72.214,77.199 72.95,71.844 72.95,57.761L72.95,25.844L89.27,25.844ZM71.304,0L87.646,0L87.646,16.604L71.303,16.604L71.304,0Z" style="fill:rgb(43,169,119);fill-rule:nonzero;"/>
    </g>
</svg>
