<?xml version="1.0" encoding="UTF-8" standalone="no"?>
<!DOCTYPE svg PUBLIC "-//W3C//DTD SVG 1.1//EN" "http://www.w3.org/Graphics/SVG/1.1/DTD/svg11.dtd">
<svg width="100%" height="100%" viewBox="0 0 70 70" version="1.1" xmlns="http://www.w3.org/2000/svg" xmlns:xlink="http://www.w3.org/1999/xlink" xml:space="preserve" xmlns:serif="http://www.serif.com/" style="fill-rule:evenodd;clip-rule:evenodd;stroke-linejoin:round;stroke-miterlimit:2;">
    <g transform="matrix(0.699992,0,0,0.699992,0.000109646,0.0853364)">
        <path d="M99.014,41.088C98.743,40.873 96.211,38.961 90.872,38.961C89.462,38.967 88.055,39.088 86.665,39.323C85.631,32.24 79.775,28.786 79.512,28.631L78.079,27.804L77.136,29.165C75.954,30.993 75.092,33.008 74.586,35.125C73.631,39.168 74.212,42.965 76.266,46.212C73.786,47.594 69.807,47.935 69.002,47.965L3.131,47.965C1.421,47.967 0.013,49.368 0.004,51.078C-0.072,56.849 0.906,62.585 2.89,68.004C5.16,73.955 8.535,78.338 12.927,81.021C17.849,84.035 25.845,85.757 34.909,85.757C39.004,85.77 43.09,85.4 47.116,84.651C52.712,83.624 58.097,81.668 63.048,78.864C67.127,76.502 70.799,73.496 73.92,69.964C79.14,64.056 82.248,57.476 84.56,51.629L85.482,51.629C91.196,51.629 94.709,49.343 96.647,47.426C97.934,46.204 98.939,44.716 99.592,43.065L100.001,41.868L99.014,41.088Z" style="fill:rgb(36,150,237);fill-rule:nonzero;"/>
    </g>
    <g transform="matrix(0.699992,0,0,0.699992,0.000109646,0.0853364)">
        <path d="M9.236,46.036L18.063,46.036C18.063,46.036 18.064,46.036 18.064,46.036C18.486,46.036 18.834,45.688 18.834,45.266C18.834,45.266 18.834,45.265 18.834,45.265L18.834,37.402C18.834,37.4 18.834,37.399 18.834,37.397C18.834,36.976 18.489,36.629 18.068,36.627L9.236,36.627C8.814,36.627 8.466,36.975 8.466,37.397C8.466,37.397 8.466,37.398 8.466,37.398L8.466,45.265C8.466,45.691 8.811,46.035 9.236,46.035M21.4,46.036L30.228,46.036C30.65,46.036 30.998,45.688 30.998,45.266C30.998,45.266 30.998,45.265 30.998,45.265L30.998,37.402C30.998,37.4 30.998,37.399 30.998,37.397C30.998,36.976 30.653,36.629 30.232,36.627L21.4,36.627C20.975,36.627 20.625,36.977 20.625,37.402L20.625,45.265C20.628,45.691 20.974,46.035 21.4,46.035M33.75,46.036L42.577,46.036C42.999,46.036 43.347,45.688 43.347,45.266C43.347,45.266 43.347,45.265 43.347,45.265L43.347,37.402C43.347,37.4 43.347,37.399 43.347,37.397C43.347,36.976 43.002,36.629 42.581,36.627L33.749,36.627C33.327,36.627 32.979,36.975 32.979,37.397C32.979,37.397 32.979,37.398 32.979,37.398L32.979,45.265C32.979,45.691 33.324,46.035 33.749,46.035M45.953,46.036L54.78,46.036C55.204,46.036 55.553,45.689 55.555,45.265L55.555,37.402C55.555,36.977 55.205,36.627 54.78,36.627L45.953,36.627C45.953,36.627 45.952,36.627 45.952,36.627C45.53,36.627 45.182,36.975 45.182,37.397C45.182,37.397 45.182,37.398 45.182,37.398L45.182,45.265C45.182,45.691 45.527,46.035 45.952,46.035M21.4,34.724L30.228,34.724C30.651,34.721 30.998,34.372 30.998,33.949L30.998,26.087C30.998,26.087 30.998,26.086 30.998,26.086C30.998,25.664 30.65,25.316 30.228,25.316L21.4,25.316C20.977,25.316 20.628,25.663 20.625,26.086L20.625,33.949C20.628,34.373 20.976,34.721 21.4,34.724M33.75,34.724L42.577,34.724C43,34.721 43.347,34.372 43.347,33.949L43.347,26.087C43.347,26.087 43.347,26.086 43.347,26.086C43.347,25.664 42.999,25.316 42.577,25.316L33.75,25.316C33.75,25.316 33.749,25.316 33.749,25.316C33.327,25.316 32.979,25.664 32.979,26.086L32.979,33.949C32.979,34.375 33.323,34.722 33.749,34.724M45.953,34.724L54.78,34.724C55.204,34.721 55.552,34.373 55.555,33.949L55.555,26.087C55.553,25.663 55.204,25.316 54.78,25.316L45.953,25.316C45.953,25.316 45.952,25.316 45.952,25.316C45.53,25.316 45.182,25.664 45.182,26.086L45.182,33.949C45.182,34.375 45.526,34.722 45.952,34.724M45.953,23.408L54.78,23.408C55.203,23.408 55.552,23.061 55.555,22.638L55.555,14.77C55.552,14.347 55.203,14 54.78,14L45.953,14C45.953,14 45.952,14 45.952,14C45.53,14 45.182,14.348 45.182,14.77L45.182,22.638C45.182,23.063 45.527,23.408 45.952,23.408M58.263,46.036L67.09,46.036C67.514,46.036 67.863,45.689 67.865,45.265L67.865,37.402C67.865,36.977 67.515,36.627 67.09,36.627L58.263,36.627C57.841,36.627 57.493,36.975 57.493,37.397C57.493,37.397 57.493,37.398 57.493,37.398L57.493,45.265C57.493,45.691 57.838,46.035 58.263,46.035" style="fill:rgb(36,150,237);fill-rule:nonzero;"/>
    </g>
</svg>
