<svg xmlns="http://www.w3.org/2000/svg" width="70" height="70" fill="none"><circle cx="35" cy="35" r="35" fill="#F87B5E"/><path fill="#fff" d="M45.625 27.917v-5c1.25-.625 2.291-1.875 2.291-3.334v-.208a3.734 3.734 0 0 0-3.75-3.75h-.208a3.734 3.734 0 0 0-3.75 3.75v.208c0 1.459.834 2.709 2.292 3.334v5c-1.875.208-3.75 1.041-5.209 2.291l-13.75-10.625c.625-2.291-.833-4.791-3.125-5.208-2.291-.417-4.583.625-5.208 2.917-.625 2.291.833 4.791 3.125 5.416 1.042.209 2.292.209 3.334-.416L35 32.708c-2.5 3.75-2.5 8.542.208 12.292l-4.166 4.167c-.417 0-.626-.209-1.042-.209-1.875 0-3.542 1.667-3.542 3.542 0 1.875 1.667 3.333 3.542 3.333 1.875 0 3.541-1.666 3.541-3.541 0-.417 0-.625-.208-1.042l3.959-3.958C42.082 50.833 48.957 50 52.5 45.208c3.54-4.791 2.708-11.666-2.084-15.208-1.25-1.042-2.916-1.875-4.791-2.083zm-1.667 16.25a5.602 5.602 0 0 1-5.625-5.625c0-3.125 2.5-5.625 5.625-5.625s5.625 2.5 5.625 5.625-2.5 5.625-5.625 5.625z"/></svg>