<svg xmlns="http://www.w3.org/2000/svg" width="70" height="70" fill="none"><circle cx="35" cy="35" r="35" fill="#1A6BFB"/><path fill="#fff" d="M47.5 18.333h-25a4.167 4.167 0 0 0-4.166 4.167v25a4.167 4.167 0 0 0 4.166 4.167h25a4.167 4.167 0 0 0 4.167-4.167v-25a4.167 4.167 0 0 0-4.167-4.167zm-8.05 6.117a1.1 1.1 0 0 1 1.117-1.117 1.134 1.134 0 0 1 1.1 1.1v14.834a1.116 1.116 0 0 1-2.217 0V24.45zm-5.567-.567a1.117 1.117 0 0 1 2.234 0V40a1.117 1.117 0 1 1-2.233 0V23.883zm-5.55.567a1.117 1.117 0 0 1 2.217 0v14.833a1.101 1.101 0 0 1-1.117 1.1 1.133 1.133 0 0 1-1.1-1.1V24.45zm-5.55 2.217a1.117 1.117 0 0 1 2.217 0v10a1.117 1.117 0 0 1-1.116 1.1 1.117 1.117 0 0 1-1.1-1.1v-10zm24.05 16.95A18.834 18.834 0 0 1 35 47.217a18.834 18.834 0 0 1-11.833-3.6 1.116 1.116 0 0 1 1.45-1.667A17 17 0 0 0 35 45a16.917 16.917 0 0 0 10.383-3.067 1.116 1.116 0 0 1 1.45 1.667v.017zm.384-6.95a1.116 1.116 0 0 1-2.217 0v-10a1.116 1.116 0 0 1 1.117-1.1 1.1 1.1 0 0 1 1.1 1.1v10z"/></svg>