<?xml version="1.0" encoding="UTF-8" standalone="no"?>
<!DOCTYPE svg PUBLIC "-//W3C//DTD SVG 1.1//EN" "http://www.w3.org/Graphics/SVG/1.1/DTD/svg11.dtd">
<svg width="100%" height="100%" viewBox="0 0 70 70" version="1.1" xmlns="http://www.w3.org/2000/svg" xmlns:xlink="http://www.w3.org/1999/xlink" xml:space="preserve" xmlns:serif="http://www.serif.com/" style="fill-rule:evenodd;clip-rule:evenodd;stroke-linejoin:round;stroke-miterlimit:2;">
    <g transform="matrix(0.7,0,0,0.7,-1.77636e-15,-1.59872e-14)">
        <rect x="0" y="0" width="100" height="100" style="fill:rgb(247,223,30);fill-rule:nonzero;"/>
    </g>
    <g transform="matrix(0.7,0,0,0.7,-1.77636e-15,-1.59872e-14)">
        <path d="M67.175,78.125C69.189,81.415 71.809,83.832 76.445,83.832C80.338,83.832 82.825,81.886 82.825,79.197C82.825,75.975 80.27,74.833 75.985,72.959L73.635,71.951C66.854,69.061 62.349,65.443 62.349,57.792C62.349,50.745 67.719,45.379 76.111,45.379C82.086,45.379 86.381,47.459 89.476,52.903L82.159,57.602C80.547,54.712 78.809,53.575 76.111,53.575C73.359,53.575 71.614,55.321 71.614,57.602C71.614,60.421 73.36,61.562 77.392,63.308L79.742,64.314C87.725,67.738 92.233,71.229 92.233,79.076C92.233,87.536 85.587,92.172 76.662,92.172C67.935,92.172 62.297,88.012 59.538,82.562L67.175,78.125ZM33.979,78.94C35.456,81.559 36.799,83.773 40.027,83.773C43.114,83.773 45.062,82.565 45.062,77.868L45.062,45.916L54.459,45.916L54.459,77.996C54.459,87.726 48.754,92.154 40.427,92.154C32.903,92.154 28.546,88.26 26.33,83.571L33.979,78.94Z" style="fill-rule:nonzero;"/>
    </g>
</svg>
