<svg xmlns="http://www.w3.org/2000/svg" width="70" height="70" fill="none"><circle cx="35" cy="35" r="35" fill="#40CE7C"/><g clip-path="url(#a)"><path fill="#fff" d="M27.752 17c-4.8 0-8.695 3.869-8.695 8.637v18.726c0 4.767 3.895 8.637 8.695 8.637a8.696 8.696 0 0 0 7.152-3.718l1.191 1.185c3.39 3.367 8.915 3.367 12.305 0a8.586 8.586 0 0 0 2.544-6.113 8.585 8.585 0 0 0-2.544-6.111l-3.273-3.252 3.273-3.234a8.585 8.585 0 0 0 2.544-6.111 8.585 8.585 0 0 0-2.544-6.111c-3.39-3.369-8.913-3.369-12.305 0l-1.19 1.183A8.695 8.695 0 0 0 27.751 17z"/></g><defs><clipPath id="a"><path fill="#fff" d="M17 17h36v36H17z"/></clipPath></defs></svg>