<svg xmlns="http://www.w3.org/2000/svg" width="70" height="70" fill="none"><circle cx="35" cy="35" r="35" fill="#FDE03B"/><path fill="#000" d="M43.915 33.97c.275-.032.535-.037.777 0 .137-.32.162-.872.04-1.474-.188-.894-.44-1.434-.961-1.346-.523.083-.544.73-.354 1.623.104.5.291.93.498 1.198zm-4.477.707c.375.163.604.269.69.18.06-.06.043-.176-.047-.322a2.188 2.188 0 0 0-.966-.772 2.626 2.626 0 0 0-2.559.304c-.247.183-.483.435-.454.59.015.047.048.087.136.103.206.023.925-.341 1.756-.391.587-.042 1.069.141 1.444.308zm-.753.427c-.483.077-.752.236-.922.39-.148.129-.236.266-.236.368l.038.088.077.03c.11 0 .356-.097.356-.097.675-.24 1.123-.212 1.567-.162.244.029.358.042.412-.042.015-.025.038-.073-.014-.154-.117-.19-.607-.5-1.278-.42zm3.717 1.575c.331.163.694.096.813-.144.123-.24-.05-.566-.382-.727-.329-.164-.693-.102-.812.138-.119.24.054.57.381.733zm2.121-1.856c-.267-.004-.488.287-.496.658-.006.369.209.669.477.671.269.004.49-.29.496-.656.006-.367-.206-.667-.477-.673zm-18.008 6.631c-.067-.083-.177-.06-.284-.031-.075.014-.158.035-.248.033a.552.552 0 0 1-.46-.231c-.123-.188-.117-.469.02-.788l.063-.143c.217-.481.573-1.29.171-2.059a1.833 1.833 0 0 0-1.398-1.016 1.795 1.795 0 0 0-1.54.556c-.591.652-.68 1.544-.568 1.86.044.117.11.148.156.155.1.014.248-.06.342-.313l.029-.08c.042-.132.119-.382.246-.578a1.079 1.079 0 0 1 1.494-.313c.416.273.572.782.395 1.267-.091.252-.24.731-.208 1.125.067.798.563 1.119 1 1.158.43.015.73-.225.806-.402.044-.11.007-.175-.016-.2z"/><path fill="#000" d="M51.294 39.994c-.019-.06-.127-.45-.271-.917l-.3-.8c.585-.881.596-1.665.519-2.11a2.675 2.675 0 0 0-.775-1.509c-.463-.483-1.41-.983-2.74-1.356l-.698-.194c-.004-.03-.037-1.645-.064-2.34-.023-.5-.065-1.283-.309-2.053-.291-1.046-.794-1.955-1.425-2.544 1.74-1.8 2.823-3.786 2.821-5.488-.006-3.273-4.027-4.268-8.983-2.214l-1.048.446a885.144 885.144 0 0 0-1.925-1.886C30.442 12.1 12.779 31.738 18.429 36.506l1.236 1.044a6.075 6.075 0 0 0-.346 2.802c.135 1.315.81 2.57 1.906 3.544 1.042.92 2.415 1.508 3.742 1.506 2.198 5.067 7.218 8.17 13.106 8.348 6.317.188 11.617-2.777 13.842-8.102.143-.373.76-2.056.76-3.542-.002-1.496-.846-2.114-1.381-2.112zM25.45 43.977a2.873 2.873 0 0 1-.583.044c-1.909-.054-3.97-1.771-4.173-3.806-.227-2.25.923-3.984 2.96-4.392.242-.052.538-.08.854-.065 1.142.067 2.821.942 3.207 3.427.341 2.198-.2 4.442-2.265 4.792zm-2.127-9.504a4.844 4.844 0 0 0-3.069 1.958c-.41-.341-1.17-1-1.304-1.258-1.092-2.07 1.19-6.1 2.785-8.375 3.936-5.62 10.107-9.873 12.965-9.106.462.133 2 1.918 2 1.918s-2.854 1.582-5.504 3.79c-3.565 2.75-6.263 6.742-7.873 11.073zm20.023 8.662a.104.104 0 0 0 .062-.112.104.104 0 0 0-.116-.094s-2.988.442-5.81-.59c.306-.997 1.126-.641 2.362-.539 1.92.113 3.846-.095 5.698-.617 1.277-.368 2.956-1.091 4.26-2.12.442.968.596 2.03.596 2.03s.34-.06.625.115c.27.167.467.51.333 1.398-.277 1.663-.981 3.01-2.17 4.252a8.871 8.871 0 0 1-2.603 1.946 11.09 11.09 0 0 1-1.695.721c-4.478 1.46-9.06-.146-10.538-3.598a5.736 5.736 0 0 1-.296-.817c-.629-2.275-.096-5 1.573-6.72.106-.109.213-.238.213-.4 0-.134-.088-.278-.16-.382-.584-.845-2.611-2.29-2.203-5.083.29-2.008 2.046-3.42 3.683-3.337l.417.024c.708.042 1.327.132 1.91.159.98.04 1.857-.102 2.898-.969.352-.296.634-.548 1.109-.627.05-.012.175-.052.423-.044.254.01.5.089.714.227.834.555.952 1.9.998 2.886.025.56.094 1.92.115 2.308.054.892.29 1.019.76 1.173.269.092.517.154.881.26 1.102.307 1.76.625 2.173 1.027.214.208.352.48.392.776.135.952-.735 2.127-3.031 3.193-2.513 1.165-5.56 1.46-7.665 1.225l-.737-.083c-1.688-.225-2.644 1.95-1.634 3.44.652.96 2.425 1.585 4.202 1.585 4.07.004 7.198-1.733 8.365-3.238l.092-.13c.054-.088.01-.132-.063-.086-.948.65-5.173 3.233-9.69 2.458 0 0-.55-.092-1.05-.287-.395-.15-1.23-.538-1.33-1.392 3.639 1.131 5.937.065 5.937.062zm-12.75-16.358c1.4-1.617 3.123-3.025 4.669-3.812.052-.03.108.03.079.079a4.43 4.43 0 0 0-.434 1.058c-.012.056.048.102.096.067.963-.654 2.634-1.357 4.1-1.444a.062.062 0 0 1 .07.04.062.062 0 0 1-.026.075c-.243.186-.46.404-.646.648-.029.041-.002.102.05.102 1.03.006 2.481.364 3.425.895.063.038.017.16-.052.144-1.433-.327-3.773-.577-6.206.017-2.175.529-3.833 1.346-5.04 2.227-.062.042-.135-.04-.085-.096z"/></svg>