<?xml version="1.0" encoding="UTF-8" standalone="no"?>
<!DOCTYPE svg PUBLIC "-//W3C//DTD SVG 1.1//EN" "http://www.w3.org/Graphics/SVG/1.1/DTD/svg11.dtd">
<svg width="100%" height="100%" viewBox="0 0 70 70" version="1.1" xmlns="http://www.w3.org/2000/svg" xmlns:xlink="http://www.w3.org/1999/xlink" xml:space="preserve" xmlns:serif="http://www.serif.com/" style="fill-rule:evenodd;clip-rule:evenodd;stroke-linejoin:round;stroke-miterlimit:2;">
    <g transform="matrix(0.700005,0,0,0.700005,-0.321144,0.000199728)">
        <path d="M50.146,0.273L52.814,5.285C53.414,6.21 54.064,7.029 54.83,7.791C57.074,10.007 59.167,12.373 61.092,14.871C65.613,20.809 68.662,27.402 70.841,34.533C72.147,38.889 72.856,43.357 72.91,47.876C73.128,61.384 68.497,72.983 59.16,82.623C57.641,84.151 56,85.553 54.255,86.817C53.33,86.817 52.892,86.107 52.511,85.454C51.817,84.243 51.355,82.913 51.149,81.533C50.821,79.898 50.605,78.264 50.711,76.577L50.711,75.814C50.636,75.652 49.821,0.657 50.145,0.273" style="fill:rgb(89,150,54);fill-rule:nonzero;"/>
    </g>
    <g transform="matrix(0.700005,0,0,0.700005,-0.321144,0.000199728)">
        <path d="M50.146,0.108C50.036,-0.112 49.926,0.054 49.817,0.161C49.87,1.254 49.489,2.229 48.892,3.161C48.236,4.085 47.368,4.795 46.496,5.557C41.652,9.751 37.84,14.816 34.787,20.481C30.725,28.105 28.631,36.277 28.037,44.879C27.766,47.982 29.019,58.931 29.997,62.09C32.666,70.477 37.459,77.505 43.667,83.605C45.193,85.073 46.824,86.435 48.511,87.745C49.001,87.745 49.055,87.307 49.167,86.982C49.382,86.287 49.546,85.577 49.658,84.858L50.752,76.689L50.146,0.108Z" style="fill:rgb(108,172,72);fill-rule:nonzero;"/>
    </g>
    <g transform="matrix(0.700005,0,0,0.700005,-0.321144,0.000199728)">
        <path d="M52.814,90.135C52.924,88.885 53.524,87.848 54.176,86.814C53.52,86.542 53.033,86.001 52.652,85.398C52.322,84.828 52.051,84.225 51.839,83.601C51.077,81.314 50.914,78.914 50.696,76.577L50.696,75.16C50.424,75.38 50.367,77.229 50.367,77.504C50.209,79.975 49.882,82.431 49.387,84.857C49.224,85.837 49.114,86.816 48.511,87.687C48.511,87.797 48.511,87.907 48.564,88.069C49.545,90.956 49.814,93.896 49.98,96.893L49.98,97.987C49.98,99.293 49.927,99.017 51.011,99.455C51.449,99.618 51.936,99.675 52.373,99.999C52.702,99.999 52.755,99.727 52.755,99.509L52.592,97.712L52.592,92.7C52.539,91.825 52.702,90.956 52.811,90.137L52.814,90.135Z" style="fill:rgb(194,191,191);fill-rule:nonzero;"/>
    </g>
</svg>
