<?xml version="1.0" encoding="UTF-8" standalone="no"?>
<!DOCTYPE svg PUBLIC "-//W3C//DTD SVG 1.1//EN" "http://www.w3.org/Graphics/SVG/1.1/DTD/svg11.dtd">
<svg width="100%" height="100%" viewBox="0 0 70 70" version="1.1" xmlns="http://www.w3.org/2000/svg" xmlns:xlink="http://www.w3.org/1999/xlink" xml:space="preserve" xmlns:serif="http://www.serif.com/" style="fill-rule:evenodd;clip-rule:evenodd;stroke-linejoin:round;stroke-miterlimit:2;">
    <g transform="matrix(0.7,0,0,0.7,1.77636e-15,0.0007)">
        <path d="M50,99.999C77.614,99.999 100,77.613 100,49.999C100,22.385 77.614,-0.001 50,-0.001C22.386,-0.001 0,22.385 0,49.999C0,77.613 22.386,99.999 50,99.999" style="fill-rule:nonzero;"/>
    </g>
    <g transform="matrix(0.7,0,0,0.7,1.77636e-15,0.0007)">
        <path d="M83.06,87.51L38.412,30L30,30L30,69.983L36.73,69.983L36.73,38.545L77.777,91.58C79.627,90.342 81.392,88.983 83.06,87.51" style="fill:url(#_Linear1);fill-rule:nonzero;"/>
    </g>
    <g transform="matrix(0.7,0,0,0.7,1.77636e-15,0.0007)">
        <rect x="63.889" y="29.999" width="6.667" height="40" style="fill:url(#_Linear2);fill-rule:nonzero;"/>
    </g>
    <defs>
        <linearGradient id="_Linear1" x1="0" y1="0" x2="1" y2="0" gradientUnits="userSpaceOnUse" gradientTransform="matrix(19.722,24.445,-24.445,19.722,60.556,64.721)"><stop offset="0" style="stop-color:white;stop-opacity:1"/><stop offset="1" style="stop-color:white;stop-opacity:0"/></linearGradient>
        <linearGradient id="_Linear2" x1="0" y1="0" x2="1" y2="0" gradientUnits="userSpaceOnUse" gradientTransform="matrix(-0.111,29.375,-29.375,-0.111,67.222,29.999)"><stop offset="0" style="stop-color:white;stop-opacity:1"/><stop offset="1" style="stop-color:white;stop-opacity:0"/></linearGradient>
    </defs>
</svg>
