<?xml version="1.0" encoding="UTF-8" standalone="no"?>
<!DOCTYPE svg PUBLIC "-//W3C//DTD SVG 1.1//EN" "http://www.w3.org/Graphics/SVG/1.1/DTD/svg11.dtd">
<svg width="100%" height="100%" viewBox="0 0 70 70" version="1.1" xmlns="http://www.w3.org/2000/svg" xmlns:xlink="http://www.w3.org/1999/xlink" xml:space="preserve" xmlns:serif="http://www.serif.com/" style="fill-rule:evenodd;clip-rule:evenodd;stroke-linejoin:round;stroke-miterlimit:2;">
    <g transform="matrix(0.699997,0,0,0.699997,-0.260601,0.000175829)">
        <path d="M46.279,1.067C48.758,-0.353 51.988,-0.359 54.465,1.067C66.929,8.109 79.396,15.141 91.858,22.187C94.201,23.508 95.769,26.117 95.745,28.817L95.745,71.188C95.763,74.001 94.04,76.671 91.567,77.962C79.145,84.966 66.729,91.978 54.308,98.982C51.778,100.429 48.483,100.317 46.031,98.752C42.307,96.592 38.576,94.444 34.851,92.287C34.091,91.834 33.232,91.472 32.695,90.735C33.17,90.095 34.019,90.015 34.71,89.735C36.264,89.24 37.692,88.447 39.12,87.677C39.481,87.43 39.922,87.525 40.268,87.746C43.453,89.572 46.61,91.451 49.805,93.259C50.487,93.653 51.177,93.13 51.76,92.806C63.95,85.916 76.156,79.052 88.344,72.16C88.788,71.938 89.053,71.464 89.008,70.969C89.017,56.992 89.01,43.012 89.013,29.035C89.059,28.478 88.744,27.951 88.232,27.727C75.852,20.756 63.479,13.773 51.102,6.8C50.664,6.499 50.083,6.498 49.644,6.798C37.266,13.773 24.895,20.762 12.518,27.733C12.012,27.963 11.673,28.471 11.733,29.035C11.734,43.012 11.734,56.991 11.733,70.971C11.691,71.464 11.96,71.934 12.406,72.147C15.709,74.02 19.016,75.88 22.322,77.747C24.183,78.749 26.47,79.344 28.521,78.577C30.331,77.927 31.601,76.08 31.566,74.157C31.583,60.262 31.557,46.364 31.579,32.471C31.533,31.854 32.119,31.344 32.719,31.402C34.305,31.392 35.894,31.381 37.481,31.407C38.144,31.392 38.6,32.056 38.518,32.677C38.511,46.661 38.535,60.645 38.508,74.629C38.511,78.355 36.98,82.41 33.533,84.234C29.286,86.434 24.037,85.967 19.842,83.858C16.21,82.045 12.744,79.906 9.176,77.964C6.697,76.68 4.983,73.999 5,71.189L5,28.817C4.974,26.061 6.604,23.405 9.021,22.104C21.441,15.093 33.861,8.081 46.28,1.067" style="fill:rgb(140,200,75);fill-rule:nonzero;"/>
    </g>
    <g transform="matrix(0.699997,0,0,0.699997,-0.260601,0.000175829)">
        <path d="M57.114,30.417C62.531,30.069 68.33,30.211 73.205,32.879C76.979,34.925 79.072,39.217 79.138,43.409C79.033,43.975 78.442,44.287 77.902,44.249C76.33,44.246 74.758,44.269 73.186,44.238C72.519,44.263 72.132,43.648 72.048,43.059C71.597,41.053 70.503,39.066 68.614,38.099C65.716,36.647 62.354,36.719 59.194,36.75C56.886,36.873 54.404,37.072 52.45,38.43C50.95,39.457 50.493,41.532 51.029,43.203C51.534,44.403 52.919,44.79 54.052,45.147C60.581,46.855 67.499,46.685 73.902,48.932C76.553,49.848 79.147,51.629 80.054,54.404C81.241,58.124 80.721,62.572 78.074,65.558C75.928,68.016 72.801,69.354 69.684,70.08C65.535,71.005 61.23,71.029 57.018,70.618C53.056,70.167 48.934,69.126 45.876,66.427C43.262,64.157 41.984,60.619 42.111,57.204C42.141,56.628 42.716,56.226 43.268,56.274C44.851,56.26 46.433,56.256 48.016,56.275C48.648,56.23 49.117,56.776 49.149,57.372C49.441,59.284 50.159,61.29 51.827,62.423C55.043,64.498 59.08,64.356 62.763,64.414C65.815,64.279 69.24,64.238 71.73,62.221C73.044,61.071 73.433,59.146 73.078,57.491C72.694,56.093 71.231,55.441 69.975,55.015C63.531,52.977 56.535,53.716 50.153,51.411C47.563,50.495 45.057,48.764 44.061,46.102C42.672,42.335 43.309,37.675 46.233,34.789C49.085,31.919 53.201,30.813 57.114,30.417" style="fill:rgb(140,200,75);fill-rule:nonzero;"/>
    </g>
</svg>
