<?xml version="1.0" encoding="UTF-8" standalone="no"?>
<!DOCTYPE svg PUBLIC "-//W3C//DTD SVG 1.1//EN" "http://www.w3.org/Graphics/SVG/1.1/DTD/svg11.dtd">
<svg width="100%" height="100%" viewBox="0 0 70 70" version="1.1" xmlns="http://www.w3.org/2000/svg" xmlns:xlink="http://www.w3.org/1999/xlink" xml:space="preserve" xmlns:serif="http://www.serif.com/" style="fill-rule:evenodd;clip-rule:evenodd;stroke-linejoin:round;stroke-miterlimit:2;">
    <g transform="matrix(0.700036,0,0,0.700036,-0.00188313,-0.234344)">
        <path d="M56.1,83.667L93.275,83.667C94.455,83.667 95.615,83.359 96.638,82.774C97.658,82.191 98.508,81.349 99.1,80.334C100.298,78.276 100.297,75.725 99.097,73.668L74.132,30.809C73.54,29.794 72.691,28.952 71.671,28.369C69.59,27.178 67.027,27.178 64.946,28.369C63.926,28.952 63.076,29.794 62.484,30.809L56.101,41.775L43.621,20.331C43.028,19.316 42.179,18.474 41.158,17.891C39.077,16.7 36.512,16.7 34.431,17.891C33.411,18.474 32.561,19.316 31.969,20.331L0.903,73.668C-0.296,75.724 -0.297,78.275 0.9,80.333C1.492,81.348 2.342,82.19 3.362,82.773C4.386,83.358 5.546,83.666 6.725,83.667L30.06,83.667C39.305,83.667 46.124,79.642 50.815,71.789L62.205,52.239L68.306,41.776L86.616,73.204L62.206,73.204L56.1,83.667ZM29.68,73.193L13.395,73.189L37.805,31.287L49.985,52.238L41.831,66.242C38.715,71.337 35.175,73.193 29.679,73.193" style="fill:rgb(0,220,130);fill-rule:nonzero;"/>
    </g>
</svg>
