<?xml version="1.0" encoding="UTF-8" standalone="no"?>
<!DOCTYPE svg PUBLIC "-//W3C//DTD SVG 1.1//EN" "http://www.w3.org/Graphics/SVG/1.1/DTD/svg11.dtd">
<svg width="100%" height="100%" viewBox="0 0 70 70" version="1.1" xmlns="http://www.w3.org/2000/svg" xmlns:xlink="http://www.w3.org/1999/xlink" xml:space="preserve" xmlns:serif="http://www.serif.com/" style="fill-rule:evenodd;clip-rule:evenodd;stroke-linejoin:round;stroke-miterlimit:2;">
    <g transform="matrix(0.700001,0,0,0.700001,-0.254501,-7.26175e-05)">
        <path d="M98.472,59.902C97.89,58.136 96.367,56.907 94.398,56.612C93.469,56.472 92.406,56.532 91.147,56.792C88.953,57.246 87.326,57.419 86.138,57.452C90.621,49.862 94.267,41.206 96.365,33.059C99.759,19.884 97.945,13.882 95.826,11.167C90.218,3.981 82.036,0.121 72.166,0.003C66.899,-0.062 62.276,0.981 59.866,1.731C57.62,1.333 55.206,1.111 52.673,1.071C47.924,0.995 43.729,2.033 40.144,4.166C37.259,3.188 34.3,2.444 31.296,1.939C22.644,0.514 15.672,1.624 10.57,5.237C4.395,9.612 1.532,17.212 2.061,27.827C2.229,31.197 4.109,41.452 7.07,51.177C8.771,56.767 10.585,61.409 12.462,64.975C15.123,70.033 17.972,73.01 21.168,74.08C22.96,74.679 26.216,75.098 29.64,72.238C30.074,72.765 30.653,73.288 31.422,73.775C32.398,74.393 33.592,74.897 34.783,75.195C39.079,76.273 43.102,76.003 46.535,74.494C46.555,75.106 46.572,75.691 46.585,76.196C46.608,77.016 46.631,77.819 46.661,78.57C46.864,83.65 47.209,87.599 48.231,90.362C48.286,90.514 48.361,90.746 48.441,90.992C48.951,92.556 49.802,95.174 51.97,97.224C54.215,99.35 56.929,100 59.415,100C60.662,100 61.852,99.836 62.895,99.612C66.615,98.812 70.839,97.595 73.895,93.232C76.784,89.107 78.188,82.895 78.442,73.106L78.535,72.313L78.595,71.796L79.275,71.856L79.451,71.868C83.239,72.041 87.871,71.235 90.716,69.91C92.964,68.864 100.168,65.05 98.472,59.902" style="fill-rule:nonzero;"/>
    </g>
    <g transform="matrix(0.700001,0,0,0.700001,-0.254501,-7.26175e-05)">
        <path d="M91.994,60.903C80.73,63.233 79.956,59.409 79.956,59.409C91.848,41.713 96.82,19.251 92.53,13.753C80.825,-1.243 60.564,5.85 60.226,6.033L60.117,6.053C57.892,5.59 55.401,5.313 52.602,5.268C47.506,5.184 43.639,6.608 40.706,8.838C40.706,8.838 4.561,-6.092 6.243,27.618C6.6,34.788 16.493,81.88 28.293,67.657C32.606,62.455 36.773,58.057 36.773,58.057C38.843,59.437 41.32,60.139 43.918,59.887L44.12,59.715C44.057,60.361 44.086,60.992 44.2,61.74C41.16,65.146 42.054,65.744 35.977,66.998C29.828,68.269 33.44,70.531 35.799,71.123C38.658,71.84 45.273,72.855 49.742,66.581L49.564,67.297C50.754,68.254 51.591,73.519 51.451,78.293C51.311,83.066 51.217,86.343 52.155,88.903C53.095,91.463 54.029,97.223 62.018,95.507C68.692,94.072 72.152,90.355 72.633,84.154C72.974,79.747 73.747,80.398 73.796,76.457L74.416,74.592C75.131,68.616 74.529,66.688 78.641,67.585L79.641,67.673C82.668,67.811 86.629,67.185 88.954,66.101C93.961,63.771 96.93,59.881 91.994,60.903" style="fill:rgb(51,103,145);fill-rule:nonzero;"/>
    </g>
    <g transform="matrix(0.700001,0,0,0.700001,-0.254501,-7.26175e-05)">
        <path d="M42.821,30.825C41.806,30.683 40.887,30.814 40.421,31.167C40.225,31.305 40.093,31.517 40.057,31.754C39.999,32.174 40.292,32.638 40.473,32.877C40.983,33.555 41.727,34.02 42.464,34.123C42.571,34.138 42.677,34.145 42.783,34.145C44.012,34.145 45.13,33.185 45.228,32.477C45.351,31.59 44.067,30.998 42.821,30.825M76.448,30.853C76.351,30.157 75.118,29.959 73.946,30.123C72.776,30.285 71.643,30.815 71.737,31.512C71.813,32.054 72.789,32.979 73.944,32.979C74.042,32.979 74.141,32.972 74.24,32.959C75.01,32.851 75.577,32.36 75.846,32.077C76.255,31.646 76.492,31.165 76.448,30.853" style="fill:white;fill-rule:nonzero;"/>
    </g>
    <g transform="matrix(0.700001,0,0,0.700001,-0.254501,-7.26175e-05)">
        <path d="M95.743,60.639C95.313,59.336 93.931,58.918 91.633,59.393C84.815,60.804 82.373,59.827 81.571,59.235C86.871,51.137 91.231,41.349 93.584,32.217C94.698,27.891 95.314,23.874 95.364,20.599C95.42,17.005 94.809,14.364 93.55,12.751C88.474,6.246 81.024,2.758 72.006,2.661C65.806,2.592 60.568,4.183 59.553,4.631C57.259,4.064 54.908,3.761 52.545,3.728C47.891,3.652 43.868,4.77 40.537,7.048C37.372,5.887 34.105,5.028 30.779,4.482C22.874,3.205 16.592,4.172 12.109,7.357C6.759,11.157 4.29,17.95 4.769,27.547C4.929,30.776 6.764,40.708 9.659,50.22C13.47,62.74 17.613,69.827 21.972,71.285C22.482,71.455 23.07,71.575 23.719,71.575C25.309,71.575 27.259,70.856 29.287,68.411C31.761,65.435 34.32,62.532 36.961,59.704C38.659,60.626 40.55,61.136 42.481,61.193L42.495,61.344C42.163,61.74 41.838,62.142 41.521,62.55C40.187,64.248 39.91,64.602 35.616,65.488C34.394,65.741 31.15,66.411 31.103,68.692C31.051,71.183 34.938,72.23 35.38,72.34C36.923,72.728 38.41,72.919 39.828,72.919C43.275,72.919 46.31,71.783 48.734,69.584C48.66,78.466 49.029,87.218 50.092,89.884C50.964,92.067 53.092,97.403 59.812,97.402C60.799,97.402 61.885,97.287 63.079,97.03C70.094,95.522 73.139,92.413 74.319,85.56C74.949,81.896 76.031,73.149 76.539,68.457C77.614,68.793 78.997,68.947 80.492,68.947C83.61,68.947 87.207,68.282 89.464,67.232C91.998,66.052 96.572,63.155 95.743,60.639M79.037,28.933C79.014,30.318 78.824,31.576 78.623,32.889C78.406,34.3 78.181,35.759 78.125,37.531C78.069,39.256 78.284,41.048 78.492,42.782C78.912,46.284 79.342,49.889 77.675,53.446C77.398,52.953 77.152,52.446 76.936,51.924C76.729,51.42 76.279,50.611 75.656,49.491C73.233,45.133 67.557,34.926 70.463,30.761C71.328,29.521 73.524,28.247 79.037,28.933M72.355,5.467C80.435,5.646 86.827,8.677 91.352,14.476C94.822,18.923 91.001,39.162 79.936,56.621L79.601,56.197L79.461,56.022C82.32,51.287 81.761,46.602 81.263,42.448C81.059,40.744 80.866,39.134 80.915,37.621C80.965,36.019 81.177,34.644 81.381,33.315C81.633,31.677 81.888,29.982 81.818,27.983C81.87,27.773 81.892,27.526 81.864,27.233C81.684,25.316 79.502,19.581 75.056,14.391C72.624,11.552 69.076,8.375 64.234,6.232C66.317,5.799 69.165,5.396 72.354,5.467M27.14,66.622C24.906,69.316 23.363,68.799 22.855,68.63C19.549,67.524 15.712,60.516 12.329,49.403C9.402,39.788 7.692,30.118 7.556,27.407C7.129,18.832 9.202,12.856 13.718,9.644C21.067,4.418 33.15,7.546 38.005,9.133C37.935,9.202 37.863,9.266 37.794,9.336C29.826,17.405 30.015,31.19 30.035,32.033C30.035,32.358 30.061,32.818 30.099,33.451C30.236,35.77 30.491,40.085 29.809,44.972C29.176,49.513 30.572,53.958 33.639,57.167C33.954,57.496 34.284,57.809 34.63,58.104C32.055,60.874 29.558,63.714 27.14,66.622M35.654,55.231C33.182,52.644 32.06,49.047 32.574,45.359C33.294,40.197 33.028,35.701 32.885,33.286C32.865,32.948 32.847,32.651 32.837,32.418C34.001,31.383 39.395,28.485 43.241,29.368C44.996,29.772 46.066,30.971 46.511,33.032C48.812,43.706 46.815,48.154 45.211,51.729C44.881,52.466 44.568,53.162 44.301,53.882L44.094,54.439C43.571,55.846 43.084,57.155 42.782,58.398C40.154,58.39 37.598,57.264 35.654,55.23M36.057,69.624C35.29,69.432 34.6,69.098 34.195,68.821C34.533,68.661 35.135,68.444 36.179,68.228C41.23,67.186 42.011,66.45 43.714,64.281C44.176,63.682 44.659,63.099 45.161,62.533C46.075,61.507 46.492,61.681 47.25,61.996C47.864,62.25 48.462,63.022 48.704,63.871C48.819,64.272 48.948,65.034 48.526,65.626C44.968,70.623 39.782,70.559 36.057,69.624M62.494,94.292C56.314,95.62 54.126,92.458 52.684,88.844C51.754,86.51 51.296,75.988 51.621,64.367C51.625,64.217 51.605,64.067 51.561,63.923C51.523,63.646 51.465,63.371 51.388,63.102C50.905,61.411 49.729,59.996 48.318,59.41C47.758,59.177 46.729,58.75 45.493,59.067C45.757,57.977 46.213,56.747 46.709,55.416L46.917,54.856C47.151,54.224 47.445,53.569 47.756,52.876C49.435,49.136 51.734,44.013 49.239,32.44C48.304,28.105 45.182,25.988 40.45,26.48C37.613,26.774 35.018,27.922 33.723,28.58C33.446,28.721 33.189,28.858 32.953,28.99C33.313,24.623 34.679,16.46 39.785,11.296C43,8.046 47.282,6.44 52.5,6.527C62.78,6.695 69.371,11.985 73.091,16.393C76.297,20.192 78.033,24.018 78.726,26.083C73.516,25.551 69.973,26.582 68.176,29.157C64.269,34.758 70.314,45.63 73.22,50.855C73.752,51.812 74.212,52.64 74.357,52.991C75.303,55.291 76.528,56.826 77.422,57.946C77.696,58.289 77.962,58.623 78.165,58.913C76.587,59.37 73.752,60.423 74.011,65.692C73.802,68.335 72.321,80.712 71.569,85.084C70.575,90.86 68.455,93.012 62.495,94.294M88.289,64.694C86.676,65.445 83.976,66.009 81.411,66.13C78.578,66.263 77.136,65.811 76.796,65.534C76.637,62.251 77.856,61.908 79.146,61.544C79.348,61.488 79.546,61.432 79.736,61.365C79.855,61.462 79.985,61.558 80.127,61.652C82.404,63.159 86.466,63.322 92.2,62.135L92.263,62.122C91.489,62.848 90.166,63.821 88.289,64.694" style="fill:white;fill-rule:nonzero;"/>
    </g>
</svg>
