<?xml version="1.0" encoding="UTF-8" standalone="no"?>
<!DOCTYPE svg PUBLIC "-//W3C//DTD SVG 1.1//EN" "http://www.w3.org/Graphics/SVG/1.1/DTD/svg11.dtd">
<svg width="100%" height="100%" viewBox="0 0 70 70" version="1.1" xmlns="http://www.w3.org/2000/svg" xmlns:xlink="http://www.w3.org/1999/xlink" xml:space="preserve" xmlns:serif="http://www.serif.com/" style="fill-rule:evenodd;clip-rule:evenodd;stroke-linejoin:round;stroke-miterlimit:2;">
    <g transform="matrix(0.7,0,0,0.7,1.2379e-14,0.182)">
        <path d="M49.64,0C24.254,0 25.839,11.009 25.839,11.009L25.867,22.415L50.092,22.415L50.092,25.839L16.245,25.839C16.245,25.839 0,23.997 0,49.61C0,75.225 14.179,74.317 14.179,74.317L22.641,74.317L22.641,62.432C22.641,62.432 22.184,48.252 36.593,48.252L60.62,48.252C60.62,48.252 74.12,48.471 74.12,35.206L74.12,13.273C74.12,13.273 76.17,0 49.64,0M36.282,7.67C36.283,7.67 36.285,7.67 36.286,7.67C38.675,7.67 40.64,9.635 40.64,12.024C40.64,12.025 40.64,12.032 40.64,12.033C40.64,14.423 38.674,16.389 36.284,16.389C35.711,16.389 35.143,16.276 34.613,16.056C32.986,15.384 31.92,13.788 31.923,12.028C31.923,12.027 31.923,12.026 31.923,12.025C31.923,9.636 33.889,7.67 36.278,7.67C36.279,7.67 36.281,7.67 36.282,7.67" style="fill:url(#_Linear1);fill-rule:nonzero;"/>
    </g>
    <g transform="matrix(0.7,0,0,0.7,1.2379e-14,0.182)">
        <path d="M50.36,99.48C75.747,99.48 74.162,88.471 74.162,88.471L74.134,77.066L49.908,77.066L49.908,73.64L83.755,73.64C83.755,73.64 100,75.485 100,49.869C100,24.254 85.821,25.163 85.821,25.163L77.36,25.163L77.36,37.049C77.36,37.049 77.817,51.228 63.408,51.228L39.38,51.228C39.38,51.228 25.88,51.01 25.88,64.275L25.88,86.208C25.88,86.208 23.83,99.48 50.36,99.48M63.719,91.81C63.717,91.81 63.715,91.81 63.713,91.81C61.324,91.81 59.358,89.844 59.358,87.455C59.358,86.882 59.471,86.314 59.691,85.784C60.363,84.157 61.959,83.091 63.719,83.094C63.721,83.094 63.723,83.094 63.725,83.094C66.114,83.094 68.08,85.06 68.08,87.449C68.08,88.023 67.966,88.591 67.746,89.121C67.073,90.747 65.479,91.812 63.719,91.811" style="fill:url(#_Linear2);fill-rule:nonzero;"/>
    </g>
    <defs>
        <linearGradient id="_Linear1" x1="0" y1="0" x2="1" y2="0" gradientUnits="userSpaceOnUse" gradientTransform="matrix(49.557,49.062,-49.062,49.557,9.61,8.948)"><stop offset="0" style="stop-color:rgb(56,126,184);stop-opacity:1"/><stop offset="1" style="stop-color:rgb(54,105,148);stop-opacity:1"/></linearGradient>
        <linearGradient id="_Linear2" x1="0" y1="0" x2="1" y2="0" gradientUnits="userSpaceOnUse" gradientTransform="matrix(53.219,50.309,-50.309,53.219,40.028,40.453)"><stop offset="0" style="stop-color:rgb(255,224,82);stop-opacity:1"/><stop offset="1" style="stop-color:rgb(255,195,49);stop-opacity:1"/></linearGradient>
    </defs>
</svg>
