<?xml version="1.0" encoding="UTF-8" standalone="no"?>
<!DOCTYPE svg PUBLIC "-//W3C//DTD SVG 1.1//EN" "http://www.w3.org/Graphics/SVG/1.1/DTD/svg11.dtd">
<svg width="100%" height="100%" viewBox="0 0 70 70" version="1.1" xmlns="http://www.w3.org/2000/svg" xmlns:xlink="http://www.w3.org/1999/xlink" xml:space="preserve" xmlns:serif="http://www.serif.com/" style="fill-rule:evenodd;clip-rule:evenodd;stroke-linejoin:round;stroke-miterlimit:2;">
    <g transform="matrix(0.699998,0,0,0.699998,0.000182323,0.215073)">
        <path d="M96.082,72.765C90.745,75.547 63.1,86.913 57.215,89.982C51.329,93.051 48.059,93.021 43.41,90.798C38.76,88.576 9.34,76.692 4.04,74.158C1.393,72.894 0,71.825 0,70.816L0,60.707C0,60.707 38.3,52.369 44.484,50.151C50.667,47.933 52.812,47.853 58.074,49.78C63.336,51.707 94.8,57.385 100,59.29L99.998,69.254C99.998,70.254 98.798,71.35 96.082,72.765" style="fill:rgb(145,38,38);fill-rule:nonzero;"/>
    </g>
    <g transform="matrix(0.699998,0,0,0.699998,0.000182323,0.215073)">
        <path d="M96.08,62.717C90.744,65.497 63.1,76.865 57.214,79.933C51.328,83.003 48.059,82.972 43.41,80.749C38.76,78.529 9.342,66.643 4.042,64.111C-1.257,61.578 -1.368,59.834 3.838,57.796C9.043,55.757 38.3,44.28 44.484,42.06C50.667,39.843 52.812,39.762 58.074,41.69C63.336,43.618 90.816,54.555 96.015,56.46C101.217,58.366 101.416,59.936 96.08,62.717" style="fill:rgb(198,48,43);fill-rule:nonzero;"/>
    </g>
    <g transform="matrix(0.699998,0,0,0.699998,0.000182323,0.215073)">
        <path d="M96.082,56.41C90.745,59.192 63.1,70.56 57.215,73.628C51.329,76.696 48.059,76.666 43.41,74.443C38.76,72.222 9.34,60.337 4.04,57.803C1.393,56.539 0,55.472 0,54.462L0,44.352C0,44.352 38.3,36.015 44.484,33.797C50.667,31.578 52.812,31.497 58.074,33.425C63.336,35.353 94.8,41.03 100,42.934L99.998,52.9C99.998,53.898 98.798,54.995 96.082,56.41" style="fill:rgb(145,38,38);fill-rule:nonzero;"/>
    </g>
    <g transform="matrix(0.699998,0,0,0.699998,0.000182323,0.215073)">
        <path d="M96.08,46.362C90.744,49.143 63.1,60.51 57.214,63.58C51.328,66.65 48.059,66.618 43.41,64.395C38.76,62.175 9.342,50.289 4.042,47.757C-1.257,45.225 -1.368,43.481 3.838,41.442C9.043,39.403 38.3,27.923 44.484,25.705C50.668,23.487 52.812,23.407 58.074,25.335C63.336,27.263 90.816,38.199 96.015,40.105C101.217,42.011 101.416,43.581 96.08,46.362" style="fill:rgb(198,48,43);fill-rule:nonzero;"/>
    </g>
    <g transform="matrix(0.699998,0,0,0.699998,0.000182323,0.215073)">
        <path d="M96.082,39.449C90.745,42.229 63.1,53.597 57.215,56.667C51.329,59.735 48.059,59.705 43.41,57.482C38.76,55.26 9.34,43.375 4.04,40.843C1.393,39.576 0,38.51 0,37.5L0,27.39C0,27.39 38.3,19.054 44.484,16.836C50.667,14.617 52.812,14.537 58.074,16.465C63.336,18.393 94.8,24.068 100,25.973L99.998,35.938C99.998,36.937 98.798,38.033 96.082,39.448" style="fill:rgb(145,38,38);fill-rule:nonzero;"/>
    </g>
    <g transform="matrix(0.699998,0,0,0.699998,0.000182323,0.215073)">
        <path d="M96.08,29.4C90.744,32.182 63.1,43.55 57.214,46.617C51.329,49.685 48.059,49.655 43.41,47.434C38.76,45.211 9.342,33.327 4.043,30.794C-1.257,28.262 -1.367,26.518 3.838,24.479C9.043,22.441 38.3,10.963 44.484,8.745C50.668,6.527 52.812,6.446 58.074,8.375C63.336,10.302 90.816,21.239 96.015,23.145C101.217,25.049 101.416,26.619 96.08,29.401" style="fill:rgb(198,48,43);fill-rule:nonzero;"/>
    </g>
    <g transform="matrix(0.699998,0,0,0.699998,0.000182323,0.215073)">
        <path d="M62.22,19.567L53.622,20.46L51.698,25.091L48.589,19.923L38.661,19.031L46.069,16.36L43.846,12.259L50.782,14.971L57.32,12.831L55.553,17.071L62.22,19.567ZM51.184,42.035L35.14,35.38L58.132,31.85L51.184,42.035ZM28.938,22.142C35.725,22.142 41.228,24.274 41.228,26.905C41.228,29.536 35.725,31.669 28.938,31.669C22.151,31.669 16.649,29.536 16.649,26.905C16.649,24.275 22.151,22.142 28.939,22.142" style="fill:white;fill-rule:nonzero;"/>
    </g>
    <g transform="matrix(0.699998,0,0,0.699998,0.000182323,0.215073)">
        <path d="M72.38,20.833L85.989,26.211L72.393,31.583L72.38,20.833Z" style="fill:rgb(98,27,28);fill-rule:nonzero;"/>
    </g>
    <g transform="matrix(0.699998,0,0,0.699998,0.000182323,0.215073)">
        <path d="M57.326,26.789L72.381,20.833L72.393,31.583L70.916,32.161L57.326,26.789Z" style="fill:rgb(154,41,40);fill-rule:nonzero;"/>
    </g>
</svg>
