<svg xmlns="http://www.w3.org/2000/svg" width="70" height="70" fill="none"><circle cx="35" cy="35" r="35" fill="#9ABF51"/><path fill="#fff" d="M41.954 19.156a.47.47 0 0 1 .067.056l2.458 2.44 3.334.25a.4.4 0 0 1 .362.335l4.525 30.61-12.808 2.772-23.642-4.43s3.033-23.462 3.148-24.293c.152-1.092.19-1.127 1.35-1.492l3.742-1.16c.8-3.394 3.354-10.077 8.698-10.077.697 0 1.506.375 2.16 1.237l.194-.006c2.293 0 3.598 1.956 4.337 4.083l1.24-.383c.166-.05.579-.117.833.058h.002zm-6.41 9.823s-1.069-.619-3.23-.619c-5.608 0-8.387 3.746-8.387 7.617 0 4.6 4.59 4.725 4.59 7.523 0 .677-.48 1.604-1.657 1.604-1.8 0-3.933-1.833-3.933-1.833l-1.085 3.591s2.075 2.526 6.133 2.526c3.381 0 5.89-2.546 5.89-6.5 0-5.028-5.594-5.848-5.594-7.994 0-.396.125-1.954 2.612-1.954a7.273 7.273 0 0 1 3.08.737l1.58-4.698zm3.031-9.096c-.506-1.548-1.294-2.893-2.477-3.041.294.843.48 1.908.48 3.229l-.003.433 2-.62zm-3.944-2.779c-1.304.559-2.796 2.042-3.59 5.113l4.132-1.28v-.23c0-1.597-.213-2.778-.542-3.603zM33.044 15.6c-3.842 0-5.998 5.042-6.906 8.135l3.264-1.012c.777-4.054 2.613-6.083 4.327-6.89-.2-.145-.44-.225-.687-.229l.002-.004z"/></svg>