<svg xmlns="http://www.w3.org/2000/svg" width="70" height="70" fill="none"><circle cx="35" cy="35" r="35" fill="#4F1852"/><g clip-path="url(#a)"><path fill="#E01E5A" d="M21.095 41.248a5.024 5.024 0 0 1-5.028 5.028 5.024 5.024 0 0 1-5.029-5.029 5.024 5.024 0 0 1 5.029-5.028h5.028v5.029zm2.515 0a5.024 5.024 0 0 1 5.028-5.029 5.024 5.024 0 0 1 5.029 5.029v12.571a5.024 5.024 0 0 1-5.029 5.029 5.024 5.024 0 0 1-5.028-5.029V41.247z"/><path fill="#36C5F0" d="M28.638 21.057a5.024 5.024 0 0 1-5.029-5.028A5.024 5.024 0 0 1 28.64 11a5.024 5.024 0 0 1 5.028 5.029v5.028h-5.03.001zm0 2.553a5.024 5.024 0 0 1 5.029 5.028 5.024 5.024 0 0 1-5.03 5.029H16.03a5.024 5.024 0 0 1-5.03-5.03 5.024 5.024 0 0 1 5.029-5.027h12.61z"/><path fill="#2EB67D" d="M48.79 28.638a5.024 5.024 0 0 1 5.03-5.029 5.024 5.024 0 0 1 5.028 5.03 5.024 5.024 0 0 1-5.029 5.028h-5.028v-5.029zm-2.514 0a5.024 5.024 0 0 1-5.028 5.029 5.024 5.024 0 0 1-5.029-5.03V16.03A5.024 5.024 0 0 1 41.248 11a5.024 5.024 0 0 1 5.028 5.029v12.609z"/><path fill="#ECB22E" d="M41.248 48.79a5.024 5.024 0 0 1 5.028 5.029 5.024 5.024 0 0 1-5.028 5.029 5.024 5.024 0 0 1-5.029-5.029v-5.028h5.029zm0-2.514a5.024 5.024 0 0 1-5.029-5.029 5.024 5.024 0 0 1 5.029-5.028h12.61a5.024 5.024 0 0 1 5.028 5.029 5.024 5.024 0 0 1-5.029 5.028h-12.61z"/></g><defs><clipPath id="a"><path fill="#fff" d="M11 11h48v48H11z"/></clipPath></defs></svg>