<?xml version="1.0" encoding="UTF-8" standalone="no"?>
<!DOCTYPE svg PUBLIC "-//W3C//DTD SVG 1.1//EN" "http://www.w3.org/Graphics/SVG/1.1/DTD/svg11.dtd">
<svg width="100%" height="100%" viewBox="0 0 70 70" version="1.1" xmlns="http://www.w3.org/2000/svg" xmlns:xlink="http://www.w3.org/1999/xlink" xml:space="preserve" xmlns:serif="http://www.serif.com/" style="fill-rule:evenodd;clip-rule:evenodd;stroke-linejoin:round;stroke-miterlimit:2;">
    <g transform="matrix(0.7,0,0,0.7,0,1.42109e-14)">
        <rect x="0" y="0" width="100" height="100" style="fill:rgb(1,122,203);fill-rule:nonzero;"/>
    </g>
    <g transform="matrix(0.7,0,0,0.7,0,1.42109e-14)">
        <path d="M48.016,37.031L52.813,37.031L52.813,45.313L39.843,45.313L39.843,82.156L39.5,82.25C39.031,82.375 32.86,82.375 31.531,82.234L30.469,82.141L30.469,45.312L17.5,45.312L17.5,37.032L21.61,36.984C23.86,36.954 29.64,36.954 34.453,36.984C39.266,37.016 45.359,37.031 48.016,37.031M84.626,78.25C82.719,80.266 80.672,81.39 77.266,82.313C75.781,82.719 75.531,82.734 72.188,82.719C68.844,82.703 68.578,82.703 66.953,82.281C62.75,81.203 59.359,79.094 57.047,76.109C56.391,75.266 55.313,73.516 55.313,73.297C55.313,73.234 55.469,73.094 55.672,73C55.875,72.906 56.297,72.64 56.641,72.438C56.984,72.234 57.609,71.859 58.031,71.641C58.453,71.421 59.671,70.703 60.734,70.062C61.797,69.422 62.766,68.906 62.875,68.906C62.985,68.906 63.188,69.125 63.344,69.391C64.281,70.969 66.469,72.984 68.016,73.671C68.969,74.078 71.078,74.531 72.094,74.531C73.031,74.531 74.75,74.125 75.672,73.703C76.656,73.25 77.156,72.797 77.75,71.891C78.156,71.25 78.203,71.078 78.188,69.859C78.188,68.734 78.125,68.422 77.813,67.906C76.938,66.469 75.75,65.719 70.938,63.594C65.968,61.391 63.734,60.078 61.922,58.312C60.578,57 60.312,56.642 59.469,55C58.375,52.89 58.234,52.203 58.219,49.063C58.203,46.859 58.25,46.141 58.484,45.391C58.813,44.266 59.875,42.094 60.359,41.547C61.359,40.375 61.719,40.016 62.422,39.437C64.547,37.687 67.86,36.531 71.032,36.422C71.391,36.422 72.578,36.484 73.688,36.562C76.875,36.828 79.047,37.609 81.141,39.282C82.719,40.532 85.109,43.469 84.875,43.859C84.719,44.094 78.485,48.25 78.078,48.375C77.828,48.453 77.656,48.359 77.313,47.953C75.188,45.406 74.328,44.859 72.266,44.734C70.797,44.641 70.016,44.812 69.031,45.469C68.001,46.156 67.501,47.203 67.501,48.656C67.516,50.781 68.328,51.781 71.328,53.266C73.266,54.219 74.922,55 75.047,55C75.235,55 79.25,57 80.297,57.625C85.172,60.485 87.157,63.422 87.672,68.485C88.047,72.297 86.969,75.781 84.625,78.25" style="fill:white;fill-rule:nonzero;"/>
    </g>
</svg>
