<?xml version="1.0" encoding="UTF-8" standalone="no"?>
<!DOCTYPE svg PUBLIC "-//W3C//DTD SVG 1.1//EN" "http://www.w3.org/Graphics/SVG/1.1/DTD/svg11.dtd">
<svg width="100%" height="100%" viewBox="0 0 70 70" version="1.1" xmlns="http://www.w3.org/2000/svg" xmlns:xlink="http://www.w3.org/1999/xlink" xml:space="preserve" xmlns:serif="http://www.serif.com/" style="fill-rule:evenodd;clip-rule:evenodd;stroke-linejoin:round;stroke-miterlimit:2;">
    <g transform="matrix(0.7,0,0,0.7,0,-0.0875)">
        <path d="M61.5,7L100,7L50,93.25L0,7L38.25,7L50,27L61.5,7Z" style="fill:rgb(65,184,131);fill-rule:nonzero;"/>
    </g>
    <g transform="matrix(0.7,0,0,0.7,0,-0.0875)">
        <path d="M0,7L50,93.25L100,7L80,7L50,58.75L19.75,7L0,7Z" style="fill:rgb(65,184,131);fill-rule:nonzero;"/>
    </g>
    <g transform="matrix(0.7,0,0,0.7,0,-0.0875)">
        <path d="M19.75,7L50,59L80,7L61.5,7L50,27L38.25,7L19.75,7Z" style="fill:rgb(53,73,94);fill-rule:nonzero;"/>
    </g>
</svg>
