<svg xmlns="http://www.w3.org/2000/svg" width="70" height="70" fill="none"><circle cx="35" cy="35" r="35" fill="#F74C1D"/><g clip-path="url(#a)"><path fill="#fff" d="M38.5 35.005a8.4 8.4 0 0 1-.538 2.957 8.369 8.369 0 0 1-2.957.538h-.01a8.395 8.395 0 0 1-2.957-.538 8.378 8.378 0 0 1-.538-2.957v-.01c0-1.043.191-2.037.538-2.957a8.372 8.372 0 0 1 2.956-.538h.01c1.043 0 2.04.191 2.958.539.347.92.538 1.914.538 2.957v.009zm10.307-2.338h-8.172l5.773-5.778a14.06 14.06 0 0 0-3.296-3.3l-5.78 5.774v-8.17A14.76 14.76 0 0 0 35.005 21h-.012a14.7 14.7 0 0 0-2.328.192v8.173l-5.774-5.774a13.996 13.996 0 0 0-3.302 3.298l5.774 5.778h-8.17S21 34.202 21 34.994v.01c0 .794.071 1.573.192 2.328h8.173l-5.774 5.777a13.98 13.98 0 0 0 3.298 3.302l5.778-5.775v8.171c.767.127 1.544.191 2.322.193h.02c.792 0 1.568-.07 2.323-.193v-8.17l5.777 5.774a11.94 11.94 0 0 0 1.784-1.505h.006a12.907 12.907 0 0 0 1.512-1.786l-5.775-5.774h8.171c.123-.752.193-1.521.193-2.31V35c0-.791-.07-1.567-.193-2.322"/></g><defs><clipPath id="a"><path fill="#fff" d="M21 21h28v28H21z"/></clipPath></defs></svg>