<svg xmlns="http://www.w3.org/2000/svg" width="52" height="51" fill="none"><rect width="49.297" height="49.297" x="1.362" y=".566" fill="#191036" rx="24.648"/><rect width="49.297" height="49.297" x="1.362" y=".566" stroke="url(#a)" stroke-width="1.049" rx="24.648"/><circle cx="26.01" cy="25.214" r="14.684" fill="#00A82D"/><path fill="#fff" d="M22.549 20.017c0 .187-.015.5-.199.704-.198.188-.503.203-.686.203-1.03 0-2.46-.259-3.434.141 1.487-2.668 4.368-4.442 4.35-4.289-.138 1.056-.031 2.178-.031 3.24zm3.083 12.115c0-1.3 1.038-2.364 2.32-2.364.381 0 .686.313.686.705a.695.695 0 0 1-.35.61c-.233.144-.556.077-.764.266a.734.734 0 0 0-.274.548c0 .235.091.454.244.61.275.282.64.44 1.038.44 1.038 0 1.877-.862 1.877-1.926 0-.955-.626-1.8-1.45-2.176-1.25-.642-3.165-.276-3.312-2.285-.23 1.062-.735 2.958-2.106 2.958-4.14.252-5.633-3.102-5.922-6.653 0-.767.458-1.283 1.038-1.361h3.113c.535 0 .84-.141 1.038-.33.26-.25.32-.61.32-1.032v-3.303c0-.665.58-1.065 1.329-1.065.44 0 .854.016 1.282.126.93.234 1.13 1.205 1.13 1.205l2.64.47c.839.156 2.914.297 3.311 2.442.931 5.102.367 10.049.32 10.049-.655 4.821-4.563 4.586-4.563 4.586-1.42 0-2.945-.969-2.945-2.52zm4.578-8.312c-.503-.047-.93.157-1.083.548-.216.555 2.015 1.016 2.015.25-.061-.438-.428-.735-.931-.798z"/><defs><linearGradient id="a" x1="6.012" x2="21.228" y1=".042" y2="7.649" gradientUnits="userSpaceOnUse"><stop stop-color="#fff"/><stop offset="1"/></linearGradient></defs></svg>