<svg xmlns="http://www.w3.org/2000/svg" width="51" height="51" fill="none"><rect width="49.297" height="49.297" x=".524" y=".649" fill="#191036" rx="24.648"/><rect width="49.297" height="49.297" x=".524" y=".649" stroke="url(#a)" stroke-width="1.049" rx="24.648"/><path fill="#333" d="M25.172 10.613c-8.099 0-14.684 6.585-14.684 14.684 0 8.1 6.585 14.684 14.684 14.684 8.1 0 14.685-6.585 14.685-14.684 0-8.1-6.585-14.684-14.684-14.684z"/><path fill="#fff" fill-rule="evenodd" d="m30.217 27.434-.13-.182c-.35-.49-.686-.956-.686-1.892v-3.487l.002-.361c.008-1.337.015-2.557-.95-3.49-.827-.825-2.2-1.116-3.25-1.116-2.055 0-4.347.795-4.828 3.428-.05.28.145.426.323.467l2.092.235c.196-.01.337-.21.375-.411.18-.908.912-1.343 1.736-1.343.444 0 .948.168 1.21.58.272.413.267.963.264 1.454l-.001.17v.292c-.194.022-.398.043-.607.065-1.141.12-2.463.259-3.453.709-1.352.607-2.301 1.842-2.301 3.658 0 2.326 1.412 3.49 3.23 3.49 1.535 0 2.375-.376 3.56-1.627l.161.247c.283.436.467.72 1.076 1.245.16.089.373.085.515-.048a95.322 95.322 0 0 1 1.655-1.487c.176-.15.145-.393.007-.596zM25.97 26.43c-.343.631-.889 1.018-1.495 1.018-.827 0-1.313-.655-1.313-1.624 0-1.907 1.65-2.253 3.211-2.253a36 36 0 0 0 .002.344c.008.863.016 1.744-.405 2.515z" clip-rule="evenodd"/><path fill="#fff" d="M32.797 31.24c-2.066 1.598-5.063 2.448-7.644 2.448-3.616 0-6.873-1.4-9.337-3.733-.193-.183-.02-.433.211-.291 2.66 1.622 5.948 2.598 9.344 2.598 2.291 0 4.81-.498 7.126-1.529.35-.154.643.242.3.507z"/><path fill="#fff" d="M31.244 30.127c.666-.084 2.15-.27 2.413.083.265.354-.29 1.81-.54 2.466l-.003.005c-.075.198.087.277.258.127 1.108-.972 1.395-3.008 1.168-3.303-.226-.292-2.164-.544-3.347.327-.182.135-.151.32.051.295z"/><defs><linearGradient id="a" x1="5.174" x2="20.39" y1=".124" y2="7.732" gradientUnits="userSpaceOnUse"><stop stop-color="#fff"/><stop offset="1"/></linearGradient></defs></svg>