<svg xmlns="http://www.w3.org/2000/svg" width="52" height="51" fill="none"><rect width="49.297" height="49.297" x="1.513" y=".964" fill="#191036" rx="24.648"/><rect width="49.297" height="49.297" x="1.513" y=".964" stroke="url(#a)" stroke-width="1.049" rx="24.648"/><path fill="#FF4A00" d="M29.26 28.72a8.87 8.87 0 0 1-6.217 0 8.858 8.858 0 0 1-.002-6.213 8.864 8.864 0 0 1 6.22 0c.75 1.99.75 4.222 0 6.212zm11.38-5.555h-8.576l6.064-6.06a14.778 14.778 0 0 0-3.463-3.462L28.6 19.704v-8.571a14.804 14.804 0 0 0-4.898 0v8.571l-6.065-6.06a14.794 14.794 0 0 0-3.463 3.46l6.065 6.061h-8.577c-.212 1.666-.28 3.232 0 4.895h8.577l-6.065 6.061a14.796 14.796 0 0 0 3.463 3.462l6.065-6.062v8.572a14.84 14.84 0 0 0 4.897 0V31.52l6.066 6.062a14.797 14.797 0 0 0 3.463-3.462l-6.065-6.061h8.578a14.771 14.771 0 0 0 0-4.895z"/><defs><linearGradient id="a" x1="6.163" x2="21.378" y1=".44" y2="8.048" gradientUnits="userSpaceOnUse"><stop stop-color="#fff"/><stop offset="1"/></linearGradient></defs></svg>