<svg xmlns="http://www.w3.org/2000/svg" width="51" height="51" fill="none"><rect width="49.297" height="49.297" x=".844" y="1.021" fill="#191036" rx="24.648"/><rect width="49.297" height="49.297" x=".844" y="1.021" stroke="url(#a)" stroke-width="1.049" rx="24.648"/><path fill="#fff" d="M10.808 21.427c0-3.655 0-5.482.71-6.878a6.526 6.526 0 0 1 2.853-2.853c1.396-.71 3.224-.71 6.879-.71h8.484c3.655 0 5.483 0 6.879.71a6.526 6.526 0 0 1 2.852 2.853c.711 1.396.711 3.223.711 6.878v8.484c0 3.655 0 5.483-.711 6.88a6.526 6.526 0 0 1-2.852 2.851c-1.396.711-3.224.711-6.88.711H21.25c-3.655 0-5.483 0-6.879-.71a6.526 6.526 0 0 1-2.852-2.853c-.711-1.396-.711-3.224-.711-6.879v-8.484z"/><path fill="#1967D2" d="M34.4 15.18h-3.41v4.942h4.99v-3.548c.002 0-.246-1.259-1.58-1.393zm-3.409 20.955v.022l4.99-4.94h-.044l-4.946 4.918z"/><path fill="#FBBC05" d="M35.98 31.216v-.044l-.043.044h.044zm.001-11.094h-4.99v11.05h4.99v-11.05z"/><path fill="#EA4335" d="M35.937 31.216H30.99v4.919l4.946-4.919z"/><path fill="#EA4335" d="M30.991 31.216h4.946l.044-.044h-4.99v.044z"/><path fill="#34A853" d="M30.979 36.147h.011v-.012l-.011.012z"/><path fill="#34A853" d="M19.882 31.172v4.975H30.98l.012-4.975h-11.11z"/><path fill="#34A853" d="M30.99 31.217v-.045l-.011 4.975.012-.012v-4.918z"/><path fill="#188038" d="M15.004 31.172v3.46c.045 1.122 1.259 1.515 1.259 1.515h3.618v-4.975h-4.877z"/><path fill="#4285F4" d="M19.881 20.122h11.11v-4.941H16.404s-1.31.134-1.4 1.526v14.465h4.877v-11.05z"/><path fill="#4285F4" d="M23.516 28.936c-.254 0-.5-.034-.735-.1a2.193 2.193 0 0 1-.636-.298 2.324 2.324 0 0 1-.517-.514 2.357 2.357 0 0 1-.336-.714l1.116-.442c.08.3.212.53.4.686a1.1 1.1 0 0 0 .708.226c.127 0 .248-.018.363-.054a.972.972 0 0 0 .3-.172.806.806 0 0 0 .2-.253.718.718 0 0 0 .081-.343c0-.265-.1-.472-.3-.623-.193-.15-.462-.226-.807-.226h-.536v-1.074h.49c.121 0 .24-.015.354-.045a.91.91 0 0 0 .3-.135.673.673 0 0 0 .209-.244.737.737 0 0 0 .081-.352.627.627 0 0 0-.218-.497c-.145-.132-.341-.199-.59-.199-.266 0-.472.073-.617.217a1.12 1.12 0 0 0-.29.47l-1.09-.443c.055-.15.136-.304.245-.46.11-.163.245-.307.409-.434a2.08 2.08 0 0 1 .59-.316c.224-.084.481-.126.771-.126.297 0 .566.042.809.126.248.085.46.202.635.352a1.502 1.502 0 0 1 .554 1.174c0 .18-.025.343-.073.488-.042.144-.1.274-.172.388a1.356 1.356 0 0 1-.536.488v.072c.29.114.53.298.717.55.194.253.29.572.29.957 0 .271-.05.521-.154.75a1.74 1.74 0 0 1-.445.587 1.933 1.933 0 0 1-.68.388 2.6 2.6 0 0 1-.89.145zm4.337-.145v-4.785l-1.098.46-.436-1.002 1.825-.849h.899v6.176h-1.19z"/><defs><linearGradient id="a" x1="5.494" x2="20.709" y1=".496" y2="8.104" gradientUnits="userSpaceOnUse"><stop stop-color="#fff"/><stop offset="1"/></linearGradient></defs></svg>