<svg xmlns="http://www.w3.org/2000/svg" width="51" height="51" fill="none"><rect width="49.297" height="49.297" x="1.059" y=".686" fill="#191036" rx="24.648"/><rect width="49.297" height="49.297" x="1.059" y=".686" stroke="url(#a)" stroke-width="1.049" rx="24.648"/><path fill="#fff" fill-rule="evenodd" d="m14.92 39.198-3.607-4.494a6.034 6.034 0 0 1-1.34-3.779V14.652c0-2.05 1.64-3.75 3.756-3.895L30.46 9.614a5.453 5.453 0 0 1 3.422.915l5.879 3.975a3.766 3.766 0 0 1 1.679 3.115V36.12c0 2.006-1.613 3.667-3.684 3.795l-18.57 1.143c-1.653.102-3.25-.595-4.266-1.86z" clip-rule="evenodd"/><path fill="#0E0C12" d="M20.723 22.795v-.213c0-.54.433-.988.99-1.025l4.06-.271 5.616 8.269v-7.258l-1.445-.192v-.102c0-.546.442-.997 1.007-1.026l3.694-.19v.533a.52.52 0 0 1-.44.506l-.889.15V33.73l-1.116.384c-.932.32-1.97-.022-2.503-.828l-5.452-8.226v7.852l1.678.32-.023.156a1.05 1.05 0 0 1-1.004.88l-4.173.185c-.055-.524.338-.993.88-1.05l.549-.058v-10.47l-1.429-.08z"/><path fill="#0E0C12" fill-rule="evenodd" d="m30.61 11.664-16.73 1.143c-1.003.068-1.78.874-1.78 1.845v16.273c0 .912.315 1.799.893 2.52l3.608 4.494a2.913 2.913 0 0 0 2.45 1.068l18.57-1.143c.952-.059 1.693-.822 1.693-1.744v-18.5a1.73 1.73 0 0 0-.772-1.432l-5.878-3.974a3.272 3.272 0 0 0-2.053-.55zm-15.9 3.242c-.233-.173-.123-.532.17-.553l15.843-1.136a2.18 2.18 0 0 1 1.415.392l3.179 2.252c.12.086.064.27-.086.279l-16.778.912a2.178 2.178 0 0 1-1.413-.42l-2.33-1.726zm2.956 5.007c0-.545.44-.996 1.004-1.026l17.739-.966c.549-.03 1.01.392 1.01.923v16.02c0 .544-.438.994-1 1.026l-17.627 1.003c-.61.034-1.126-.435-1.126-1.026V19.913z" clip-rule="evenodd"/><defs><linearGradient id="a" x1="5.709" x2="20.924" y1=".162" y2="7.77" gradientUnits="userSpaceOnUse"><stop stop-color="#fff"/><stop offset="1"/></linearGradient></defs></svg>