<svg xmlns="http://www.w3.org/2000/svg" width="51" height="51" fill="none"><rect width="49.297" height="49.297" x="1.104" y=".532" fill="#191036" rx="24.648"/><rect width="49.297" height="49.297" x="1.104" y=".532" stroke="url(#a)" stroke-width="1.049" rx="24.648"/><path fill="#fff" d="M25.752 10.496c-8.113 0-14.685 6.571-14.685 14.684 0 6.498 4.204 11.986 10.04 13.932.735.128 1.01-.312 1.01-.698 0-.348-.018-1.505-.018-2.735-3.69.68-4.644-.899-4.938-1.725-.165-.422-.88-1.725-1.505-2.074-.514-.275-1.248-.954-.018-.973 1.156-.018 1.982 1.065 2.257 1.505 1.322 2.221 3.433 1.597 4.277 1.212.129-.955.514-1.597.936-1.964-3.267-.367-6.68-1.634-6.68-7.25 0-1.598.568-2.92 1.504-3.947-.147-.367-.66-1.872.147-3.891 0 0 1.23-.386 4.038 1.505a13.625 13.625 0 0 1 3.671-.496c1.248 0 2.497.165 3.671.496 2.809-1.91 4.039-1.505 4.039-1.505.807 2.019.293 3.524.146 3.891.937 1.028 1.506 2.331 1.506 3.946 0 5.635-3.433 6.884-6.7 7.25.532.46.991 1.34.991 2.717 0 1.964-.018 3.543-.018 4.038 0 .386.275.845 1.01.698A14.708 14.708 0 0 0 40.435 25.18c0-8.113-6.571-14.684-14.684-14.684z"/><defs><linearGradient id="a" x1="5.754" x2="20.969" y1=".008" y2="7.615" gradientUnits="userSpaceOnUse"><stop stop-color="#fff"/><stop offset="1"/></linearGradient></defs></svg>