<svg xmlns="http://www.w3.org/2000/svg" width="52" height="51" fill="none"><rect width="49.297" height="49.297" x="1.362" y=".532" fill="#191036" rx="24.648"/><rect width="49.297" height="49.297" x="1.362" y=".532" stroke="url(#a)" stroke-width="1.049" rx="24.648"/><path fill="#FDDD4C" d="M26.01 10.496c-8.099 0-14.684 6.585-14.684 14.684 0 8.1 6.585 14.684 14.684 14.684 8.1 0 14.685-6.584 14.685-14.684 0-8.099-6.585-14.684-14.685-14.684z"/><path fill="#0E0C12" d="M19.58 29.009c-.322-.486.486-1.222.158-1.84-.19-.356-.5-.578-.871-.625a1.127 1.127 0 0 0-.959.342c-.37.402-.427.95-.355 1.144.026.07.067.09.096.094.202.027.315-.49.385-.598a.692.692 0 0 1 .93-.191c.572.37.076.967.119 1.472.042.491.348.689.623.71.267.01.454-.139.501-.247.114-.26-.363.139-.628-.261zm11.945-4.462a1.91 1.91 0 0 0-.484 0c-.13-.164-.246-.428-.311-.737-.117-.549-.105-.947.22-.998.325-.052.482.28.599.83.078.369.063.708-.024.905zm-3.559.326c.013.125.017.25.014.366.314.019.537.168.596.263.03.049.018.08.008.096-.032.05-.102.042-.248.026a2.573 2.573 0 0 0-.408-.02c-.078.238-.308.26-.47.084-.113.035-.335.176-.401.022 0-.076.08-.188.224-.286a2.133 2.133 0 0 1-.204-.6c-.206.037-.39.095-.535.14-.068.021-.337.143-.369.006-.021-.095.126-.25.282-.363a1.68 1.68 0 0 1 .567-.262c-.004-.298.072-.506.288-.54.268-.043.435.163.55.546.324.09.648.314.791.545.056.09.066.158.03.195-.09.093-.588-.177-.715-.218zm2.132 1.339c.206.1.432.06.506-.087.074-.148-.033-.35-.239-.449-.205-.1-.432-.06-.505.088-.074.148.033.349.238.448zm1.013-.735c.004-.227.143-.408.31-.405.166.003.299.189.295.415-.004.226-.143.407-.31.404-.166-.003-.299-.188-.295-.414z"/><path fill="#0E0C12" fill-rule="evenodd" d="M35.637 28.252c-.001-.005.004.011 0 0 .335 0 .862.38.862 1.299 0 .914-.384 1.95-.475 2.18-1.384 3.274-4.689 5.097-8.624 4.982-3.67-.108-6.799-2.019-8.168-5.134-.828 0-1.682-.359-2.33-.927-.685-.598-1.106-1.372-1.189-2.179a3.685 3.685 0 0 1 .214-1.723l-.769-.643c-3.52-2.934 7.488-15.011 11.009-11.98.018.015 1.198 1.158 1.2 1.16 1.698-.71 6.246-2.065 6.251 1.088.002 1.047-.674 2.268-1.757 3.376 1.252 1.146.922 2.774 1.121 4.268l.435.119c.829.23 1.419.535 1.707.834.288.299.431.588.483.927.049.274.043.757-.323 1.298.132.348.252.696.353 1.055zM19.17 30.729c.123.003.245-.005.364-.025 1.287-.217 1.623-1.596 1.412-2.95-.24-1.529-1.288-2.068-1.999-2.106a2.196 2.196 0 0 0-.533.037c-1.269.253-1.986 1.319-1.845 2.703.128 1.253 1.412 2.31 2.6 2.341zm-2.875-4.668c.426-.61 1.122-1.052 1.912-1.204 1.006-2.665 2.685-5.12 4.908-6.81a25.07 25.07 0 0 1 3.428-2.332s-.958-1.097-1.247-1.177c-1.78-.475-5.624 2.142-8.079 5.6-.993 1.398-2.414 3.876-1.735 5.15.084.158.559.563.813.773zm14.43 4.056a.07.07 0 0 1-.04.069s-1.43.657-3.702-.037c.081.68.907.939 1.484 1.032 2.815.478 5.447-1.11 6.04-1.51.101-.07-.002.107-.02.133-.725.924-2.675 1.993-5.211 1.993-1.107-.001-2.212-.385-2.618-.977-.63-.917-.032-2.255 1.018-2.116 1.774.198 3.593.05 5.236-.703 1.432-.657 1.973-1.378 1.891-1.963-.126-.906-1.47-1.048-2.149-1.268-.295-.097-.44-.174-.474-.723-.015-.24-.057-1.075-.072-1.42-.027-.606-.101-1.433-.621-1.775a.879.879 0 0 0-.445-.14.81.81 0 0 0-.241.02l-.022.006c-.281.047-.453.189-.656.356l-.035.03c-.649.533-1.196.62-1.806.594-.19-.008-.385-.027-.591-.047a15.48 15.48 0 0 0-.6-.05l-.259-.014c-1.02-.052-2.114.817-2.296 2.052-.203 1.379.567 2.223 1.069 2.772.123.136.23.253.303.357.046.062.1.15.1.233 0 .1-.066.179-.13.246-1.04 1.057-1.373 2.735-.98 4.134.048.174.11.341.184.501.92 2.123 3.775 3.111 6.563 2.212 1.954-.63 3.68-2.153 4.033-4.253.083-.547-.04-.759-.207-.86-.177-.108-.39-.07-.39-.07s-.096-.655-.37-1.25c-.813.634-1.86 1.079-2.656 1.304-1.277.362-2.656.503-3.975.332-.535-.069-.894-.115-1.048.379 1.76.636 3.621.363 3.621.363a.065.065 0 0 1 .072.058zM25.65 17.776c-.962.486-2.036 1.351-2.909 2.347-.03.035.015.084.053.057.754-.541 1.787-1.044 3.14-1.37 1.517-.365 2.977-.212 3.868-.01.045.01.073-.066.033-.088-.589-.327-1.493-.548-2.134-.553a.039.039 0 0 1-.03-.061c.11-.147.262-.293.4-.398.032-.024.013-.073-.026-.071-.798.048-2.62.88-2.614.849.046-.222.194-.514.27-.65.018-.033-.017-.069-.05-.052z" clip-rule="evenodd"/><defs><linearGradient id="a" x1="6.012" x2="21.228" y1=".008" y2="7.615" gradientUnits="userSpaceOnUse"><stop stop-color="#fff"/><stop offset="1"/></linearGradient></defs></svg>