<svg xmlns="http://www.w3.org/2000/svg" width="210" height="39" fill="none">
   <path fill="#fff"
      d="M15.008 33.067c-4.028 4.037-10.849 4.02-12.754-1.359a23.295 23.295 0 0 1 .43-16.68A23.248 23.248 0 0 1 11.232 4.59a23.174 23.174 0 0 1 25.788 0 23.248 23.248 0 0 1 8.548 10.438 23.305 23.305 0 0 1 .43 16.68c-1.904 5.38-8.726 5.396-12.753 1.36l-6.218-6.231c-.594-.596-.532-1.577-.368-2.403a2.593 2.593 0 0 0-1.098-2.656 2.579 2.579 0 0 0-3.82 1.161 2.592 2.592 0 0 0-.147 1.495c.164.826.225 1.807-.369 2.403l-6.217 6.23zm51.21-5.584h6.239v3.684H61.456V11.574h4.762v15.909zm14.748 3.907c-1.522 0-2.896-.325-4.122-.976a7.263 7.263 0 0 1-2.868-2.791c-.687-1.21-1.03-2.624-1.03-4.243 0-1.6.352-3.005 1.058-4.214a7.164 7.164 0 0 1 2.896-2.82c1.225-.65 2.6-.976 4.122-.976 1.522 0 2.896.325 4.122.977a7.163 7.163 0 0 1 2.896 2.819c.706 1.21 1.059 2.614 1.059 4.214 0 1.6-.362 3.015-1.087 4.243a7.168 7.168 0 0 1-2.924 2.79c-1.225.652-2.6.977-4.122.977zm0-4.13c.91 0 1.68-.335 2.312-1.005.65-.67.975-1.628.975-2.875 0-1.246-.316-2.205-.947-2.875-.613-.67-1.374-1.004-2.284-1.004-.928 0-1.699.334-2.312 1.004-.612.652-.919 1.61-.919 2.875 0 1.247.297 2.205.892 2.875.612.67 1.373 1.005 2.283 1.005zm15.727-11.89c1.095 0 2.052.223 2.869.67.835.446 1.476 1.032 1.921 1.758v-2.205h4.763V31.14c0 1.433-.288 2.726-.864 3.88-.557 1.172-1.42 2.102-2.59 2.79-1.151.69-2.59 1.034-4.317 1.034-2.302 0-4.168-.55-5.597-1.647-1.43-1.08-2.247-2.55-2.451-4.41h4.706c.149.595.502 1.06 1.059 1.396.557.353 1.244.53 2.06.53.985 0 1.764-.289 2.34-.865.594-.559.891-1.461.891-2.708v-2.205c-.464.726-1.104 1.322-1.921 1.787-.817.446-1.774.67-2.869.67-1.281 0-2.442-.326-3.481-.977-1.04-.67-1.866-1.61-2.479-2.82-.594-1.227-.891-2.642-.891-4.242s.297-3.005.891-4.214c.613-1.21 1.439-2.14 2.479-2.791 1.04-.652 2.2-.977 3.481-.977zm4.79 8.01c0-1.19-.334-2.13-1.002-2.819a3.166 3.166 0 0 0-2.395-1.032c-.947 0-1.755.344-2.424 1.032-.65.67-.974 1.6-.974 2.791 0 1.191.325 2.14.974 2.847.669.689 1.477 1.033 2.424 1.033.946 0 1.745-.344 2.395-1.033.668-.688 1.002-1.628 1.002-2.819zm14.448 8.01c-1.523 0-2.897-.325-4.122-.976a7.265 7.265 0 0 1-2.869-2.791c-.687-1.21-1.03-2.624-1.03-4.243 0-1.6.352-3.005 1.058-4.214a7.168 7.168 0 0 1 2.896-2.82c1.226-.65 2.6-.976 4.122-.976 1.523 0 2.897.325 4.122.977a7.164 7.164 0 0 1 2.897 2.819c.705 1.21 1.058 2.614 1.058 4.214 0 1.6-.362 3.015-1.086 4.243a7.167 7.167 0 0 1-2.925 2.79c-1.225.652-2.599.977-4.121.977zm0-4.13c.909 0 1.68-.335 2.311-1.005.65-.67.975-1.628.975-2.875 0-1.246-.316-2.205-.947-2.875-.613-.67-1.374-1.004-2.284-1.004-.928 0-1.699.334-2.311 1.004-.613.652-.919 1.61-.919 2.875 0 1.247.297 2.205.891 2.875a2.97 2.97 0 0 0 2.284 1.005zm12.217-13.285c-.835 0-1.522-.242-2.061-.726a2.466 2.466 0 0 1-.779-1.842c0-.745.26-1.359.779-1.842.539-.503 1.226-.754 2.061-.754.817 0 1.486.251 2.006.754.538.483.807 1.097.807 1.842 0 .725-.269 1.34-.807 1.842-.52.484-1.189.726-2.006.726zm2.368 1.618v15.574h-4.763V15.593h4.763zm7.377 2.205c.464-.726 1.105-1.312 1.922-1.758.818-.447 1.774-.67 2.869-.67 1.282 0 2.442.325 3.481.977 1.04.651 1.858 1.581 2.451 2.79.612 1.21.92 2.615.92 4.215 0 1.6-.308 3.015-.92 4.243-.593 1.21-1.411 2.149-2.451 2.819-1.039.65-2.199.976-3.481.976-1.077 0-2.032-.223-2.869-.67-.817-.446-1.458-1.023-1.922-1.73v9.601h-4.762V15.593h4.762v2.205zm6.797 5.554c0-1.19-.335-2.12-1.004-2.79-.65-.69-1.456-1.033-2.422-1.033-.947 0-1.755.344-2.424 1.032-.648.689-.974 1.628-.974 2.82 0 1.19.326 2.13.974 2.818.669.689 1.477 1.033 2.424 1.033.947 0 1.755-.344 2.422-1.033.669-.707 1.004-1.656 1.004-2.847zm12.831 8.038c-1.355 0-2.562-.232-3.621-.697-1.058-.465-1.894-1.098-2.506-1.898a5.103 5.103 0 0 1-1.031-2.735h4.707c.056.54.307.976.752 1.311.446.335.994.503 1.644.503.593 0 1.048-.112 1.363-.335.335-.242.502-.55.502-.921 0-.447-.232-.772-.696-.977-.464-.223-1.216-.465-2.256-.726-1.114-.26-2.042-.53-2.785-.81a5 5 0 0 1-1.921-1.367c-.54-.632-.808-1.479-.808-2.54 0-.893.241-1.702.724-2.428.501-.744 1.225-1.33 2.172-1.758.966-.428 2.108-.642 3.426-.642 1.949 0 3.481.484 4.595 1.451 1.133.968 1.783 2.252 1.95 3.852h-4.401c-.074-.54-.315-.968-.724-1.284-.39-.316-.909-.474-1.559-.474-.557 0-.985.111-1.282.334a.992.992 0 0 0-.445.866c0 .446.232.781.696 1.005.483.223 1.225.446 2.228.67 1.151.297 2.088.595 2.813.892.724.28 1.355.745 1.893 1.396.557.633.846 1.489.865 2.568 0 .912-.26 1.73-.781 2.456-.5.707-1.234 1.265-2.2 1.674-.947.41-2.051.614-3.314.614zm23.718-15.797v15.574h-4.762v-2.12c-.483.688-1.143 1.246-1.978 1.674-.817.41-1.726.614-2.73.614-1.188 0-2.237-.26-3.146-.782-.911-.54-1.616-1.312-2.116-2.316-.502-1.005-.753-2.186-.753-3.545v-9.099h4.734v8.457c0 1.042.27 1.851.808 2.428s1.262.866 2.173.866c.928 0 1.662-.289 2.2-.866.538-.577.808-1.386.808-2.428v-8.457h4.762zm22.415-.167c1.93 0 3.463.586 4.595 1.758 1.151 1.172 1.727 2.8 1.727 4.884v9.1h-4.734V22.71c0-1.005-.27-1.778-.808-2.317-.521-.558-1.244-.837-2.173-.837-.928 0-1.662.279-2.2.837-.519.54-.779 1.312-.779 2.317v8.456h-4.736V22.71c0-1.004-.268-1.777-.807-2.316-.52-.558-1.244-.837-2.172-.837-.928 0-1.662.279-2.2.837-.521.54-.78 1.312-.78 2.317v8.456h-4.762V15.593h4.762v1.954a4.98 4.98 0 0 1 1.894-1.535c.779-.39 1.662-.586 2.645-.586 1.171 0 2.21.25 3.119.753a5.378 5.378 0 0 1 2.173 2.15c.538-.857 1.272-1.554 2.2-2.094a5.936 5.936 0 0 1 3.036-.81z" />
</svg>