<?xml version="1.0" encoding="UTF-8" standalone="no"?>
<!DOCTYPE svg PUBLIC "-//W3C//DTD SVG 1.1//EN" "http://www.w3.org/Graphics/SVG/1.1/DTD/svg11.dtd">
<svg width="100%" height="100%" viewBox="0 0 210 39" version="1.1" xmlns="http://www.w3.org/2000/svg" xmlns:xlink="http://www.w3.org/1999/xlink" xml:space="preserve" xmlns:serif="http://www.serif.com/" style="fill-rule:evenodd;clip-rule:evenodd;stroke-linejoin:round;stroke-miterlimit:2;">
    <path d="M135.026,30.893C135.026,31.2 134.812,31.466 134.517,31.751C134.017,32.235 133.275,32.684 132.337,33.117C127.343,35.419 117.277,36.955 105.691,36.955C94.104,36.955 84.038,35.419 79.045,33.117C78.106,32.684 77.364,32.235 76.864,31.751C76.57,31.467 76.356,31.201 76.355,30.894C76.355,30.587 76.57,30.32 76.864,30.035C77.364,29.552 78.106,29.102 79.045,28.67C81.425,27.572 84.959,26.649 89.261,25.983C89.436,25.994 89.615,25.968 89.782,25.904C94.395,25.222 99.85,24.832 105.691,24.832C117.277,24.832 127.343,26.368 132.337,28.67C133.275,29.102 134.017,29.552 134.517,30.035C134.805,30.314 135.016,30.574 135.026,30.871C135.026,30.879 135.026,30.886 135.026,30.893Z" style="fill:white;"/>
    <path d="M120.253,12.674C122.345,12.158 124.943,10.767 128.095,8.305C131.084,11.93 134.445,14.761 139.007,14.979C136.882,18.612 135.668,22.788 135.22,27.416C134.698,27.064 134.085,26.723 133.383,26.399C129.717,24.709 123.424,23.378 115.801,22.741C116.901,21.228 117.609,19.219 117.818,17.448C118.02,15.742 118.95,14.178 120.253,12.674Z" style="fill:white;"/>
    <path d="M96.29,12.383C97.118,11.395 99.763,9.025 102.159,7.782C103.397,7.139 104.342,6.199 105.342,5.055C105.967,4.339 106.623,3.537 107.434,2.692C109.97,6.064 112.482,8.894 114.673,10.654C115.612,11.407 116.513,11.965 117.349,12.323C116.256,13.857 115.535,15.463 115.335,17.155C115.187,18.411 114.742,19.847 114.018,20.973C113.604,21.617 113.104,22.163 112.488,22.448C112.449,22.466 112.411,22.486 112.375,22.508C110.221,22.393 107.985,22.332 105.691,22.332C101.045,22.332 96.636,22.581 92.674,23.024C95.108,19.942 96.339,16.404 96.29,12.383Z" style="fill:white;"/>
    <path d="M88.792,23.542C84.242,24.255 80.506,25.243 77.998,26.399C77.187,26.773 76.493,27.171 75.923,27.582C75.089,22.588 73.503,17.924 71.068,13.634C75.906,13.974 79.948,12.019 83.2,7.794C85.605,11.162 88.911,13.292 93.776,13.286C93.6,17.267 91.889,20.666 88.792,23.542Z" style="fill:white;"/>
</svg>
