<svg xmlns="http://www.w3.org/2000/svg" width="201" height="48" fill="none"><path fill="#fff" d="M60.788 34.447h14.197v-4.276h-9.151V14.064h-5.046v20.383zm22.609-2.851c-2.024 0-3.078-1.767-3.078-4.418 0-2.652 1.054-4.448 3.078-4.448s3.108 1.796 3.108 4.448c0 2.65-1.084 4.418-3.108 4.418zm.029 3.307c4.704 0 7.783-3.335 7.783-7.725s-3.08-7.726-7.783-7.726c-4.675 0-7.811 3.335-7.811 7.726 0 4.39 3.136 7.725 7.81 7.725zm15.924 4.59c2.167 0 4.077-.485 5.36-1.625 1.169-1.055 1.938-2.651 1.938-4.846V19.85h-4.447v1.568h-.057c-.855-1.226-2.167-1.996-4.105-1.996-3.62 0-6.13 3.022-6.13 7.298 0 4.476 3.051 6.928 6.33 6.928 1.767 0 2.879-.713 3.734-1.682h.114v1.454c0 1.767-.827 2.794-2.794 2.794-1.54 0-2.309-.656-2.566-1.426h-4.504c.456 3.05 3.108 4.704 7.127 4.704zm-.028-9.294c-1.74 0-2.88-1.425-2.88-3.62 0-2.224 1.14-3.65 2.88-3.65 1.938 0 2.965 1.654 2.965 3.621 0 2.053-.941 3.65-2.965 3.65zm16.469 1.397c-2.024 0-3.078-1.767-3.078-4.418 0-2.652 1.054-4.448 3.078-4.448 2.025 0 3.107 1.796 3.107 4.448 0 2.65-1.082 4.418-3.107 4.418zm.029 3.307c4.703 0 7.782-3.335 7.782-7.725s-3.079-7.726-7.782-7.726c-4.675 0-7.811 3.335-7.811 7.726 0 4.39 3.136 7.725 7.811 7.725zm9.14-.456h4.647V19.851h-4.647v14.596zm0-16.62h4.647v-3.763h-4.647v3.763zm6.663 21.438h4.647v-6.329h.057c.912 1.226 2.252 1.967 4.134 1.967 3.82 0 6.357-3.022 6.357-7.754 0-4.39-2.366-7.726-6.243-7.726-1.996 0-3.421.884-4.419 2.196h-.086V19.85h-4.447v19.414zm7.64-7.954c-1.995 0-3.136-1.625-3.136-3.991s1.027-4.162 3.051-4.162c1.995 0 2.936 1.653 2.936 4.162 0 2.48-1.083 3.991-2.851 3.991zm15.12 3.592c3.82 0 6.642-1.653 6.642-4.846 0-3.735-3.022-4.39-5.588-4.818-1.853-.342-3.506-.485-3.506-1.511 0-.912.884-1.34 2.024-1.34 1.283 0 2.167.4 2.338 1.71h4.276c-.228-2.879-2.452-4.675-6.585-4.675-3.45 0-6.301 1.597-6.301 4.676 0 3.42 2.709 4.105 5.246 4.532 1.938.343 3.706.485 3.706 1.796 0 .941-.884 1.454-2.281 1.454-1.539 0-2.509-.712-2.68-2.166h-4.39c.143 3.221 2.822 5.188 7.099 5.188zm12.954-.028c2.025 0 3.307-.798 4.362-2.224h.086v1.796h4.447V19.851h-4.647v8.153c0 1.74-.969 2.937-2.566 2.937-1.482 0-2.195-.884-2.195-2.48v-8.61h-4.618v9.579c0 3.25 1.768 5.445 5.131 5.445zm10.917-.428h4.647v-8.182c0-1.739.855-2.965 2.309-2.965 1.397 0 2.052.913 2.052 2.48v8.667h4.647v-8.182c0-1.739.827-2.965 2.309-2.965 1.397 0 2.053.913 2.053 2.48v8.667h4.647v-9.493c0-3.279-1.654-5.53-4.961-5.53-1.881 0-3.449.798-4.589 2.565h-.057c-.742-1.568-2.196-2.566-4.106-2.566-2.109 0-3.506.998-4.418 2.509h-.086v-2.081h-4.447v14.596z"/><path fill="#fff" fill-rule="evenodd" d="M23.757 47.513c13.12 0 23.756-10.636 23.756-23.756C47.513 10.637 36.877 0 23.757 0 10.637 0 0 10.636 0 23.757c0 13.12 10.636 23.756 23.757 23.756zm3.666-29.158a5.186 5.186 0 1 0-7.333 0l3.667 3.667 3.666-3.667zm1.735 9.068a5.186 5.186 0 1 0 0-7.333l-3.667 3.667 3.667 3.666zm-1.735 9.069a5.186 5.186 0 0 0 0-7.334l-3.666-3.667-3.667 3.667a5.186 5.186 0 0 0 7.333 7.334zm-16.402-9.069a5.186 5.186 0 0 1 7.334-7.333l3.667 3.667-3.667 3.666a5.186 5.186 0 0 1-7.334 0z" clip-rule="evenodd"/></svg>