<svg xmlns="http://www.w3.org/2000/svg" width="168" height="45" fill="none"><path fill="#fff" d="M55.887 29.398v-18.94H52.77v18.94h3.117zm1.908-6.314c0 3.87 2.606 6.62 6.566 6.62s6.565-2.75 6.565-6.62-2.606-6.619-6.565-6.619c-3.96 0-6.566 2.75-6.566 6.62zm3.143 0c0-2.265 1.353-3.844 3.423-3.844 2.069 0 3.423 1.579 3.423 3.844 0 2.24-1.354 3.844-3.423 3.844-2.07 0-3.423-1.604-3.423-3.844zm11.036-.254c0 3.665 2.376 6.313 5.927 6.313 1.84 0 3.423-.739 4.215-1.96v2.138c0 2.062-1.303 3.437-3.474 3.437-1.942 0-3.27-.942-3.45-2.597h-3.141c.409 3.284 2.938 5.422 6.412 5.422 4.087 0 6.693-2.673 6.693-6.822V16.82h-2.76l-.178 1.706c-.766-1.324-2.35-2.113-4.215-2.113-3.602 0-6.029 2.724-6.029 6.415zm3.168-.077c0-2.088 1.328-3.615 3.295-3.615 2.146 0 3.577 1.553 3.577 3.615 0 2.087-1.43 3.691-3.577 3.691-1.941 0-3.295-1.578-3.295-3.691zm11.556.331c0 3.87 2.605 6.62 6.565 6.62 3.96 0 6.565-2.75 6.565-6.62s-2.605-6.619-6.565-6.619c-3.96 0-6.565 2.75-6.565 6.62zm3.142 0c0-2.265 1.354-3.844 3.423-3.844 2.07 0 3.423 1.579 3.423 3.844 0 2.24-1.354 3.844-3.423 3.844-2.07 0-3.423-1.604-3.423-3.844zm13.362-8.834a1.855 1.855 0 0 0 1.864-1.858c0-1.018-.843-1.833-1.864-1.833-1.048 0-1.84.815-1.84 1.833 0 1.044.792 1.858 1.84 1.858zm-1.559 15.148h3.117V16.822h-3.117v12.576zm5.847 5.829h3.04v-7.56c.792 1.298 2.504 2.061 4.394 2.061 3.73 0 5.953-2.85 5.902-6.771-.077-3.946-2.351-6.517-5.927-6.517-1.916 0-3.653.84-4.42 2.29l-.178-1.908h-2.811v18.405zm3.168-12.117c0-2.266 1.38-3.845 3.551-3.845 2.171 0 3.474 1.604 3.474 3.845 0 2.24-1.303 3.818-3.474 3.818-2.171 0-3.551-1.553-3.551-3.819zm10.958 2.52c.102 2.495 2.044 4.099 5.058 4.099 2.964 0 4.982-1.579 4.982-4.023 0-1.807-1.124-3.03-3.193-3.538l-2.223-.535c-.945-.255-1.584-.585-1.584-1.4 0-.866.69-1.477 1.814-1.477 1.175 0 1.941.662 1.941 1.757h2.836c-.102-2.495-1.967-4.073-4.7-4.073-2.708 0-4.726 1.578-4.726 3.971 0 1.63.945 2.979 3.372 3.615l2.197.56c.817.23 1.328.611 1.328 1.324 0 .993-.945 1.45-2.095 1.45-1.379 0-2.171-.636-2.171-1.73h-2.836zm16.505 4.099c1.712 0 3.347-.79 4.088-1.96l.204 1.629h2.912V16.822h-3.116v6.593c0 2.266-.869 3.539-2.912 3.539-1.584 0-2.683-.764-2.683-3.36v-6.772h-3.116v7.866c0 3.004 1.635 5.04 4.623 5.04zm13.071-.331v-7.23c0-2.037 1.201-3.004 2.683-3.004 1.481 0 2.452.942 2.452 2.724v7.51h3.04v-7.205c0-2.062 1.175-3.03 2.657-3.03 1.507 0 2.478.943 2.478 2.725v7.51h3.014v-8.223c0-2.902-1.609-4.735-4.675-4.735-1.916 0-3.423.916-4.036 2.393-.69-1.477-2.069-2.393-4.164-2.393-1.482 0-2.81.687-3.551 1.807l-.153-1.425h-2.861v12.576h3.116zm-7.472 11.238c.464 0 .867-.39.867-.852a.877.877 0 0 0-.867-.864.88.88 0 0 0-.88.864c0 .463.404.852.88.852zm1.764-3.141c0 1.863 1.149 3.117 2.823 3.117 1.441 0 2.541-.864 2.773-2.155h-1.1c-.207.718-.843 1.145-1.6 1.145-1.075 0-1.759-.828-1.759-2.119 0-1.315.72-2.118 1.783-2.118.733 0 1.369.39 1.564 1.156h1.1c-.196-1.303-1.222-2.18-2.651-2.18-1.735 0-2.933 1.28-2.933 3.154zm6.029-.012c0 1.79 1.222 3.13 3.055 3.13 1.832 0 3.054-1.34 3.054-3.13 0-1.79-1.222-3.129-3.054-3.129-1.833 0-3.055 1.34-3.055 3.129zm1.161 0c0-1.217.745-2.106 1.894-2.106 1.148 0 1.893.889 1.893 2.106 0 1.218-.745 2.106-1.893 2.106-1.149 0-1.894-.888-1.894-2.106zm7.077 2.995v-3.58c0-.937.586-1.546 1.441-1.546.819 0 1.332.524 1.332 1.461v3.665h1.124v-3.567c0-.95.574-1.559 1.442-1.559.806 0 1.319.524 1.319 1.461v3.665h1.112V36.57c0-1.376-.806-2.216-2.175-2.216-.928 0-1.649.45-1.942 1.181-.306-.73-.978-1.181-1.955-1.181-.746 0-1.405.34-1.735.925l-.086-.755h-1.026v5.954h1.149z"/><path fill="#fff" fill-rule="evenodd" d="m.976 23.238.002-.221.004-.222.007-.222.009-.222.011-.222.014-.222.016-.222.018-.222.02-.222.023-.221.025-.221.027-.222.03-.221.032-.221.034-.22.036-.221.039-.22.04-.22.044-.22.046-.219.048-.219.05-.218.052-.218.055-.218.057-.217.059-.217.061-.216.064-.216.066-.215.068-.215.07-.214.073-.213.075-.213.077-.213.079-.211.081-.21.084-.211.086-.21.088-.208.09-.208.093-.207.094-.206.097-.205.099-.205.1-.204.104-.202.105-.202.108-.201.11-.2.11-.199.114-.198.116-.196.118-.196.12-.195.122-.193.124-.193.126-.191.128-.19.13-.19.132-.187.134-.187.136-.185.138-.184.14-.183.142-.182.143-.18.146-.179.147-.177.15-.176.151-.175.153-.173.155-.172.157-.17.159-.17.16-.167.162-.166.164-.165.166-.163.168-.161.169-.16.17-.158.173-.157.175-.155.176-.153.177-.152.18-.15.18-.148.183-.147.184-.145.185-.143.187-.141.189-.14.19-.137.192-.136.193-.135.194-.132.196-.13.198-.13.198-.126.2-.125.202-.123.203-.12.204-.12.206-.117.207-.115.207-.113.21-.112.21-.109.212-.107.213-.105.214-.103.215-.101.216-.1.218-.096.218-.095.22-.093.22-.09.222-.089.223-.086.223-.085.225-.082.225-.08.227-.077.227-.076.228-.073.229-.071.23-.07.23-.066.231-.065.233-.062.232-.06.234-.058.234-.055.235-.054.235-.05.236-.05.237-.046.237-.044.238-.042.238-.04.24-.036.239-.035.24-.033.24-.03.24-.028.24-.026.242-.023.242-.02.242-.02.242-.015L24.459.62l.074 6.252h.403l.18.004.18.005.18.007.18.008.18.01.18.013.18.014.18.015.18.018.179.019.18.02.18.023.178.025.18.026.179.028.179.03.178.031.179.034.178.035.178.037.177.038.178.04.177.043.176.043.177.046.175.047.176.05.175.05.175.053.174.054.174.056.173.058.173.06.172.06.172.064.17.064.171.067.17.068.17.07.168.07.168.074.167.075.167.076.166.079.165.08.165.08.163.084.163.085.162.086.162.088.16.09.16.091.159.093.158.094.157.096.156.098.155.1.154.1.154.102.152.104.151.106.15.107.15.108.148.11.148.112.146.113.145.115.144.115.142.118.142.119.14.12.14.122.138.123.137.125.136.126.134.127.133.129.132.13.131.131.13.133.128.135.126.135.126.137.124.138.123.14.121.14.12.142.119.143.117.145.115.145.115.147.113.148.111.149.11.15.108.152.107.152.106.154.103.155.103.156.1.157.1.158.097.16.096.16.094.16.093.162.092.164.089.164.088.165.086.166.085.167.082.168.082.168.08.17.077.17.076.172.074.172.073.173.07.174.07.174.067.175.066.176.063.177.062.178.06.178.059.178.056.18.055.18.053.18.051.182.05.182.047.183.045.183.044.183.042.184.04.185.038.185.036.185.034.186.032.187.03.186.03.188.026.187.025.188.023.188.02.189.02.189.016.189.015.19.014.189.01.19.01.19.007.19.005.19.004.19.001.191v.19l-.003.192-.005.19-.006.191-.008.191-.01.191-.013.191-.014.191-.017.19-.018.192-.02.19-.023.19-.024.191-.026.19-.028.19-.03.19-.032.19-.035.19-.035.19-.038.188-.04.189-.042.188-.044.189-.046.187-.048.188-.05.187-.051.186-.054.186-.055.186-.058.185-.06.185-.06.185-.064.183-.066.184-.067.182-.069.182-.07.182-.074.181-.074.18-.077.18-.078.179-.08.178-.083.178-.084.177-.086.176-.088.175-.09.175-.092.174-.093.173-.095.172-.097.171-.099.17-.1.17-.103.169-.104.168-.106.166-.108.166-.11.165-.11.164-.114.162-.114.162-.117.16-.118.16-.12.16-.121.157-.123.156-.125.155-.127.154-.128.153-.13.152-.131.15-.133.15-.135.148-.136.147-.138.145-.14.145-.14.143-.143.141-.144.14-.145.14-.147.137-.148.137-.15.135-.152.133-.152.132-.155.13-.155.13-.157.127-.159.127-.16.124-.16.124-.163.121-.164.12-.165.12-.166.116-.168.116-.17.114-.17.112-.17.11-.173.11-.174.107-.175.106-.176.104-.178.102-.178.101-.18.099-.18.097-.182.096-.183.094-.184.092-.185.09-.186.089-.187.087-.188.085-.189.083-.19.081-.19.08-.192.078-.192.076-.194.074-.194.072-.195.07-.196.069-.197.066-.197.065-.198.063-.2.06-.199.06-.2.057-.201.055-.202.053-.202.051-.203.05-.203.047-.204.045-.205.044-.205.04-.206.04-.206.038-.206.035-.208.033-.207.032-.208.03-.209.026-.208.026-.21.023-.209.021-.21.02-.21.017-.21.015-.21.013-.21.011-.212.01-.21.006-.212.005-.211.003h-.212l-.212-.001-.211-.003-.212-.006-.212-.008-.212-.01-.212-.01-.211-.015-.212-.015-.212-.018-.211-.02-.212-.022-.211-.025-.211-.026-.211-.028-.21-.03-.212-.033-.21-.034-.21-.037-.21-.039-.209-.04-.21-.043-.208-.045-.208-.047-.208-.049-.208-.051-.207-.053-.207-.055-.206-.057-.205-.06-.206-.06-.204-.064-.204-.065-.204-.068-.203-.07-.202-.07-.202-.074-.2-.075-.2-.078-.2-.079-.2-.081-.197-.084-.197-.085-.197-.087-.196-.09-.194-.09-.194-.093-.193-.096-.193-.097-.19-.098-.191-.101-.19-.103-.188-.104-.187-.107-.187-.108-.185-.11-.184-.113-.184-.113-.182-.116-.18-.118-.18-.12-.18-.12-.177-.123-.176-.125-.175-.127-.174-.128-.173-.13-.171-.132-.17-.134-.17-.135-.167-.137-.166-.139-.165-.14-.163-.142-.162-.144-.16-.145-.16-.147-.158-.148-.156-.15-.155-.153-.153-.153-.152-.155-.15-.156-.149-.158-.147-.16-.146-.16-.143-.163-.143-.164-.14-.166-.14-.166-.137-.169-.136-.17-.134-.17-.132-.173-.13-.174-.13-.175-.127-.177-.125-.177-.124-.18-.122-.18-.12-.182-.118-.183-.116-.184-.115-.185-.112-.187-.11-.187-.11-.19-.107-.19-.105-.19-.103-.193-.101-.193-.1-.194-.097-.196-.095-.197-.093-.197-.092-.198-.089-.2-.087-.2-.086-.202-.083-.202-.081-.203-.08-.204-.076-.205-.075-.206-.073-.207-.071-.207-.069-.208-.066-.209-.065-.21-.062-.21-.06-.21-.058-.213-.056-.212-.054-.213-.052-.214-.05-.214-.046-.215-.045-.215-.043-.216-.04-.216-.04-.217-.035-.217-.034-.218-.032-.218-.03-.219-.027-.218-.025-.22-.023-.22-.02-.22-.019-.22-.016-.22-.013-.22-.012-.221-.01-.222-.006-.22-.005-.222-.002-.222v-.222zM22.499 7.003l-.05-4.262-.049.005-.22.023-.221.026-.22.028-.22.03-.218.031-.22.034-.217.036-.218.039-.217.04-.217.043-.216.044-.216.047-.215.049-.214.05-.214.053-.213.055-.212.057-.212.06-.21.06-.211.064-.21.065-.209.067-.207.069-.208.071-.206.073-.205.075-.205.078-.203.079-.203.08-.202.083-.2.085-.2.087-.2.089-.197.09-.197.093-.196.094-.195.096-.193.098-.193.1-.191.102-.19.103-.19.106-.187.107-.187.108-.186.111-.184.113-.182.114-.182.116-.18.117-.18.12-.178.12-.176.123-.175.124-.174.126-.173.128-.17.13-.17.13-.168.132-.167.134-.165.136-.164.137-.162.138-.16.14-.16.142-.158.143-.156.145-.154.146-.153.147-.152.149-.15.15-.148.152-.146.153-.145.154-.143.156-.142.157-.14.158-.138.16-.136.16-.135.162-.133.164-.131.164-.13.166-.127.167-.126.168-.124.17-.122.17-.121.17-.119.173-.116.174-.116.174-.113.176-.11.177-.11.177-.108.179-.105.18-.104.18-.102.181-.1.183-.098.183-.096.184-.094.185-.092.186-.09.186-.088.187-.087.189-.084.188-.082.19-.08.19-.079.191-.076.192-.074.192-.073.193-.07.193-.068.194-.066.195-.064.195-.063.196-.06.196-.058.196-.056.197-.053.198-.052.198-.05.198-.048.199-.045.2-.044.199-.042.2-.039.2-.037.2-.036.2-.033.201-.03.201-.03.201-.027.202-.025.201-.023.202-.02.202-.019.202-.016.202-.015.202-.012.202-.01.202-.009.202-.006.202-.004.202-.002.202v.202l.003.201.004.202.006.202.009.2.01.202.013.2.014.201.017.2.019.2.02.2.023.2.025.2.027.198.029.199.03.198.034.197.034.198.037.196.04.197.04.196.043.195.045.195.047.194.049.194.05.193.054.192.054.192.057.191.059.19.06.19.063.19.064.188.066.188.069.187.07.186.072.186.073.185.076.183.077.183.08.182.081.182.083.18.085.18.086.178.089.178.09.176.092.176.094.175.095.173.097.173.099.171.1.17.103.17.104.169.105.167.108.166.109.165.11.164.113.162.113.162.116.16.117.16.118.157.12.157.122.155.123.154.125.152.126.152.128.15.129.149.13.147.133.146.133.145.135.143.136.142.138.14.14.14.14.138.141.136.143.135.145.133.145.132.147.13.148.129.15.127.15.126.152.124.153.123.155.12.155.12.157.118.157.117.159.114.16.113.16.112.163.11.163.108.164.106.165.105.166.104.167.101.168.1.169.098.17.097.17.094.172.093.172.092.173.09.174.087.175.086.176.084.176.083.177.08.178.08.179.077.18.075.18.074.18.072.181.07.182.068.182.066.184.065.183.063.184.06.185.06.185.057.186.056.186.053.187.052.187.05.187.048.188.046.188.044.188.043.19.04.188.039.19.037.19.035.19.033.19.031.19.03.19.027.191.025.191.024.191.022.191.02.192.018.191.016.191.015.192.012.191.01.192.01.191.006.191.005.192.003.19.001h.192l.191-.003.19-.004.192-.007.19-.008.19-.01.19-.011.19-.014.19-.015.19-.018.189-.02.189-.02.188-.023.188-.025.188-.026.187-.029.187-.03.187-.032.186-.033.185-.036.186-.037.184-.04.184-.04.184-.043.183-.044.183-.047.182-.048.18-.05.182-.05.18-.054.18-.055.178-.056.178-.059.177-.06.177-.062.176-.063.175-.065.174-.067.174-.069.173-.07.172-.072.17-.073.171-.075.17-.077.168-.078.168-.08.166-.081.166-.083.165-.085.164-.086.163-.088.161-.089.161-.09.16-.093.159-.094.157-.095.157-.097.156-.098.154-.1.153-.1.153-.103.15-.104.15-.106.149-.107.148-.108.146-.11.145-.11.144-.113.142-.113.142-.115.14-.116.139-.118.137-.119.136-.12.135-.121.134-.123.132-.124.13-.125.13-.126.129-.128.126-.128.126-.13.124-.131.122-.132.121-.133.12-.135.118-.135.117-.136.115-.138.114-.139.112-.14.11-.14.11-.141.108-.143.106-.143.105-.145.103-.145.101-.146.1-.148.099-.148.096-.149.096-.15.093-.15.092-.152.09-.152.09-.153.087-.154.085-.155.084-.155.082-.157.081-.156.079-.157.077-.159.076-.159.074-.16.072-.16.07-.16.07-.161.066-.162.066-.163.063-.162.062-.164.06-.164.06-.165.056-.164.055-.166.053-.165.052-.167.05-.166.048-.168.046-.167.045-.168.043-.168.041-.168.04-.169.037-.169.036-.17.034-.168.032-.17.03-.17.03-.17.026-.17.026-.17.023-.172.022-.17.02-.171.018-.17.016-.172.015-.17.013-.172.01-.17.01-.172.008-.171.006-.171.004-.17.002-.172v-.342l-.004-.17-.005-.17-.006-.17-.008-.171-.01-.17-.012-.17-.014-.169-.015-.17-.017-.168-.018-.17-.02-.168-.023-.168-.024-.167-.025-.168-.027-.167-.03-.167-.03-.166-.032-.166-.034-.166-.036-.165-.037-.164-.04-.165-.04-.163-.043-.164-.044-.162-.045-.162-.048-.162-.049-.161-.05-.16-.052-.16-.054-.16-.055-.158-.057-.158-.059-.158-.06-.156-.062-.156-.063-.155-.065-.155-.066-.153-.069-.154-.069-.152-.07-.152-.073-.15-.074-.15-.076-.15-.077-.147-.078-.148-.08-.146-.081-.146-.084-.145-.084-.144-.085-.143-.087-.141-.09-.142-.089-.14-.091-.14-.093-.137-.094-.137-.095-.136-.097-.136-.098-.134-.1-.133-.1-.132-.102-.13-.103-.13-.105-.13-.105-.127-.107-.127-.109-.125-.11-.124-.11-.123-.112-.122-.113-.121-.114-.12-.115-.118-.117-.117-.117-.116-.119-.115-.12-.114-.12-.112-.123-.111-.123-.11-.124-.108-.125-.107-.127-.106-.127-.105-.128-.103-.129-.102-.13-.101-.131-.1-.132-.097-.133-.097-.134-.095-.135-.094-.135-.092-.137-.092-.137-.09-.138-.088-.139-.086-.14-.086-.14-.084-.142-.083-.142-.08-.143-.08-.143-.079-.144-.077-.145-.075-.146-.074-.146-.072-.147-.072-.148-.069-.148-.068-.148-.066-.15-.066-.155-.065-.145-.06-.151-.06-.152-.06-.152-.057-.152-.056-.153-.054-.154-.053-.154-.052-.154-.05-.155-.047-.155-.047-.155-.045-.156-.044-.157-.042-.156-.04-.157-.04-.157-.037-.157-.036-.158-.034-.158-.033-.158-.03-.159-.03-.158-.028-.159-.027-.159-.025-.159-.023-.159-.021-.16-.02-.159-.02-.159-.016-.16-.016-.16-.013-.159-.013-.16-.01-.16-.01-.159-.007-.16-.006-.159-.005-.16-.003h-.35l.05 4.23h.207l.117.002.116.003.117.004.117.006.116.006.117.008.117.008.117.01.117.011.117.012.116.014.117.014.117.016.116.017.117.018.116.019.117.02.116.022.116.022.116.024.116.025.115.026.116.028.115.028.115.03.115.03.114.032.115.033.114.034.114.036.113.036.114.038.113.039.112.04.113.04.112.043.111.043.112.045.11.046.111.046.11.048.11.05.11.05.108.05.109.053.108.053.107.055.107.056.107.056.106.058.105.059.105.06.105.061.104.062.103.064.103.064.102.065.102.067.1.067.101.069.1.07.099.07.098.071.098.073.097.074.097.074.095.076.095.077.095.077.093.079.093.08.092.08.091.082.09.082.09.084.09.084.088.085.087.087.086.087.086.088.085.09.084.09.083.09.082.092.081.093.08.093.08.094.079.095.078.096.076.097.076.098.075.099.074.099.073.1.072.101.07.102.07.102.07.104.067.103.067.105.066.106.065.106.064.107.062.108.062.108.06.109.06.11.058.11.058.11.056.113.055.112.054.113.052.113.052.114.05.115.05.115.048.116.047.117.046.117.045.117.043.118.043.119.04.119.04.12.04.12.037.12.036.121.035.121.034.122.033.123.031.122.03.123.03.124.027.124.026.124.025.124.024.125.023.125.021.126.02.126.019.126.017.126.016.127.015.127.014.127.012.127.01.128.01.128.009.128.006.127.006.129.005.128.003.129.001.129v.258l-.003.128-.004.13-.005.128-.006.13-.008.129-.008.129-.01.13-.013.128-.013.13-.014.128-.016.13-.017.129-.018.129-.02.128-.021.13-.023.128-.023.128-.026.129-.026.128-.028.128-.029.128-.03.127-.032.128-.034.127-.034.127-.036.127-.037.126-.039.126-.04.126-.041.126-.042.125-.044.125-.045.125-.047.124-.048.124-.049.123-.05.123-.052.123-.053.122-.055.122-.055.122-.057.12-.058.12-.06.12-.06.12-.063.12-.063.117-.065.118-.066.118-.067.116-.068.117-.07.115-.07.115-.073.115-.073.113-.075.113-.076.113-.077.111-.078.112-.08.11-.08.11-.082.109-.083.108-.084.107-.085.107-.087.106-.087.105-.089.105-.09.103-.091.103-.092.102-.093.101-.095.1-.095.1-.097.099-.098.097-.098.097-.1.096-.101.095-.102.094-.103.093-.104.092-.105.092-.106.09-.107.089-.108.088-.109.088-.11.086-.111.085-.112.084-.113.083-.114.082-.114.082-.116.08-.116.078-.118.078-.118.077-.12.076-.12.074-.12.073-.122.073-.122.07-.124.07-.124.07-.125.067-.126.066-.126.066-.127.063-.128.063-.13.062-.129.06-.13.06-.13.057-.132.057-.132.055-.133.054-.134.053-.134.052-.135.05-.135.05-.136.047-.137.046-.137.045-.137.044-.139.043-.138.04-.14.04-.14.04-.14.036-.14.036-.142.034-.141.033-.142.032-.143.03-.143.03-.143.027-.143.026-.145.025-.144.023-.145.022-.145.02-.145.02-.146.018-.145.016-.147.015-.146.013-.147.012-.147.011-.147.01-.147.007-.147.006-.148.005-.148.004-.147.002h-.296l-.149-.003-.148-.004-.148-.005-.148-.007-.149-.008-.148-.01-.148-.01-.149-.013-.148-.015-.148-.015-.148-.017-.148-.018-.149-.02-.147-.022-.148-.022-.148-.025-.147-.025-.148-.027-.147-.03-.146-.03-.147-.031-.147-.033-.146-.034-.146-.036-.145-.038-.146-.039-.145-.04-.144-.042-.145-.043-.144-.044-.143-.047-.143-.047-.143-.05-.143-.05-.142-.051-.141-.053-.142-.055-.14-.056-.14-.058-.14-.059-.139-.06-.139-.062-.138-.063-.137-.064-.137-.066-.136-.067-.136-.069-.135-.07-.134-.071-.134-.073-.133-.074-.132-.075-.132-.077-.131-.078-.13-.08-.13-.08-.128-.083-.128-.083-.128-.085-.126-.086-.126-.087-.124-.089-.124-.09-.123-.09-.123-.093-.121-.093-.12-.095-.12-.097-.119-.097-.117-.099-.117-.1-.116-.1-.115-.102-.113-.104-.113-.104-.112-.106-.11-.107-.11-.108-.11-.109-.107-.11-.106-.112-.106-.112-.104-.114-.104-.115-.102-.115-.1-.117-.1-.118-.1-.12-.097-.12-.096-.12-.095-.122-.094-.123-.093-.124-.092-.126-.09-.125-.089-.127-.088-.128-.086-.13-.086-.129-.084-.13-.082-.132-.082-.133-.08-.133-.078-.134-.078-.136-.076-.135-.074-.137-.074-.138-.072-.138-.07-.139-.07-.14-.067-.14-.066-.142-.065-.142-.064-.143-.062-.143-.06-.145-.06-.145-.057-.145-.056-.147-.055-.146-.054-.148-.051-.148-.05-.149-.05-.15-.047-.149-.045-.15-.045-.151-.042-.152-.041-.152-.04-.152-.038-.153-.037-.153-.034-.154-.034-.155-.032-.154-.03-.155-.028-.156-.028-.156-.025-.156-.024-.156-.022-.157-.02-.157-.02-.158-.017-.158-.016-.157-.014-.159-.013-.158-.01-.159-.01-.159-.008-.159-.006-.159-.004-.16-.003-.159-.001-.16v-.16l.002-.16.004-.159.006-.16.007-.16.009-.16.01-.16.012-.16.014-.16.015-.16.017-.16.019-.16.02-.16.022-.159.024-.16.025-.159.027-.159.03-.159.03-.159.031-.158.034-.158.035-.159.037-.157.039-.158.04-.157.042-.157.043-.157.045-.156.047-.156.049-.156.05-.155.051-.155.054-.154.055-.154.056-.154.058-.153.06-.152.061-.152.063-.152.065-.15.066-.151.068-.15.07-.15.07-.148.072-.148.075-.148.075-.147.077-.146.079-.146.08-.144.082-.144.083-.144.085-.142.087-.142.087-.141.09-.14.09-.14.093-.139.094-.138.095-.137.097-.136.098-.136.1-.134.101-.133.103-.133.104-.132.105-.13.107-.13.108-.13.11-.127.11-.127.113-.126.114-.124.114-.124.117-.123.118-.121.119-.12.12-.12.122-.119.122-.117.125-.116.125-.114.127-.114.128-.113.129-.111.13-.11.132-.11.133-.107.133-.106.136-.105.136-.104.137-.103.139-.101.14-.1.14-.1.142-.097.143-.096.144-.094.145-.094.146-.092.148-.09.148-.09.149-.087.15-.087.151-.085.152-.083.153-.082.154-.08.155-.08.155-.078.157-.076.158-.075.158-.073.16-.072.16-.07.16-.069.162-.067.162-.065.163-.064.164-.063.165-.06.165-.06.166-.058.167-.056.167-.054.168-.053.169-.052.17-.05.169-.047.17-.047.172-.045.171-.043.172-.041.173-.04.173-.038.174-.037.174-.034.174-.033.175-.032.176-.03.175-.028.177-.026.176-.024.177-.023.066-.008zm.075 6.275L22.523 9l-.145.02-.156.023-.156.025-.155.026-.155.028-.155.03-.154.03-.153.032-.153.034-.153.035-.153.037-.151.038-.152.04-.145.04-.156.043-.15.044-.149.046-.148.046-.148.049-.148.05-.146.05-.146.053-.146.053-.145.056-.144.056-.143.058-.143.06-.143.06-.14.062-.141.064-.14.064-.14.066-.138.068-.137.068-.137.07-.136.072-.135.072-.135.074-.133.075-.132.076-.132.078-.13.078-.13.08-.13.081-.128.083-.127.083-.126.085-.125.086-.124.087-.123.088-.123.09-.12.09-.121.092-.119.093-.118.094-.117.095-.116.095-.115.098-.114.098-.113.099-.111.1-.111.101-.11.103-.108.103-.107.104-.106.105-.105.106-.103.107-.103.109-.101.108-.1.11-.1.111-.097.112-.096.112-.095.114-.095.114-.092.115-.092.116-.09.117-.09.117-.087.118-.086.12-.085.12-.084.12-.083.121-.081.122-.08.123-.079.123-.077.124-.076.125-.074.126-.074.126-.072.126-.07.127-.07.128-.067.13-.066.128-.066.13-.063.13-.063.13-.06.132-.06.131-.058.132-.057.133-.055.133-.054.133-.052.134-.051.135-.05.135-.048.135-.047.135-.045.136-.044.136-.043.137-.04.137-.04.137-.038.137-.037.138-.036.138-.033.138-.033.139-.03.138-.03.14-.028.138-.027.14-.025.139-.023.14-.023.139-.02.14-.02.14-.018.14-.016.14-.015.14-.013.14-.012.14-.011.14-.01.14-.007.14-.006.14-.005.14-.003.14-.002.14v.28l.003.139.004.14.005.139.007.139.008.139.01.139.01.138.013.139.014.138.015.138.017.137.018.138.02.137.02.137.022.136.024.136.025.136.026.136.028.135.03.135.03.134.032.134.033.134.035.133.036.132.037.133.038.131.04.132.042.13.042.13.044.13.045.13.047.128.047.129.05.127.05.127.051.127.053.125.054.126.056.124.056.124.058.123.06.123.06.122.06.121.064.12.063.12.066.12.066.118.067.118.069.117.07.116.07.115.072.115.073.114.075.113.075.112.076.111.078.11.078.11.08.11.08.107.083.107.082.106.084.106.085.104.086.104.087.102.088.102.088.1.09.1.09.099.093.098.092.096.094.096.094.095.095.094.097.093.097.092.098.09.099.09.1.09.1.087.101.086.103.086.102.085.104.083.105.082.105.082.106.08.107.079.107.078.109.077.109.075.11.075.11.073.11.073.112.07.113.07.112.07.114.067.114.067.115.065.115.064.116.063.116.062.117.06.118.06.118.059.118.057.12.056.119.054.12.053.12.053.12.05.122.05.122.049.122.047.122.046.123.045.123.044.124.042.124.041.124.04.124.038.125.038.125.036.126.035.125.033.126.033.126.03.127.03.126.029.127.027.127.026.127.025.127.023.127.023.127.02.128.02.128.019.127.017.128.016.128.015.128.013.128.012.128.01.128.01.128.009.128.007.127.006.128.004.128.003.128.002.127.001h.128l.127-.002.127-.003.128-.004.127-.006.126-.006.127-.008.126-.01.127-.01.126-.011.125-.013.126-.014.125-.015.125-.017.125-.018.125-.019.124-.02.123-.02.124-.023.123-.024.123-.025.123-.026.122-.027.121-.029.122-.03.12-.03.121-.032.12-.033.12-.034.12-.035.118-.037.118-.038.118-.038.117-.04.117-.041.116-.042.115-.043.116-.045.114-.045.114-.046.113-.048.113-.048.113-.05.111-.05.111-.053.11-.052.11-.054.11-.055.108-.056.107-.057.107-.058.107-.059.105-.06.105-.06.105-.062.103-.063.103-.064.102-.064.101-.066.1-.067.1-.067.1-.069.097-.069.098-.07.096-.071.096-.072.095-.073.093-.074.094-.074.092-.076.092-.076.09-.077.09-.078.089-.079.088-.08.087-.08.086-.08.085-.083.085-.082.083-.084.082-.084.082-.085.08-.085.08-.087.079-.087.077-.087.077-.089.076-.089.074-.09.074-.09.073-.09.072-.093.07-.092.07-.093.069-.093.067-.094.067-.095.066-.095.064-.096.064-.096.062-.097.062-.097.06-.098.06-.098.057-.1.058-.099.056-.1.055-.1.053-.1.053-.101.052-.102.05-.102.05-.103.048-.102.048-.103.046-.104.045-.104.044-.104.043-.104.041-.105.041-.105.04-.106.038-.106.037-.106.036-.106.035-.107.034-.107.033-.107.031-.107.03-.107.03-.108.028-.108.027-.108.026-.108.025-.108.023-.109.023-.108.021-.11.02-.108.02-.11.017-.108.017-.109.015-.11.015-.108.013-.11.012-.11.011-.108.01-.11.01-.109.007-.109.006-.11.006-.108.004-.11.003-.109.002-.108v-.328l-.003-.108-.004-.108-.005-.108-.006-.108-.007-.109-.008-.108-.009-.107-.01-.108-.012-.107-.012-.107-.014-.107-.014-.106-.016-.107-.017-.106-.018-.105-.019-.106-.02-.105-.021-.105-.022-.105-.024-.104-.024-.104-.025-.104-.027-.103-.027-.103-.029-.102-.03-.103-.03-.101-.031-.102-.033-.1-.034-.101-.034-.1-.036-.1-.036-.1-.038-.098-.039-.098-.04-.098-.04-.098-.041-.096-.043-.097-.043-.096-.044-.095-.046-.095-.046-.094-.047-.094-.048-.093-.049-.092-.05-.092-.05-.092-.052-.09-.053-.091-.053-.09-.055-.089-.055-.088-.056-.088-.057-.087-.057-.086-.059-.086-.06-.086-.06-.084-.06-.084-.063-.083-.062-.083-.064-.081-.064-.081-.065-.08-.065-.08-.067-.08-.067-.077-.068-.078-.069-.076-.07-.076-.07-.076-.07-.074-.072-.074-.072-.072-.073-.073-.073-.07-.075-.071-.074-.07-.076-.069-.076-.068-.077-.067-.078-.067-.077-.065-.079-.065-.08-.064-.079-.063-.08-.062-.081-.061-.081-.06-.083-.06-.082-.06-.083-.057-.084-.057-.084-.056-.084-.056-.085-.054-.086-.054-.086-.052-.086-.052-.087-.05-.088-.05-.087-.05-.088-.048-.089-.047-.089-.046-.089-.045-.09-.045-.09-.043-.09-.043-.09-.041-.092-.041-.091-.04-.092-.038-.092-.038-.093-.037-.092-.036-.093-.035-.093-.034-.093-.033-.094-.032-.094-.032-.094-.03-.094-.03-.095-.027-.095-.028-.094-.026-.095-.026-.095-.024-.096-.024-.096-.022-.095-.022-.096-.02-.096-.02-.096-.019-.095-.018-.097-.016-.096-.016-.096-.015-.096-.014-.097-.013-.096-.012-.096-.011-.097-.01-.096-.01-.097-.007-.096-.008-.096-.006-.097-.005-.096-.004-.096-.004-.096-.002-.096-.002h-.161l.05 4.179h.084l.055.002.055.002.056.002.055.003.056.004.055.004.056.005.055.005.056.006.056.006.055.008.056.007.056.008.056.01.055.009.056.01.056.01.055.011.056.012.056.012.055.013.056.014.055.014.056.015.055.015.055.016.056.016.055.017.055.018.055.018.054.019.055.02.055.02.054.02.054.021.055.022.054.022.053.023.054.024.054.024.053.025.053.025.053.026.053.026.053.027.052.028.052.028.052.029.052.03.052.03.05.03.052.03.05.032.051.032.05.033.05.034.05.034.05.034.049.035.049.035.048.036.048.037.048.037.048.038.047.038.047.04.047.038.046.04.046.04.045.042.045.041.045.042.044.043.044.043.044.043.043.044.043.045.042.045.042.045.042.046.041.047.04.047.041.047.04.048.04.049.038.049.038.05.038.05.038.05.037.05.036.051.037.052.035.052.035.053.035.053.034.053.033.054.033.054.032.055.032.055.032.055.03.056.03.056.03.057.03.057.029.057.027.058.028.058.027.059.026.059.026.059.025.06.024.06.024.06.024.06.023.06.022.062.021.062.02.061.021.063.02.062.019.063.018.063.018.063.017.063.016.064.016.064.015.065.014.064.014.065.013.065.013.065.011.065.011.066.01.066.01.066.01.066.008.066.008.067.007.067.006.067.005.067.005.067.004.067.004.068.002.067.003.068v.068l.001.068v.136l-.002.068-.002.069-.003.068-.004.069-.005.068-.005.068-.006.07-.007.068-.007.068-.008.069-.009.069-.01.069-.01.068-.011.069-.012.068-.012.069-.014.069-.014.068-.015.069-.015.068-.016.068-.018.069-.017.068-.019.068-.019.068-.02.068-.02.068-.022.068-.022.067-.023.068-.024.067-.025.067-.025.067-.026.067-.026.067-.028.066-.028.066-.029.066-.03.066-.03.066-.03.065-.033.066-.032.065-.034.064-.034.065-.034.064-.036.064-.036.064-.037.063-.037.064-.038.062-.04.063-.04.062-.04.062-.04.062-.043.06-.042.062-.043.06-.044.06-.045.06-.045.06-.046.059-.047.059-.047.058-.048.058-.049.058-.05.057-.05.056-.05.057-.051.055-.052.056-.053.055-.053.054-.054.054-.054.054-.055.053-.056.052-.057.052-.057.052-.057.051-.059.05-.059.05-.059.05-.06.05-.06.048-.062.048-.062.047-.062.047-.063.046-.063.046-.064.045-.065.044-.065.044-.066.044-.066.042-.067.042-.067.042-.068.04-.068.04-.069.04-.07.04-.069.038-.07.037-.071.037-.071.037-.072.036-.072.035-.073.034-.073.034-.073.032-.074.033-.074.031-.075.031-.075.03-.076.03-.076.029-.076.028-.077.027-.077.026-.078.026-.078.025-.078.025-.078.023-.08.023-.078.022-.08.022-.08.02-.08.02-.08.019-.081.018-.081.017-.082.017-.081.016-.082.015-.082.014-.083.014-.082.012-.083.012-.083.011-.083.01-.084.01-.083.009-.084.007-.084.007-.084.006-.085.006-.084.004-.085.004-.085.003-.085.001-.085.002h-.17l-.085-.002-.086-.002-.085-.003-.085-.005-.086-.004-.086-.006-.085-.006-.086-.008-.086-.008-.085-.01-.086-.01-.086-.01-.086-.012-.085-.012-.086-.014-.085-.014-.086-.015-.085-.017-.086-.016-.085-.018-.085-.019-.085-.02-.085-.02-.085-.02-.085-.023-.084-.023-.085-.024-.084-.025-.084-.025-.084-.026-.084-.028-.084-.028-.083-.029-.083-.03-.083-.03-.083-.032-.082-.032-.083-.034-.082-.034-.081-.035-.082-.036-.08-.036-.081-.038-.081-.038-.08-.04-.08-.04-.08-.04-.079-.042-.079-.043-.078-.043-.078-.044-.078-.045-.078-.046-.076-.047-.077-.047-.076-.048-.076-.05-.075-.05-.075-.05-.075-.052-.073-.052-.074-.053-.073-.054-.072-.054-.072-.055-.072-.057-.07-.057-.072-.057-.07-.059-.069-.059-.069-.06-.068-.06-.068-.062-.067-.062-.067-.063-.066-.064-.065-.064-.065-.065-.064-.066-.064-.066-.063-.068-.062-.067-.062-.069-.06-.07-.061-.07-.06-.07-.059-.07-.058-.073-.058-.072-.057-.073-.056-.074-.056-.075-.055-.075-.054-.076-.053-.076-.053-.077-.052-.077-.05-.079-.05-.078-.05-.08-.05-.08-.047-.08-.048-.08-.046-.082-.046-.082-.045-.083-.043-.083-.044-.084-.042-.084-.042-.084-.04-.085-.04-.086-.04-.086-.037-.087-.038-.087-.036-.087-.036-.088-.034-.089-.034-.088-.033-.09-.032-.09-.03-.09-.031-.09-.03-.09-.028-.092-.027-.091-.027-.092-.025-.093-.025-.092-.024-.093-.022-.094-.022-.093-.02-.094-.02-.094-.02-.095-.018-.095-.016-.095-.016-.095-.015-.095-.015-.096-.013-.096-.012-.097-.01-.096-.01-.097-.01-.096-.008-.098-.007-.097-.006-.097-.005-.098-.005-.097-.003-.098-.002-.098v-.294l.002-.098.003-.098.004-.099.005-.098.007-.099.007-.098.008-.099.01-.099.01-.098.01-.099.013-.099.013-.098.015-.099.015-.098.017-.098.017-.099.019-.098.02-.098.02-.098.022-.098.022-.098.024-.098.025-.097.026-.098.027-.097.028-.097.028-.097.03-.097.031-.096.032-.096.034-.096.034-.096.035-.096.036-.095.037-.095.038-.095.04-.094.04-.094.04-.094.043-.094.043-.093.045-.093.045-.092.046-.093.047-.091.049-.091.049-.091.05-.091.052-.09.052-.09.053-.09.054-.088.055-.088.056-.088.057-.088.058-.087.06-.086.06-.086.06-.086.062-.085.063-.084.063-.084.065-.083.066-.083.066-.082.068-.082.068-.08.07-.081.07-.08.07-.08.072-.078.073-.078.073-.077.075-.076.075-.076.076-.076.077-.074.078-.074.08-.073.079-.073.08-.072.081-.07.082-.07.083-.07.084-.07.084-.067.085-.067.086-.067.087-.065.087-.065.088-.064.09-.064.089-.062.09-.062.091-.06.092-.06.093-.06.093-.057.094-.058.095-.056.095-.056.096-.054.096-.054.097-.053.098-.052.099-.051.099-.05.1-.05.1-.048.1-.047.102-.046.102-.046.102-.044.104-.044.103-.042.104-.041.105-.041.105-.04.106-.038.106-.037.107-.037.107-.035.107-.035.108-.033.109-.033.109-.03.109-.031.11-.03.11-.028.11-.027.111-.026.111-.025.112-.024.112-.022.112-.022.056-.01zm1.379 8.036-1.28.304-.075-6.32-.06.014-.092.022-.09.022-.09.023-.09.024-.09.025-.09.025-.088.027-.089.027-.087.028-.088.03-.087.03-.087.03-.087.031-.085.033-.086.033-.085.034-.085.034-.085.036-.083.036-.083.037-.083.038-.082.039-.082.039-.082.04-.08.041-.08.042-.08.042-.08.043-.078.044-.079.045-.077.045-.077.046-.077.047-.076.047-.075.048-.075.049-.074.05-.073.05-.073.05-.072.051-.072.052-.071.053-.07.054-.07.054-.07.054-.068.055-.068.056-.067.057-.067.057-.066.057-.065.058-.064.06-.064.059-.063.06-.063.06-.062.061-.06.061-.061.063-.06.062-.059.063-.058.064-.057.064-.057.064-.056.065-.055.066-.054.066-.054.066-.053.067-.052.067-.052.068-.05.068-.05.069-.05.069-.048.07-.048.069-.046.07-.046.07-.046.072-.044.07-.044.073-.043.072-.042.072-.04.072-.041.073-.04.073-.039.074-.038.074-.037.074-.037.074-.035.075-.035.075-.034.075-.033.075-.032.076-.032.076-.03.076-.03.076-.03.077-.027.076-.028.077-.026.077-.026.077-.025.078-.024.077-.023.078-.022.077-.022.078-.02.078-.02.078-.02.078-.018.079-.017.078-.016.079-.016.078-.015.078-.014.08-.013.078-.012.078-.012.079-.01.078-.01.08-.01.078-.007.078-.008.08-.006.078-.006.078-.005.079-.004.078-.003.079-.003.078-.001.078-.001.078v.156l.002.078.003.078.003.078.004.077.005.077.006.077.006.078.007.076.008.077.01.076.009.077.01.076.011.076.012.075.013.076.013.075.014.075.015.075.016.074.017.075.017.074.018.073.019.074.019.073.02.073.021.073.022.072.022.072.023.072.024.07.024.072.026.07.026.07.026.07.027.07.028.07.029.068.03.069.03.068.03.068.031.067.032.067.033.066.033.066.034.066.035.065.035.065.036.064.036.064.037.064.038.063.038.062.039.063.04.061.04.061.04.06.041.061.042.06.042.059.043.059.043.058.044.058.045.057.045.056.045.056.046.056.047.055.047.054.047.055.049.053.048.053.05.052.049.052.05.05.05.051.051.05.051.05.052.049.052.048.053.048.053.047.053.046.054.046.055.046.054.045.055.044.056.043.055.043.057.042.056.042.057.041.057.04.058.04.058.04.058.038.058.038.059.037.06.037.059.036.06.035.06.035.06.034.06.033.06.033.062.032.061.032.061.03.062.03.062.03.062.03.063.027.062.028.063.027.063.026.063.026.063.024.064.025.063.023.064.023.064.022.064.022.064.02.064.02.065.02.064.02.065.018.064.017.065.017.065.016.065.016.065.015.065.014.065.013.065.013.065.012.065.012.065.011.065.01.066.01.064.009.066.008.065.008.065.006.065.007.065.005.065.005.065.005.065.003.065.003.064.003.065.001.065.002h.128l.065-.001.064-.002.064-.002.064-.002.064-.004.064-.004.063-.005.063-.005.063-.006.063-.006.063-.007.063-.008.062-.008.063-.01.062-.009.062-.01.061-.01.062-.012.061-.012.061-.012.06-.013.061-.014.06-.014.06-.015.06-.015.06-.016.06-.017.058-.017.06-.017.057-.018.059-.02.058-.019.057-.02.057-.02.057-.02.057-.022.056-.022.056-.023.056-.022.055-.024.055-.024.055-.024.054-.025.054-.026.053-.026.053-.026.053-.027.053-.028.052-.028.051-.028.052-.029.05-.03.051-.029.05-.03.05-.03.05-.032.048-.031.049-.032.047-.033.048-.033.047-.033.047-.033.046-.034.046-.035.046-.035.045-.035.044-.035.044-.036.044-.037.043-.036.043-.038.042-.037.042-.038.041-.038.04-.038.041-.04.04-.038.04-.04.038-.04.039-.04.038-.04.037-.04.037-.042.036-.04.036-.043.035-.041.036-.043.034-.042.034-.043.033-.042.033-.044.032-.043.032-.044.032-.044.03-.044.03-.044.03-.045.03-.044.028-.045.029-.046.027-.045.027-.046.027-.045.026-.046.025-.046.025-.046.025-.047.024-.046.023-.047.023-.047.022-.047.022-.047.021-.047.021-.048.02-.047.02-.048.019-.048.018-.047.018-.048.018-.048.017-.048.016-.048.016-.048.015-.049.015-.048.015-.048.013-.049.013-.048.013-.048.012-.05.012-.048.01-.048.011-.048.01-.05.01-.048.008-.048.009-.049.008-.048.007-.049.007-.049.006-.048.006-.048.005-.048.005-.049.004-.048.003-.048.003-.048.003-.049.002-.047.002-.048.001-.048v-.19l-.002-.048-.002-.047-.002-.047-.003-.047-.004-.047-.003-.046-.005-.047-.005-.047-.005-.046-.006-.046-.006-.046-.007-.046-.007-.045-.008-.046-.008-.045-.008-.045-.01-.045-.009-.045-.01-.044-.01-.045-.011-.044-.011-.043-.012-.044-.012-.044-.013-.043-.013-.043-.013-.043-.014-.042-.014-.043-.015-.042-.015-.042-.016-.041-.016-.042-.016-.04-.017-.042-.017-.04-.018-.04-.017-.04-.019-.04-.018-.04-.02-.04-.019-.038-.02-.039-.02-.038-.02-.038-.02-.038-.022-.037-.022-.038-.022-.037-.022-.036-.023-.036-.022-.036-.024-.036-.023-.035-.024-.035-.024-.035-.025-.034-.024-.034-.026-.034-.025-.033-.026-.033-.026-.033-.026-.032-.026-.032-.027-.032-.027-.031-.027-.03-.028-.032-.028-.03-.028-.03-.028-.03-.029-.028-.029-.03-.029-.027-.03-.029-.029-.027-.03-.028-.03-.026-.03-.027-.03-.026-.03-.026-.031-.026-.031-.025-.031-.024-.032-.025-.031-.024-.032-.023-.032-.023-.032-.023-.032-.023-.032-.022-.033-.021-.032-.021-.033-.021-.033-.02-.033-.021-.033-.02-.034-.019-.033-.019-.034-.019-.033-.018-.034-.017-.034-.018-.034-.017-.034-.017-.034-.016-.034-.015-.034-.016-.035-.015-.034-.015-.034-.014-.035-.014-.035-.013-.034-.013-.035-.013-.034-.012-.035-.012-.035-.012-.035-.01-.035-.012-.034-.01-.035-.01-.035-.01-.035-.009-.035-.009-.035-.008-.034-.008-.035-.008-.035-.008-.035-.006-.034-.007-.035-.006-.035-.006-.034-.006-.035-.005-.035-.004-.034-.005-.035-.004L25 21.25l-.034-.004-.035-.003-.034-.002-.034-.002-.034-.002-.034-.002h-.034l-.033-.002h-.135l-.033.002h-.033l-.033.002-.033.002-.033.002-.032.003-.033.003-.032.003-.033.004-.032.004-.032.004-.031.005-.032.004-.032.005-.031.006-.031.006-.031.006-.031.006-.03.007-.031.007z" clip-rule="evenodd"/></svg>