<svg xmlns="http://www.w3.org/2000/svg" width="190" height="46" fill="none"><path fill="#fff" d="M55.909 31.829h13.52V27.76h-8.715V12.44H55.91v19.389zm21.531-2.712c-1.927 0-2.931-1.68-2.931-4.203 0-2.522 1.004-4.23 2.932-4.23s2.96 1.708 2.96 4.23c0 2.522-1.032 4.203-2.96 4.203zm.028 3.146c4.48 0 7.412-3.173 7.412-7.349s-2.932-7.349-7.412-7.349c-4.453 0-7.44 3.173-7.44 7.35 0 4.175 2.987 7.348 7.44 7.348zm15.166 4.366c2.064 0 3.883-.461 5.104-1.546 1.114-1.003 1.847-2.522 1.847-4.61V17.945h-4.236v1.491h-.054c-.815-1.166-2.064-1.898-3.91-1.898-3.448 0-5.837 2.875-5.837 6.942 0 4.258 2.905 6.59 6.027 6.59 1.684 0 2.742-.678 3.557-1.6h.109v1.383c0 1.681-.788 2.657-2.661 2.657-1.466 0-2.2-.623-2.444-1.356h-4.29c.435 2.902 2.96 4.475 6.788 4.475zm-.027-8.84c-1.656 0-2.742-1.356-2.742-3.445 0-2.115 1.086-3.47 2.742-3.47 1.846 0 2.824 1.572 2.824 3.443 0 1.953-.896 3.471-2.824 3.471zm15.685 1.328c-1.927 0-2.932-1.68-2.932-4.203 0-2.522 1.005-4.23 2.932-4.23 1.928 0 2.96 1.708 2.96 4.23 0 2.522-1.032 4.203-2.96 4.203zm.028 3.146c4.479 0 7.411-3.173 7.411-7.349s-2.932-7.349-7.411-7.349c-4.453 0-7.44 3.173-7.44 7.35 0 4.175 2.987 7.348 7.44 7.348zm8.705-.434h4.426V17.945h-4.426v13.884zm0-15.81h4.426v-3.58h-4.426v3.58zm6.346 20.393h4.426v-6.02h.054c.869 1.166 2.145 1.87 3.937 1.87 3.638 0 6.054-2.874 6.054-7.375 0-4.176-2.253-7.349-5.946-7.349-1.9 0-3.258.84-4.208 2.088h-.081v-1.681h-4.236v18.467zm7.276-7.566c-1.9 0-2.986-1.546-2.986-3.796 0-2.251.977-3.96 2.905-3.96 1.9 0 2.796 1.573 2.796 3.96 0 2.359-1.031 3.796-2.715 3.796zm14.4 3.417c3.638 0 6.326-1.573 6.326-4.61 0-3.552-2.878-4.176-5.322-4.583-1.765-.325-3.339-.461-3.339-1.437 0-.868.841-1.275 1.927-1.275 1.222 0 2.064.38 2.227 1.627h4.072c-.217-2.738-2.335-4.447-6.272-4.447-3.285 0-6 1.519-6 4.447 0 3.254 2.58 3.905 4.996 4.312 1.846.325 3.529.461 3.529 1.708 0 .895-.841 1.383-2.172 1.383-1.466 0-2.389-.678-2.552-2.06h-4.181c.136 3.064 2.688 4.935 6.761 4.935zm12.337-.027c1.928 0 3.15-.76 4.154-2.115h.082v1.708h4.235V17.945h-4.425V25.7c0 1.655-.924 2.794-2.444 2.794-1.412 0-2.091-.841-2.091-2.36v-8.19h-4.398v9.112c0 3.092 1.683 5.18 4.887 5.18zm10.396-.407h4.426v-7.783c0-1.654.814-2.82 2.199-2.82 1.33 0 1.955.868 1.955 2.36v8.243h4.425v-7.783c0-1.654.788-2.82 2.2-2.82 1.33 0 1.954.868 1.954 2.36v8.243h4.426v-9.03c0-3.119-1.575-5.26-4.724-5.26-1.792 0-3.286.758-4.372 2.44h-.054c-.706-1.492-2.09-2.44-3.909-2.44-2.01 0-3.34.948-4.209 2.385h-.081v-1.98h-4.236V31.83zM28.908 1.35 24.458.159 20.71 14.135 17.324 1.517l-4.45 1.191 3.658 13.633-9.11-9.099-3.257 3.253 9.992 9.98-12.443-3.33L.52 21.59l13.597 3.639a9.22 9.22 0 0 1-.238-2.088c0-5.081 4.124-9.2 9.212-9.2s9.213 4.119 9.213 9.2a9.21 9.21 0 0 1-.235 2.075l12.356 3.307 1.192-4.444-13.65-3.653 12.445-3.33-1.193-4.445-13.65 3.653 9.11-9.098-3.257-3.253-9.853 9.841L28.908 1.35z"/><path fill="#fff" d="M32.058 25.267a9.18 9.18 0 0 1-2.292 4.217l8.952 8.94 3.257-3.252-9.917-9.905zm-2.382 4.31a9.208 9.208 0 0 1-4.117 2.431l3.258 12.142 4.449-1.19-3.59-13.383zm-4.283 2.476a9.235 9.235 0 0 1-2.3.289 9.27 9.27 0 0 1-2.458-.331l-3.26 12.153 4.45 1.19 3.568-13.301zm-4.916-.087a9.214 9.214 0 0 1-4.044-2.467l-8.974 8.963 3.257 3.253 9.761-9.749zM16.36 29.42a9.178 9.178 0 0 1-2.235-4.165L1.728 28.573l1.192 4.443 13.44-3.596z"/></svg>