<svg xmlns="http://www.w3.org/2000/svg" width="200" height="39" fill="none"><path fill="#fff" d="M60.202 30.563V10.39h3.823v16.715h9.268v3.458h-13.09zm21.346.404c-1.429 0-2.713-.288-3.852-.865a6.502 6.502 0 0 1-2.694-2.507c-.656-1.095-.984-2.411-.984-3.948v-.461c0-1.537.328-2.853.984-3.948a6.502 6.502 0 0 1 2.694-2.508c1.139-.576 2.423-.864 3.852-.864 1.429 0 2.713.288 3.852.864a6.505 6.505 0 0 1 2.694 2.508c.656 1.095.984 2.41.984 3.948v.46c0 1.538-.328 2.854-.984 3.949a6.504 6.504 0 0 1-2.694 2.507c-1.14.577-2.423.865-3.852.865zm0-3.228c1.12 0 2.047-.355 2.78-1.066.734-.73 1.101-1.768 1.101-3.113v-.288c0-1.345-.367-2.373-1.1-3.084-.715-.73-1.642-1.095-2.781-1.095-1.12 0-2.047.366-2.78 1.095-.734.711-1.101 1.74-1.101 3.084v.288c0 1.345.367 2.383 1.1 3.113.734.71 1.661 1.066 2.78 1.066zm8.9-4.265v-.461c0-1.499.3-2.777.898-3.833.599-1.076 1.39-1.893 2.375-2.45a6.462 6.462 0 0 1 3.273-.864c1.313 0 2.307.23 2.983.691.676.461 1.168.942 1.477 1.441h.522V16.27h3.591V33.1c0 .98-.29 1.758-.869 2.335-.579.595-1.352.893-2.317.893h-9.616v-3.17h8.342c.54 0 .811-.288.811-.865v-3.717h-.522a4.94 4.94 0 0 1-.811.95c-.347.308-.81.568-1.39.779-.58.211-1.313.317-2.201.317a6.635 6.635 0 0 1-3.273-.836c-.985-.576-1.776-1.393-2.375-2.45-.599-1.075-.898-2.363-.898-3.861zm7.589 3.977c1.12 0 2.056-.356 2.809-1.066.753-.711 1.13-1.71 1.13-2.998V23.1c0-1.306-.377-2.305-1.13-2.997-.734-.71-1.67-1.066-2.81-1.066-1.12 0-2.056.355-2.809 1.066-.753.692-1.13 1.69-1.13 2.997v.288c0 1.288.377 2.287 1.13 2.998.753.71 1.69 1.066 2.81 1.066zm17.109 3.516c-1.429 0-2.713-.288-3.852-.865a6.502 6.502 0 0 1-2.694-2.507c-.656-1.095-.985-2.411-.985-3.948v-.461c0-1.537.329-2.853.985-3.948a6.503 6.503 0 0 1 2.694-2.508c1.139-.576 2.423-.864 3.852-.864 1.429 0 2.712.288 3.852.864a6.5 6.5 0 0 1 2.693 2.508c.657 1.095.985 2.41.985 3.948v.46c0 1.538-.328 2.854-.985 3.949a6.5 6.5 0 0 1-2.693 2.507c-1.14.577-2.423.865-3.852.865zm0-3.228c1.12 0 2.046-.355 2.78-1.066.734-.73 1.101-1.768 1.101-3.113v-.288c0-1.345-.367-2.373-1.101-3.084-.714-.73-1.641-1.095-2.78-1.095-1.12 0-2.047.366-2.781 1.095-.734.711-1.1 1.74-1.1 3.084v.288c0 1.345.366 2.383 1.1 3.113.734.71 1.661 1.066 2.781 1.066zm9.595 2.824V16.27h3.65v14.294h-3.65zm1.825-15.965c-.657 0-1.216-.212-1.68-.635-.444-.422-.666-.98-.666-1.67 0-.693.222-1.25.666-1.672.464-.423 1.023-.634 1.68-.634.676 0 1.236.21 1.679.634.444.422.667.98.667 1.671 0 .692-.223 1.249-.667 1.671-.443.423-1.003.635-1.679.635zm4.565 21.729V16.269h3.591V18h.521c.328-.558.839-1.048 1.535-1.47.695-.442 1.689-.663 2.984-.663 1.157 0 2.229.288 3.214.864.985.557 1.777 1.383 2.375 2.479.598 1.095.898 2.42.898 3.977v.46c0 1.557-.3 2.883-.898 3.978-.598 1.095-1.39 1.93-2.375 2.507a6.42 6.42 0 0 1-3.214.836c-.869 0-1.603-.106-2.202-.317-.579-.192-1.052-.442-1.419-.75a5.463 5.463 0 0 1-.84-.98h-.522v7.407h-3.648zm7.529-8.53c1.14 0 2.076-.356 2.81-1.067.753-.73 1.13-1.786 1.13-3.17v-.288c0-1.383-.377-2.43-1.13-3.141-.754-.73-1.69-1.095-2.81-1.095-1.119 0-2.056.365-2.809 1.095-.753.71-1.129 1.758-1.129 3.141v.288c0 1.384.376 2.44 1.129 3.17.753.711 1.69 1.067 2.809 1.067zm15.604 3.17c-1.873 0-3.408-.404-4.606-1.21-1.196-.808-1.92-1.96-2.172-3.459l3.36-.864c.136.672.357 1.2.667 1.585a2.84 2.84 0 0 0 1.187.835c.482.154 1.004.23 1.564.23.85 0 1.477-.143 1.882-.431.406-.308.609-.682.609-1.124 0-.442-.193-.778-.579-1.009-.387-.25-1.005-.451-1.854-.605l-.811-.144a15.403 15.403 0 0 1-2.751-.778c-.832-.346-1.497-.817-1.999-1.413-.502-.595-.753-1.364-.753-2.305 0-1.422.521-2.507 1.564-3.257 1.042-.768 2.414-1.152 4.113-1.152 1.602 0 2.935.355 3.997 1.066 1.062.71 1.756 1.643 2.085 2.796l-3.388 1.037c-.155-.73-.473-1.249-.956-1.556-.465-.308-1.043-.462-1.738-.462-.696 0-1.226.125-1.593.375-.367.23-.55.557-.55.98 0 .461.193.807.578 1.038.386.21.908.374 1.565.49l.81.143c1.082.193 2.057.452 2.925.779.889.307 1.584.759 2.087 1.354.52.577.781 1.364.781 2.363 0 1.499-.55 2.661-1.65 3.487-1.082.807-2.539 1.21-4.374 1.21zm13.393-.173c-1.12 0-2.104-.25-2.955-.75a5.333 5.333 0 0 1-1.94-2.132c-.463-.903-.695-1.94-.695-3.113v-8.53h3.65v8.242c0 1.076.26 1.883.782 2.421.54.538 1.303.807 2.287.807 1.121 0 1.989-.365 2.607-1.095.618-.75.927-1.787.927-3.113V16.27h3.65v14.294h-3.593V28.69h-.52c-.231.48-.667.951-1.303 1.412-.637.461-1.603.692-2.897.692zm11.07-.231V16.27h3.591v1.556h.521c.252-.48.667-.893 1.246-1.239.579-.365 1.342-.547 2.288-.547 1.023 0 1.845.201 2.462.605.617.384 1.09.893 1.419 1.527h.522a4.213 4.213 0 0 1 1.39-1.527c.599-.404 1.447-.605 2.548-.605.889 0 1.69.192 2.405.576.733.365 1.313.932 1.737 1.7.445.75.666 1.7.666 2.853v9.395h-3.649v-9.135c0-.788-.203-1.374-.608-1.758-.406-.404-.976-.605-1.709-.605-.83 0-1.477.268-1.94.806-.445.52-.666 1.269-.666 2.248v8.444h-3.65v-9.135c0-.788-.203-1.374-.608-1.758-.406-.404-.975-.605-1.709-.605-.831 0-1.478.268-1.941.806-.444.52-.666 1.269-.666 2.248v8.444h-3.649z"/><path fill="#AAA" d="M48.637 19.757c0-5.096-2.035-9.983-5.656-13.586A19.358 19.358 0 0 0 29.328.544 19.358 19.358 0 0 0 15.674 6.17a19.164 19.164 0 0 0-5.655 13.586h6.034c2 0 3.559-1.668 4.291-3.519a9.603 9.603 0 0 1 2.157-3.274 9.68 9.68 0 0 1 6.827-2.814 9.68 9.68 0 0 1 6.826 2.814 9.582 9.582 0 0 1 2.828 6.793h9.655z"/><path fill="#fff" d="M37.514 27.109a19.13 19.13 0 0 0 1.47-7.352h9.653c0 10.61-8.645 19.212-19.309 19.212-1.67 0-3.29-.21-4.836-.607a19.318 19.318 0 0 0 8.836-5.02 19.205 19.205 0 0 0 4.186-6.233z"/><path fill="#AAA" d="M.365 19.756c0 2.523.5 5.022 1.47 7.353a19.209 19.209 0 0 0 4.186 6.233 19.32 19.32 0 0 0 6.264 4.165 19.394 19.394 0 0 0 14.779 0 19.32 19.32 0 0 0 6.264-4.165 19.209 19.209 0 0 0 4.185-6.233 19.13 19.13 0 0 0 1.47-7.353H32.95c-2 0-3.559 1.668-4.291 3.519a9.603 9.603 0 0 1-2.157 3.274 9.66 9.66 0 0 1-3.132 2.083 9.697 9.697 0 0 1-10.521-2.083 9.603 9.603 0 0 1-2.093-3.116 9.566 9.566 0 0 1-.735-3.677H.365z"/><path fill="#fff" d="M.367 19.757C.367 9.146 9.012.544 19.677.544c1.669 0 3.289.21 4.834.607a19.332 19.332 0 0 0-8.837 5.02 19.165 19.165 0 0 0-5.655 13.586H.367z"/></svg>