<?xml version="1.0" encoding="UTF-8" standalone="no"?>
<!DOCTYPE svg PUBLIC "-//W3C//DTD SVG 1.1//EN" "http://www.w3.org/Graphics/SVG/1.1/DTD/svg11.dtd">
<svg width="100%" height="100%" viewBox="0 0 210 39" version="1.1" xmlns="http://www.w3.org/2000/svg" xmlns:xlink="http://www.w3.org/1999/xlink" xml:space="preserve" xmlns:serif="http://www.serif.com/" style="fill-rule:evenodd;clip-rule:evenodd;stroke-linejoin:round;stroke-miterlimit:2;">
    <g id="linak_logo.svg" transform="matrix(0.132293,0,0,0.132293,105.447,19.344)">
        <g transform="matrix(1,0,0,1,-396.85,-147.4)">
            <path d="M763,28.1L621.8,28.1C621.8,28.1 613.2,28.1 613.2,36.7L613.2,177.9C613.2,177.9 613.2,186.5 621.8,186.5L763,186.5C763,186.5 771.6,186.5 771.6,177.9L771.6,36.7C771.6,36.7 771.6,28.1 763,28.1ZM693.4,37.7L724.5,70.3C723.5,70.4 705.4,70.4 705.4,70.4L705.5,70.7L705.4,139.5L681.4,139.5L681.2,70.5L662.5,70.3L662.3,70.3L693.4,37.7ZM755.2,143.8C752.1,151.3 745.4,157.5 738.4,162.1C722.7,172.6 702.9,177 683.6,174.5C681.9,174.4 680,174 678.4,173.8L678.5,173.8L678.5,173.7C673.2,172.9 668.1,171.3 663.1,169.7C651.2,165.2 639.3,157.7 632,146.3C629.4,141.8 627.6,136.7 627.1,131.4C626.5,121.7 630.5,112.7 637,105.7C638.8,103.6 640.8,102.1 642.6,100.3L642.6,100.1C639.3,97.7 635.9,95.5 632.6,93.1L633,92.9L667.4,93L667.5,92.9L667.7,93.1L667.6,117.2L667.5,117.3L659.6,112C656.2,114.9 654.1,119 652.3,122.8C650.1,128.7 650.6,135.6 654.2,140.7C658.1,147.2 664.1,150.8 670.5,153.9C677.4,156.7 684.9,158.4 692.6,158.3C704.9,158 717.4,154 725.9,145.9C729.9,141.9 733.9,136.2 733.4,130C733.7,119.4 725.5,111.4 717.1,106.3L717.1,106L734.4,94.7C734.5,94.6 734.7,94.6 734.8,94.4C739,97.5 743.7,99.9 747.2,104.1C751.5,108.8 755.4,113.8 756.7,119.9C758.7,128 758.3,136.4 755.2,143.8Z" style="fill:white;fill-rule:nonzero;"/>
            <path d="M65.3,150.9L116,150.9L116,186.4L22.9,186.4L22.9,28.1L65.3,28.1L65.3,150.9M167.5,186.4L123.6,186.4L123.6,28L167.5,28L167.5,186.4M428.9,28L474.2,28.1C474.2,49.2 473.9,70 474.2,90.5L505.3,28.1L555.7,28.1L516,99.8L552.8,186.4L505.3,186.4L474.2,111.2L474.2,110.8L474.2,186.4L389.4,186.4L383.8,161.7L350.7,161.7L344.9,186.4L263.6,186.4L224.8,111.5L224.4,111.5L224.4,186.4L182.1,186.4L182.1,28.1L223.4,28.1L262.6,101.9L263.3,102.6C263.9,76.2 263.6,28 263.6,28L306.9,28L306.9,158.1L307.2,158.5L343.8,28L393.8,28.1L428.7,160.5C428.7,160.8 428.8,160.9 428.9,161.2L428.9,28ZM375.2,125.2L367.5,89.3L359.2,125.2L375.2,125.2M70.1,231.5C68.9,231.7 68,232 67.4,232.5C66.8,233 66.3,233.8 66,234.8C62.2,245.2 58.5,255.8 55.2,266.6L54.4,266.6C51.8,259.2 49.1,251.6 46.1,243.9L38.1,266.6L37.3,266.6C33.6,255.6 30.3,246 27.3,237.8C26.5,235.6 25.8,234 25.2,233C24.5,232.1 23.4,231.6 22,231.5L22,230.5L34.7,230.5L34.7,231.5C32.4,231.5 31.3,232.1 31.3,233.3C31.3,234.1 31.5,234.9 31.9,235.7L39.4,255.9L45,240.8L43.3,236.4C42.5,234.2 41.8,232.9 41.1,232.3C40.4,231.7 39.4,231.5 38,231.5L38,230.5L51.9,230.5L51.9,231.5C51.1,231.5 50.2,231.6 49.3,231.8C48.4,232.1 47.9,232.7 47.8,233.6C47.8,234 47.9,234.6 48.2,235.2C48.5,235.9 48.8,236.7 49.2,237.8L56,256L62.5,237.8C63,236.5 63.3,235.2 63.3,233.9C63.3,232.9 62.9,232.2 62.2,231.9C61.4,231.6 60.6,231.4 59.6,231.4L59.6,230.4L70,230.4L70,231.5M108.1,266L79.9,266L79.9,265C81.6,265 82.7,264.6 83.4,264C84.1,263.4 84.4,262.2 84.4,260.2L84.4,236.4C84.4,234.3 84.1,233 83.4,232.5C82.7,231.9 81.5,231.6 79.9,231.6L79.9,230.6L107.6,230.6L107.8,238.3L106.4,238.3C106.1,235.9 105.4,234.4 104.4,233.7C103.3,233 101.3,232.6 98.5,232.7L91.4,232.7C90.9,232.7 90.5,232.8 90.2,232.9C89.9,233.1 89.7,233.6 89.7,234.5L89.7,246.4L97.7,246.4C100,246.4 101.4,246.1 102.1,245.3C102.5,244.9 102.8,244.3 103,243.7C103.2,243.1 103.3,242.3 103.4,241.3L104.6,241.3L104.6,253.8L103.4,253.8C103.2,251.7 102.7,250.3 102,249.6C101.2,248.9 99.8,248.7 97.7,248.7L89.7,248.6L89.7,261.9C89.7,262.4 89.7,262.8 89.9,263.1C90,263.4 90.3,263.7 90.7,263.8C91.5,264.1 93.8,264.2 97.5,264.2C100.7,264.2 103.2,263.7 104.9,262.7C106.6,261.7 107.9,259.8 109,257.2L110.5,257.2L108.1,266M140.3,265C142.4,265 143.8,264.6 144.5,263.9C145.1,263.2 145.4,262 145.3,260.2L145.3,236.4C145.3,234.5 145,233.2 144.4,232.5C143.7,231.9 142.4,231.6 140.3,231.5L140.3,230.5L155.7,230.5L155.7,231.5C153.9,231.5 152.6,231.7 151.8,232.3C151,232.9 150.6,234.3 150.6,236.3L150.6,260.1C150.6,262.1 150.9,263.4 151.7,264C152.1,264.3 152.7,264.5 153.3,264.7C153.9,264.8 154.7,264.9 155.6,265L155.6,266L140.2,266L140.2,265M209.1,231.5C207.5,231.5 206.4,231.8 205.6,232.4C205.3,232.7 205,233.2 204.8,233.7C204.6,234.3 204.5,235.2 204.5,236.3L204.5,260.1C204.5,262.1 204.8,263.3 205.5,263.9C206.2,264.5 207.4,264.9 209,264.9L209,265.9L194.4,265.9L194.4,264.9C196.4,264.9 197.7,264.5 198.3,263.7C198.9,263 199.2,261.6 199.1,259.5L199.1,235.4L199,235.4L185.9,266L185.2,266L172.2,236.7L172.1,236.7L172.1,258.1C172.1,260.8 172.4,262.6 173.2,263.5C173.9,264.4 175.2,264.9 177,265L177,266L164.8,266L164.8,265C166.7,264.9 168.1,264.5 168.8,263.6C169.5,262.8 169.8,260.9 169.8,258.1L169.8,236.3C169.8,234.3 169.5,232.9 168.8,232.4C168.1,231.8 166.8,231.5 164.9,231.5L164.9,230.5L175.2,230.5L187.2,257.6L198.7,230.5L209,230.5L209,231.5M219.7,230.5L233.4,230.5C237.1,230.5 240.3,231.2 242.9,232.7C245.6,234.2 246.9,236.7 247,240.1C247,241.1 246.9,242 246.7,242.8C246.4,243.6 246.1,244.3 245.8,244.9C245.1,246.1 244.4,246.9 243.9,247.3C241.9,249.4 238.2,250.5 232.9,250.5C231.7,250.5 230.6,250.4 229.4,250.3L229.4,260.1C229.4,262 229.7,263.3 230.4,263.9C231.1,264.5 232.4,264.9 234.3,264.9L234.3,265.9L219.8,265.9L219.8,264.9C221.9,264.8 223.2,264.3 223.6,263.4C223.9,263 224,262.4 224.1,261.8L224.1,236.2C224.1,234.3 223.9,233.1 223.4,232.4C222.8,231.8 221.6,231.4 219.8,231.3L219.8,230.5L219.7,230.5ZM229.4,248.3C230.4,248.4 231.4,248.5 232.5,248.5C233,248.5 233.8,248.5 234.8,248.3C235.7,248.2 236.7,247.9 237.7,247.4C238.7,246.9 239.6,246.1 240.3,244.9C241,243.8 241.3,242.2 241.4,240.2C241.4,238.3 241,236.8 240.2,235.7C239.4,234.6 238.5,233.9 237.3,233.4C236.2,232.9 235.1,232.6 234,232.5C232.9,232.4 232.1,232.4 231.5,232.4C230.7,232.4 230.2,232.5 229.9,232.6C229.6,232.8 229.4,233.3 229.4,234.2L229.4,248.3M290.1,266L281.6,266L269.2,249.4L266.3,249.5L266.3,260.1C266.3,261.8 266.5,263 267.1,263.8C267.6,264.5 268.9,264.9 270.9,265L270.9,266L256.5,266L256.5,265C258.5,264.9 259.8,264.4 260.3,263.7C260.6,263.3 260.8,262.7 260.9,262C260.9,261.4 261,260.6 261,259.6L261,236.4C261,234.5 260.8,233.2 260.2,232.6C259.6,232 258.4,231.7 256.6,231.6L256.6,230.6L271,230.6C272.2,230.6 273.6,230.7 275.1,230.9C276.6,231.1 278,231.5 279.4,232.2C280.8,232.8 281.9,233.8 282.9,235C283.8,236.3 284.2,237.9 284.2,240C284.2,241.8 283.8,243.2 283.2,244.3C282.5,245.4 281.6,246.3 280.6,247C280.1,247.3 279.6,247.6 279.1,247.8C278.6,248 278.1,248.2 277.5,248.3C276.4,248.6 275.5,248.9 274.9,249L285.6,262.6C286.2,263.3 286.8,263.9 287.5,264.3C288.2,264.8 289.1,265 290.1,265.1L290.1,266ZM266.4,247.6C267.5,247.6 268.8,247.5 270.2,247.3C271.6,247.2 272.9,246.9 274.2,246.5C275.5,246 276.5,245.3 277.4,244.2C278.2,243.1 278.6,241.7 278.6,239.8C278.6,238 278.2,236.6 277.6,235.6C276.9,234.6 276,233.9 275,233.4C274,232.9 273,232.7 272,232.6C271,232.5 270.3,232.5 269.7,232.5C268.4,232.5 267.5,232.6 267.1,232.8C266.7,233.1 266.5,233.6 266.5,234.4L266.5,247.6M315.1,266.8C310.3,266.8 306.3,265.1 303.1,261.8C299.8,258.6 298.2,254.1 298.1,248.3C298.2,242.1 300,237.5 303.5,234.4C306.8,231.3 310.7,229.8 315.1,229.8C319.5,229.8 323.5,231.3 326.9,234.4C330.3,237.5 332.1,242.2 332.2,248.3C332.1,254.1 330.5,258.6 327.2,261.8C324,265.1 320,266.8 315.1,266.8ZM315.1,264.8C318.1,264.8 320.7,263.5 322.8,260.9C324.9,258.3 326.1,254.1 326.1,248.2C326,242.2 324.9,237.9 322.6,235.3C320.3,232.8 317.8,231.6 315,231.6C312.2,231.6 309.7,232.8 307.5,235.3C305.2,237.9 304,242.2 303.9,248.2C303.9,254.1 305.1,258.3 307.3,260.9C309.6,263.6 312.2,264.9 315.1,264.8M375.7,231.5C374.5,231.5 373.6,231.8 373,232.5C372.3,233.2 371.6,234.5 370.9,236.5L359.3,266.6L358.5,266.6L345.7,237.1C344.7,234.7 343.8,233.2 343.1,232.4C342.3,231.7 341.4,231.4 340.2,231.4L340.2,230.4L354,230.4L354,231.4C352.6,231.4 351.6,231.5 351,231.8C350.4,232 350.1,232.6 350.1,233.4C350.1,233.8 350.3,234.5 350.8,235.5C351.2,236.5 351.7,237.7 352.3,239.1L360.2,257.2L367.8,237.5C367.9,237.3 368.1,236.7 368.4,235.9C368.6,235.1 368.8,234.4 368.8,233.7C368.8,232.6 368.4,232 367.7,231.7C366.9,231.4 366,231.3 364.9,231.3L364.9,230.3L375.7,230.3L375.7,231.5M414,266L385.8,266L385.8,265C387.5,265 388.6,264.6 389.3,264C390,263.4 390.3,262.2 390.3,260.2L390.3,236.4C390.3,234.3 390,233 389.3,232.5C388.6,231.9 387.4,231.6 385.8,231.6L385.8,230.6L413.5,230.6L413.7,238.3L412.3,238.3C412,235.9 411.3,234.4 410.3,233.7C409.2,233 407.2,232.6 404.4,232.7L397.3,232.7C396.8,232.7 396.4,232.8 396,232.9C395.7,233.1 395.5,233.6 395.5,234.5L395.5,246.4L403.5,246.4C405.8,246.4 407.2,246.1 407.9,245.3C408.3,244.9 408.6,244.3 408.8,243.7C409,243.1 409.1,242.3 409.2,241.3L410.4,241.3L410.4,253.8L409.2,253.8C409,251.7 408.5,250.3 407.8,249.6C407,248.9 405.6,248.7 403.5,248.7L395.5,248.6L395.5,261.9C395.5,262.4 395.5,262.8 395.7,263.1C395.8,263.4 396.1,263.7 396.5,263.8C397.3,264.1 399.6,264.2 403.3,264.2C406.5,264.2 409,263.7 410.7,262.7C412.4,261.7 413.7,259.8 414.8,257.2L416.3,257.2L414,266M477.1,231.5C476.6,231.5 476.2,231.6 475.7,231.7C475.3,231.9 474.7,232.1 474.2,232.5C473.7,232.9 473.1,233.5 472.4,234.3C471.7,235.1 470.9,236.3 470,237.7L462.3,249.8L462.3,260.2C462.3,262.1 462.6,263.4 463.3,264C464,264.6 465.4,265 467.7,265L467.7,266L451.8,266L451.8,265C454.3,265 455.8,264.5 456.4,263.7C456.8,263.3 457,262.7 457,262C457,261.4 457.1,260.5 457.1,259.5L457.1,250.2L450.3,239.9C447.8,236 446,233.6 445,232.7C444.4,232.2 443.9,231.8 443.5,231.7C443,231.6 442.5,231.5 441.9,231.5L441.9,230.5L456.5,230.5L456.5,231.5C455.3,231.5 454.4,231.6 453.8,231.8C453.1,232 452.8,232.5 452.8,233.2C452.8,233.5 452.9,233.8 453.1,234.3L453.7,235.5L461.4,247.4L468.9,235.3C469.3,234.7 469.6,234.1 469.6,233.3C469.6,232.5 469.2,232 468.5,231.7C467.7,231.6 466.9,231.5 466.1,231.5L466.1,230.5L477.5,230.5L477.5,231.5M503.4,266.8C498.6,266.8 494.6,265.1 491.4,261.8C488.1,258.6 486.5,254.1 486.4,248.3C486.5,242.1 488.3,237.5 491.8,234.4C495.1,231.3 499,229.8 503.4,229.8C507.8,229.8 511.8,231.3 515.2,234.4C518.6,237.5 520.4,242.2 520.5,248.3C520.4,254.1 518.8,258.6 515.5,261.8C512.3,265.1 508.2,266.8 503.4,266.8ZM503.4,264.8C506.4,264.8 509,263.5 511.1,260.9C513.2,258.3 514.4,254.1 514.4,248.2C514.3,242.2 513.2,237.9 510.9,235.3C508.6,232.8 506.1,231.6 503.3,231.6C500.5,231.6 498,232.8 495.8,235.3C493.5,237.9 492.3,242.2 492.2,248.2C492.2,254.1 493.4,258.3 495.6,260.9C497.9,263.6 500.4,264.9 503.4,264.8M567.1,231.5C565.2,231.6 563.9,232.1 563.2,233C562.5,233.9 562.2,235.7 562.2,238.4L562.2,252.4C562.2,253.5 562.1,254.8 562,256.4C561.8,258 561.3,259.6 560.6,261.2C559.8,262.7 558.5,264 556.6,265.1C554.7,266.2 552.1,266.7 548.7,266.8C545.5,266.8 543,266.2 541.2,265C539.4,263.9 538.2,262.6 537.3,261.1C536.5,259.6 536.1,258 535.9,256.5C535.7,255.1 535.7,253.9 535.7,253L535.7,236.3C535.7,234.4 535.5,233.1 534.9,232.4C534.3,231.8 533,231.5 531.1,231.4L531.1,230.4L545.8,230.4L545.8,231.4C543.8,231.5 542.5,231.8 541.9,232.5C541.3,233.1 541,234.4 541.1,236.3L541.1,253.5C541.1,254.4 541.1,255.4 541.2,256.6C541.3,257.8 541.7,259 542.2,260.2C542.8,261.3 543.7,262.3 545,263.1C546.2,264 547.9,264.4 550.2,264.4C554.4,264.3 557.2,262.9 558.8,260.1C559.2,259.6 559.5,258.7 559.7,257.6C559.9,256.5 560,254.9 560,252.8L560,238.3C560,235.5 559.7,233.6 559,232.8C558.6,232.3 558.1,232 557.5,231.8C556.9,231.6 556.1,231.5 555.2,231.5L555.2,230.5L567.2,230.5L567.2,231.5M610.5,266L602,266L589.6,249.4L586.7,249.5L586.7,260.1C586.7,261.8 586.9,263 587.5,263.8C588,264.5 589.3,264.9 591.3,265L591.3,266L577,266L577,265C579,264.9 580.3,264.4 580.8,263.7C581.1,263.3 581.3,262.7 581.4,262L581.4,236.4C581.4,234.5 581.2,233.2 580.6,232.6C580,232 578.8,231.7 577,231.6L577,230.6L591.3,230.6C592.5,230.6 593.9,230.7 595.4,230.9C596.9,231.1 598.3,231.5 599.7,232.2C601.1,232.8 602.2,233.8 603.2,235C604.1,236.3 604.5,237.9 604.5,240C604.5,241.8 604.1,243.2 603.5,244.3C602.8,245.4 601.9,246.3 600.9,247C600.4,247.3 599.9,247.6 599.4,247.8C598.9,248 598.4,248.2 597.9,248.3C596.8,248.6 595.9,248.9 595.3,249L606,262.6C606.6,263.3 607.2,263.9 607.9,264.3C608.6,264.8 609.5,265 610.5,265.1L610.5,266ZM586.7,247.6C587.8,247.6 589.1,247.5 590.5,247.3C591.9,247.2 593.2,246.9 594.5,246.5C595.8,246 596.8,245.3 597.7,244.2C598.5,243.1 598.9,241.7 598.9,239.8C598.9,238 598.5,236.6 597.9,235.6C597.2,234.6 596.3,233.9 595.3,233.4C594.3,232.9 593.3,232.7 592.3,232.6C591.3,232.5 590.6,232.5 590,232.5C588.7,232.5 587.8,232.6 587.4,232.8C587,233.1 586.8,233.6 586.8,234.4L586.8,247.6M654.5,231.5C652.8,231.5 651.5,231.8 650.8,232.4C650,233 649.7,234.3 649.7,236.4L649.7,261.8C649.7,262.8 650,263.5 650.7,263.7C651.4,264 652.8,264.1 654.9,264C656.9,264 658.6,263.9 660,263.8C661.5,263.7 662.7,263.5 663.8,263C665.9,262.2 667.6,260.1 669,256.8L670.3,256.8L667.8,266.2L639.8,266.2L639.8,265.2C641.4,265.2 642.6,264.8 643.3,264.2C644,263.6 644.3,262.4 644.3,260.4L644.3,236.6C644.3,234.5 644,233.2 643.3,232.7C642.6,232.1 641.4,231.8 639.8,231.8L639.8,230.8L654.4,230.8L654.4,231.5M679.9,265C682,265 683.5,264.6 684.1,263.9C684.7,263.2 685,262 684.9,260.2L684.9,236.4C684.9,234.5 684.6,233.2 684,232.5C683.3,231.9 682,231.6 679.8,231.5L679.8,230.5L695.2,230.5L695.2,231.5C693.4,231.5 692.1,231.7 691.3,232.3C690.5,232.9 690.1,234.3 690.1,236.3L690.1,260.1C690.1,262.1 690.4,263.4 691.2,264C691.6,264.3 692.2,264.5 692.8,264.7C693.4,264.8 694.2,264.9 695.1,265L695.1,266L679.7,266L679.7,265M727.5,253.7C727.2,251.5 726.7,250.1 725.9,249.5C725.1,248.8 723.7,248.6 721.8,248.6L714.3,248.5L714.3,260.3C714.3,262.2 714.6,263.5 715.3,264.1C716,264.7 717.2,265.1 719,265.1L719,266.1L704.5,266.1L704.5,265.1C706.4,265.1 707.7,264.7 708.2,263.9C708.8,263.2 709,261.8 709,259.7L709,236.5C709,234.4 708.7,233.1 708,232.6C707.3,232 706.1,231.7 704.5,231.7L704.5,230.7L732.2,230.7L732.4,238.4L731,238.4C730.7,236 730,234.5 729,233.8C727.9,233.1 725.9,232.7 723.1,232.8L716,232.8C715.4,232.8 714.9,232.9 714.7,233.1C714.5,233.4 714.3,233.9 714.3,234.7L714.3,246.6L721.8,246.6C723.9,246.6 725.3,246.3 726,245.5C726.8,244.8 727.3,243.4 727.5,241.5L728.7,241.5L728.7,254L727.5,254M769.5,266L741.3,266L741.3,265C742.9,265 744.1,264.6 744.8,264C745.5,263.4 745.8,262.2 745.8,260.2L745.8,236.4C745.8,234.3 745.5,233 744.8,232.5C744.1,231.9 742.9,231.6 741.3,231.6L741.3,230.6L769,230.6L769.2,238.3L767.8,238.3C767.5,235.9 766.9,234.4 765.8,233.7C764.7,233 762.7,232.6 759.9,232.7L752.8,232.7C752.3,232.7 751.9,232.8 751.6,232.9C751.3,233.1 751.1,233.6 751.1,234.5L751.1,246.4L759.1,246.4C761.4,246.4 762.8,246.1 763.5,245.3C763.9,244.9 764.2,244.3 764.4,243.7C764.6,243.1 764.7,242.3 764.8,241.3L766,241.3L766,253.8L764.8,253.8C764.6,251.7 764.1,250.3 763.4,249.6C762.6,248.9 761.2,248.7 759.1,248.7L751.1,248.6L751.1,261.9C751.1,262.4 751.1,262.8 751.3,263.1C751.4,263.4 751.7,263.7 752.1,263.8C752.9,264.1 755.2,264.2 758.9,264.2C762.1,264.2 764.6,263.7 766.3,262.7C768,261.7 769.3,259.8 770.4,257.2L771.9,257.2L769.5,266" style="fill:white;fill-rule:nonzero;"/>
            <path d="M22.9,200L771.6,200L771.6,201.8L22.9,201.8L22.9,200ZM570.2,42.2C570.2,34.1 576.8,28.1 584.5,28.1C592.2,28.1 598.8,34.1 598.8,42.2C598.8,50.4 592.2,56.4 584.5,56.4C576.7,56.3 570.2,50.4 570.2,42.2ZM584.5,54.9C591.4,54.9 596.9,49.5 596.9,42.1C596.9,34.9 591.4,29.4 584.5,29.4C577.5,29.4 572.1,34.9 572.1,42.1C572.1,49.5 577.5,54.9 584.5,54.9ZM581.5,50.5L579,50.5L579,33.9L585.3,33.9C589.2,33.9 591.2,35.3 591.2,38.6C591.2,41.6 589.3,42.9 586.9,43.2L591.6,50.5L588.8,50.5L584.4,43.3L581.5,43.3L581.5,50.5ZM584.5,41.2C586.6,41.2 588.5,41 588.5,38.5C588.5,36.4 586.6,36.1 584.9,36.1L581.5,36.1L581.5,41.2L584.5,41.2" style="fill:white;fill-rule:nonzero;"/>
        </g>
    </g>
</svg>
