<?xml version="1.0" encoding="UTF-8" standalone="no"?>
<!DOCTYPE svg PUBLIC "-//W3C//DTD SVG 1.1//EN" "http://www.w3.org/Graphics/SVG/1.1/DTD/svg11.dtd">
<svg width="100%" height="100%" viewBox="0 0 40 39" version="1.1" xmlns="http://www.w3.org/2000/svg" xmlns:xlink="http://www.w3.org/1999/xlink" xml:space="preserve" xmlns:serif="http://www.serif.com/" style="fill-rule:evenodd;clip-rule:evenodd;stroke-linejoin:round;stroke-miterlimit:2;">
    <g id="logo-en.svg" transform="matrix(0.556348,0,0,0.556348,20.4465,19.5)">
        <g transform="matrix(1,0,0,1,-34.45,-35.05)">
            <clipPath id="_clip1">
                <rect x="0" y="0" width="68.9" height="70.1"/>
            </clipPath>
            <g clip-path="url(#_clip1)">
                <g transform="matrix(1,0,0,1,898.762,-111.042)">
                    <path d="M-844.7,117.7C-833.7,123.8 -830,134.6 -830,148.3C-830,161.5 -837.4,171.9 -844.7,175.7C-850.1,178.5 -855.7,181.1 -862.2,181.1C-867.7,181.1 -876,179.6 -880.7,177.3C-888.4,173.5 -893.8,169.4 -896.1,161C-897.5,156.5 -898.4,151.8 -898.9,147C-899.6,137.1 -894,125.4 -887.6,118.9C-881.2,112.4 -873.3,111 -863.5,111C-857.4,111 -849.7,114.9 -844.7,117.7ZM-858.8,154C-859.9,154.6 -860.3,154.2 -860.4,154.1C-860.5,154 -860.6,153.9 -860.6,153.5C-860.5,148.3 -860.5,145.7 -860.5,145.2C-860.5,145.1 -860.6,145.1 -860.6,145.1L-862.9,145.2C-863,145.2 -863.1,145.2 -863.1,145.3L-863.1,153.1C-863.2,155.4 -861.9,156.1 -861.5,156.3L-860.3,156.6L-859.3,156.6C-859,156.6 -858.8,156.5 -858.5,156.4L-858,156.2C-858.1,155.9 -858.5,154.6 -858.8,154ZM-872.8,170C-873,169.8 -873.2,169.7 -873.1,170.1C-873.4,170.4 -873.1,170 -873.5,170.7C-873.6,170.9 -873.6,171.1 -873.5,171.2C-870.6,173.8 -867.3,174.7 -863.3,174.9C-859.6,174.9 -856,173.8 -853,171.6C-852.8,171.5 -852.8,171.3 -852.9,171.2L-854,169.7C-854.1,169.6 -854.3,169.5 -854.4,169.6C-855.9,170.6 -864,176.1 -872.8,170ZM-855.6,161C-856,160.6 -856.4,160.3 -856.9,160.1C-857.4,159.9 -858,159.8 -858.5,159.8C-859.1,159.8 -859.6,159.9 -860.1,160.1C-860.6,160.3 -861,160.6 -861.4,161C-861.8,161.4 -862.1,161.9 -862.3,162.4C-862.5,163 -862.6,163.6 -862.6,164.2C-862.6,164.8 -862.5,165.4 -862.3,165.9C-862.1,166.4 -861.8,166.9 -861.4,167.3C-861,167.7 -860.6,168 -860.1,168.2C-859.6,168.4 -859,168.5 -858.5,168.5C-857.9,168.5 -857.4,168.4 -856.9,168.2C-856.4,168 -856,167.7 -855.6,167.3C-855.2,166.9 -854.9,166.4 -854.7,165.9C-854.5,165.3 -854.4,164.7 -854.4,164.1C-854.4,163.5 -854.5,162.9 -854.7,162.3C-855,161.8 -855.3,161.4 -855.6,161ZM-856.9,165.1C-857,165.3 -857.1,165.6 -857.3,165.8C-857.5,166 -857.6,166.1 -857.9,166.2C-858.1,166.3 -858.4,166.4 -858.7,166.3C-858.9,166.3 -859.2,166.2 -859.4,166.1C-859.6,166 -859.8,165.8 -860,165.6C-860.2,165.4 -860.3,165.2 -860.4,164.9C-860.5,164.6 -860.5,164.3 -860.5,164C-860.5,163.4 -860.4,162.9 -860,162.4C-859.7,162 -859.2,161.8 -858.7,161.9C-858.5,161.9 -858.2,162 -858,162.1C-857.8,162.2 -857.6,162.4 -857.4,162.6C-857.2,162.8 -857.1,163 -857,163.3C-856.9,163.6 -856.9,163.9 -856.9,164.2C-856.7,164.4 -856.8,164.8 -856.9,165.1ZM-864.2,152.9L-864.7,153C-865,153 -865,152.6 -865,152.5L-865.1,147.9C-865.1,147.8 -865.1,147.8 -865.2,147.8C-865.2,147.8 -867.9,147.5 -868.3,147.5C-868.8,147.5 -869.3,147.6 -869.7,147.8C-870.1,148 -870.5,148.3 -870.8,148.6C-871.1,149 -871.3,149.4 -871.5,149.8C-871.7,150.3 -871.7,150.8 -871.7,151.3C-871.7,151.8 -871.6,152.3 -871.4,152.8C-871.2,153.2 -871,153.6 -870.7,154C-870.4,154.3 -870,154.6 -869.6,154.8C-869.2,155 -868.7,155.1 -868.3,155.1C-868,155.1 -867.8,155.1 -867.5,155C-867.3,154.9 -867,154.8 -866.8,154.7C-866.7,154.6 -866.6,154.6 -866.5,154.5C-866,155.1 -864.6,154.9 -864.4,154.9C-864.2,154.9 -864.2,154.9 -864.2,154.7L-864.2,153.2C-864.1,153 -864.2,153 -864.2,152.9ZM-867.2,152.5C-867.3,152.6 -867.4,152.7 -867.6,152.8C-867.9,153 -868.3,153 -868.7,152.8C-868.9,152.7 -869,152.6 -869.1,152.5C-869.2,152.3 -869.3,152.2 -869.4,152C-869.5,151.8 -869.5,151.5 -869.5,151.3C-869.5,151.1 -869.5,150.8 -869.4,150.6C-869.3,150.4 -869.2,150.2 -869.1,150.1C-869,150 -868.9,149.9 -868.7,149.8C-868.5,149.7 -868.4,149.7 -868.2,149.7C-868,149.7 -867.8,149.7 -867.6,149.8C-867.5,149.8 -867.4,149.9 -867.3,149.9L-867.2,152.5ZM-877.6,155.9C-878.2,155.8 -878.8,155.9 -879.3,156C-879.8,156.2 -880.3,156.4 -880.8,156.8C-881.2,157.2 -881.6,157.6 -881.9,158.2C-882.2,158.8 -882.4,159.4 -882.5,160C-882.6,160.6 -882.6,161.3 -882.4,162C-882.3,162.6 -882,163.1 -881.7,163.5C-881.4,163.9 -881,164.3 -880.5,164.6C-880,164.9 -879.5,165 -879,165.1C-878.4,165.2 -877.8,165.1 -877.3,164.9C-877.4,165.5 -877.4,168.6 -880.3,167.8C-881.4,167.5 -882.7,165.7 -883,165C-883,164.9 -883.1,164.9 -883.2,165C-883.3,165.1 -884.7,166.7 -884.7,166.7L-884.7,166.9C-883.7,168.7 -882.1,170 -880.1,170.6C-877.6,171 -875.4,170 -874.8,165C-874.4,162.1 -873.7,156.7 -873.7,156.7C-873.7,156.7 -877.1,155.9 -877.6,155.9ZM-877,162.4L-877.6,162.7C-877.9,162.8 -878.2,162.8 -878.5,162.8C-878.7,162.8 -879,162.7 -879.2,162.6C-879.4,162.5 -879.6,162.3 -879.7,162.1C-879.9,161.9 -880,161.6 -880,161.3C-880.1,161 -880.1,160.6 -880,160.3C-880,160 -879.9,159.6 -879.7,159.3C-879.6,159.1 -879.4,158.8 -879.2,158.6C-879,158.4 -878.8,158.3 -878.6,158.3C-878.4,158.2 -878.1,158.2 -877.9,158.2C-877.6,158.2 -877.3,158.3 -877,158.5C-876.8,158.6 -876.7,158.7 -876.6,158.8L-877,162.4ZM-848.1,147.9C-847.8,147.8 -847.5,147.8 -847.2,147.9C-847.1,148 -847,147.9 -847,147.8C-846.9,147.5 -846.7,146.8 -846.7,146.7C-846.7,146.5 -846.6,146.5 -846.8,146.5C-847.5,146.3 -848.2,146.3 -848.9,146.6C-849.1,146.7 -849.4,146.9 -849.5,147.1C-849.7,147.3 -849.8,147.5 -849.9,147.8C-850,148.1 -850,148.4 -850,148.8L-850.6,148.8C-850.7,148.8 -850.7,149 -850.7,149L-850.7,150.3C-850.7,150.3 -850.7,150.4 -850.6,150.4L-850,150.4L-849.9,154C-849.9,154 -849.9,154.2 -849.8,154.2C-849.7,154.2 -848.6,154.1 -848.4,154.1C-848.2,154.1 -848.3,153.9 -848.3,153.9L-848.4,150.4C-848.4,150.4 -847.3,150.3 -847.2,150.3C-847.1,150.3 -847.1,150.3 -847.1,150.1L-847.1,148.9C-847.1,148.9 -847.1,148.8 -847.2,148.8L-848.5,148.8C-848.5,148.4 -848.4,148.1 -848.1,147.9ZM-841.6,148.8C-841.9,148.6 -842.2,148.4 -842.5,148.3C-843.2,148.1 -844,148.1 -844.6,148.4C-844.9,148.6 -845.2,148.8 -845.4,149C-845.6,149.3 -845.8,149.6 -845.9,149.9C-846,150.3 -846.1,150.7 -846.1,151.1C-846.1,151.5 -846,151.9 -845.9,152.2C-845.8,152.5 -845.6,152.8 -845.3,153.1C-845,153.3 -844.7,153.5 -844.4,153.6C-844.1,153.7 -843.7,153.8 -843.3,153.7C-842.9,153.7 -842.6,153.6 -842.2,153.4C-841.9,153.2 -841.6,153 -841.4,152.8C-841.2,152.5 -841,152.2 -840.9,151.8C-840.8,151.4 -840.7,151 -840.7,150.6C-840.7,150.2 -840.8,149.8 -841,149.5C-841.2,149.3 -841.4,149 -841.6,148.8ZM-842.5,151.5C-842.5,151.6 -842.6,151.8 -842.7,151.9L-843,152.2C-843.3,152.3 -843.6,152.4 -843.8,152.3C-843.9,152.2 -844,152.2 -844.1,152.1C-844.2,152 -844.3,151.8 -844.3,151.7C-844.4,151.5 -844.4,151.4 -844.4,151.2C-844.4,150.9 -844.3,150.5 -844.2,150.2C-844,150 -843.7,149.8 -843.5,149.8C-843.4,149.8 -843.2,149.8 -843.1,149.9C-843,150 -842.9,150 -842.8,150.1C-842.7,150.2 -842.6,150.3 -842.6,150.5C-842.5,150.7 -842.5,150.8 -842.5,151C-842.4,151.1 -842.4,151.3 -842.5,151.5ZM-844.7,168.8C-844.5,168.8 -844.4,168.7 -844.3,168.6C-844.2,168.4 -843.5,167 -843.5,166.8C-843.5,166.7 -843.5,166.6 -843.6,166.6L-844.2,166.5C-844.5,166.4 -844.5,166.2 -844.5,165.8C-844.5,165.7 -842.7,155.9 -842.6,155.7C-842.6,155.6 -842.6,155.6 -842.7,155.5C-842.8,155.5 -844.8,155.2 -845,155.2C-845.1,155.2 -845.1,155.2 -845.2,155.4C-845.2,155.6 -845.9,159 -845.9,159.1L-845.9,159.2L-846,159.1C-846.5,158.8 -847,158.6 -847.6,158.5C-848.2,158.4 -848.8,158.5 -849.3,158.6C-849.9,158.8 -850.4,159.1 -850.8,159.4C-851.3,159.8 -851.7,160.3 -852,160.8C-852.3,161.4 -852.6,162 -852.7,162.7C-852.8,163.4 -852.8,164 -852.7,164.7C-852.6,165.3 -852.4,165.8 -852.1,166.3C-851.8,166.8 -851.4,167.2 -850.9,167.5C-850.4,167.8 -849.9,168 -849.3,168.1C-848.6,168.2 -848,168.1 -847.3,167.9C-847.1,167.8 -846.9,167.7 -846.8,167.6L-846.7,167.6L-846.7,167.7C-846.4,168.7 -844.7,168.8 -844.7,168.8ZM-847,165.4C-847.2,165.5 -847.4,165.7 -847.6,165.7C-847.7,165.7 -847.9,165.8 -848,165.8C-848.4,165.8 -848.8,165.7 -849.1,165.5C-849.3,165.4 -849.5,165.2 -849.6,164.9C-849.7,164.7 -849.8,164.4 -849.9,164.1L-849.9,163.1C-849.8,162.8 -849.7,162.4 -849.6,162.1C-849.5,161.8 -849.3,161.6 -849.1,161.4C-848.9,161.2 -848.7,161.1 -848.4,161C-848.1,160.9 -847.9,160.9 -847.6,160.9C-847.3,160.9 -847,161.1 -846.8,161.3C-846.6,161.4 -846.5,161.6 -846.4,161.8L-847,165.4ZM-877.5,148.1L-877.5,147.8L-879.4,147.8C-879.5,147.8 -879.6,147.9 -879.6,148L-879.6,154.5C-879.6,154.6 -879.5,154.6 -879.4,154.6L-877.6,154.6C-877.5,154.6 -877.5,154.5 -877.5,154.4L-877.5,151.6C-877.5,151.2 -877.5,150.2 -876.7,149.8C-876.3,149.7 -875.9,149.7 -875.6,149.9C-875.5,149.9 -875.4,149.9 -875.4,149.8C-875.4,149.7 -874.9,148.2 -874.9,148C-874.9,147.9 -874.9,147.9 -875.1,147.8C-875.8,147.5 -876.8,147.6 -877.5,148.1ZM-865.1,161.7C-865.5,161.3 -865.9,161 -866.4,160.8C-866.9,160.6 -867.5,160.5 -868,160.5C-868.6,160.5 -869.1,160.6 -869.6,160.8C-870.1,161 -870.5,161.3 -870.9,161.7C-871.3,162.1 -871.6,162.6 -871.8,163.1C-872,163.7 -872.1,164.3 -872.1,164.9C-872.1,165.5 -872,166.1 -871.8,166.6C-871.6,167.1 -871.3,167.6 -870.9,168C-870.5,168.4 -870.1,168.7 -869.6,168.9C-869.1,169.1 -868.5,169.2 -868,169.2C-867.4,169.2 -866.9,169.1 -866.4,168.9C-865.9,168.7 -865.5,168.4 -865.1,168C-864.7,167.6 -864.4,167.1 -864.2,166.6C-864,166 -863.9,165.4 -863.9,164.8C-863.9,164.2 -864,163.6 -864.2,163C-864.4,162.5 -864.7,162.1 -865.1,161.7ZM-866.3,165.7C-866.4,165.9 -866.5,166.2 -866.7,166.4C-866.9,166.6 -867,166.7 -867.3,166.8C-867.5,166.9 -867.8,167 -868.1,166.9C-868.3,166.9 -868.6,166.8 -868.8,166.7C-869,166.6 -869.2,166.4 -869.4,166.2C-869.6,166 -869.7,165.8 -869.8,165.5C-869.9,165.2 -869.9,164.9 -869.9,164.6C-869.9,164 -869.8,163.5 -869.4,163C-869.1,162.6 -868.6,162.4 -868.1,162.5C-867.9,162.5 -867.6,162.6 -867.4,162.7C-867.2,162.8 -867,163 -866.8,163.2C-866.6,163.4 -866.5,163.6 -866.4,163.9C-866.3,164.2 -866.3,164.5 -866.3,164.8C-866.2,165.1 -866.2,165.4 -866.3,165.7ZM-835.8,130.9L-835.9,130.8C-838.9,130.7 -841.5,132.8 -842,135.7L-842,135.8L-841.9,135.9L-841.8,135.9C-836,136.1 -835.8,131 -835.8,130.9ZM-836.2,148C-836.9,147.8 -837.6,147.9 -838.1,148.3L-838.1,148.1C-838.1,148.1 -839.4,148.2 -839.6,148.2C-839.7,148.2 -839.7,148.3 -839.7,148.3C-839.7,148.3 -839.5,153.3 -839.5,153.5C-839.5,153.7 -839.4,153.7 -839.4,153.7C-839.4,153.7 -838.2,153.6 -838,153.6C-837.9,153.6 -837.9,153.5 -837.9,153.4C-837.9,153.3 -838,151 -838,151C-838,150.8 -838,150.6 -837.9,150.3C-837.9,150.2 -837.8,150 -837.7,149.9C-837.6,149.8 -837.5,149.7 -837.4,149.7C-837.1,149.6 -836.8,149.6 -836.6,149.6C-836.5,149.6 -836.4,149.6 -836.4,149.5C-836.4,149.4 -836.1,148.4 -836.1,148.3C-836.1,148.1 -836.1,148 -836.2,148ZM-882,148.7C-882.3,148.4 -882.7,148.1 -883.1,148C-884,147.7 -884.9,147.7 -885.7,148C-886.1,148.2 -886.5,148.4 -886.8,148.7C-887.1,149 -887.4,149.4 -887.5,149.8C-887.7,150.3 -887.8,150.8 -887.8,151.3C-887.8,151.8 -887.7,152.3 -887.5,152.7C-887.3,153.1 -887.1,153.5 -886.8,153.8C-886.5,154.1 -886.1,154.4 -885.7,154.5C-885.3,154.7 -884.8,154.8 -884.4,154.8C-883.9,154.8 -883.5,154.7 -883.1,154.5C-882.7,154.3 -882.3,154.1 -882,153.8C-881.7,153.5 -881.4,153.1 -881.3,152.7C-881.1,152.2 -881,151.8 -881,151.3C-881,150.8 -881.1,150.3 -881.3,149.9C-881.5,149.4 -881.7,149 -882,148.7ZM-883.1,152C-883.2,152.2 -883.3,152.4 -883.4,152.5C-883.5,152.6 -883.7,152.7 -883.8,152.8C-884,152.9 -884.2,152.9 -884.4,152.9C-884.6,152.9 -884.8,152.9 -884.9,152.8C-885.1,152.7 -885.2,152.6 -885.4,152.4C-885.5,152.2 -885.6,152.1 -885.7,151.8C-885.8,151.6 -885.8,151.3 -885.8,151.1C-885.8,150.6 -885.7,150.2 -885.4,149.8C-885.1,149.5 -884.8,149.4 -884.4,149.4C-884.2,149.4 -884,149.4 -883.9,149.5C-883.7,149.6 -883.6,149.7 -883.4,149.9C-883.3,150.1 -883.2,150.2 -883.1,150.4C-883,150.6 -883,150.8 -883,151.1C-883,151.5 -883.1,151.7 -883.1,152ZM-891.148,143.739C-891.848,144.739 -892.348,146.039 -892.348,147.339L-893.248,147.339C-893.248,147.339 -893.348,147.339 -893.348,147.439C-893.348,147.539 -893.248,149.039 -893.248,148.939C-893.248,148.939 -893.248,149.039 -893.148,149.039L-892.548,149.039C-892.548,151.139 -892.248,153.139 -891.748,155.139L-891.648,155.239C-891.148,155.139 -890.648,155.039 -889.948,154.939C-889.848,154.939 -889.848,154.839 -889.848,154.839C-890.448,152.839 -890.648,150.839 -890.548,148.939L-889.148,148.939C-889.148,148.939 -889.048,148.939 -889.048,148.839C-889.048,148.739 -888.948,147.439 -888.948,147.339C-888.948,147.239 -888.948,147.239 -889.048,147.239L-890.348,147.239C-890.348,146.439 -890.148,145.539 -889.648,144.939C-889.348,144.539 -888.348,144.539 -888.048,144.739C-887.948,144.739 -887.948,144.739 -887.848,144.639C-887.748,144.339 -887.548,143.539 -887.548,143.439C-887.548,143.339 -887.548,143.239 -887.648,143.239C-888.748,142.639 -890.248,142.739 -891.148,143.739ZM-852.9,154C-854,154.6 -854.4,154.5 -854.6,154.4C-854.7,154.3 -854.8,154.2 -854.8,153.8C-854.7,148.6 -854.8,147.6 -854.8,147.1C-854.8,147 -854.9,147 -854.9,147L-857.2,147.1C-857.3,147.1 -857.4,147.1 -857.4,147.2C-857.4,148.1 -857.3,151.4 -857.4,153.4C-857.5,155.7 -856.2,156.4 -855.8,156.6L-854.6,156.9L-853.6,156.9C-853.3,156.9 -853.1,156.8 -852.8,156.7L-852.3,156.5C-852.3,156.2 -852.7,154.7 -852.9,154ZM-841.3,128.9C-841.4,128 -841.7,127.2 -842.2,126.5C-842.7,125.7 -843.7,125.3 -844.6,125.4C-845.3,125.5 -845.8,126.1 -845.8,126.9C-845.8,127.7 -845.3,128.5 -844.5,128.7C-843.8,129 -843.3,129.5 -843,130.1C-842.6,130.8 -842.5,131.6 -842.7,132.4L-842.7,132.6L-842.5,132.6C-841.6,131.5 -841.2,130.2 -841.3,128.9ZM-842.5,137.8C-842.5,137.7 -842.7,137.3 -843,137.5C-843,137.5 -845.9,139.5 -847.6,138.1C-848,137.8 -848,136.8 -848,135.4C-848,134 -848.2,119.3 -848.2,119.3L-848.2,119.1C-848.2,119 -848.2,118.9 -848.3,118.8C-848.4,118.7 -848.5,118.7 -848.6,118.7L-852.4,118.7C-852.6,118.7 -852.7,118.8 -852.7,119L-852.7,119.2C-852.7,119.2 -852.8,129 -852.8,132.9C-852.8,136.8 -856.3,138.8 -860.1,138.8C-862.1,138.8 -863.4,138 -863.9,136.4L-863.4,136.4C-858.1,136.4 -854.9,134.3 -855,130.9L-855,130.6C-855.2,127.9 -857.7,125.9 -861,125.9C-864.7,125.7 -868,128.4 -868.5,132.1C-868.8,132 -869.2,131.9 -869.5,131.8C-870.1,128.2 -872.6,125.9 -875.8,125.9C-877.2,125.8 -878.6,126.3 -879.7,127.2L-879.8,119C-879.8,118.9 -879.8,118.8 -879.9,118.8C-880,118.7 -880.1,118.7 -880.1,118.7L-883.9,118.7C-884.1,118.7 -884.2,118.8 -884.2,119L-883.8,140.9C-883.8,141 -883.7,141.2 -883.6,141.2L-883.5,141.2C-881.6,142.2 -879.5,142.7 -877.3,142.7C-872.7,142.7 -869.8,140 -869.3,135.5C-869.1,135.6 -868.8,135.6 -868.6,135.7C-868.5,137.7 -867.5,139.6 -865.9,140.9C-864.3,142.1 -862.3,142.8 -860.3,142.7C-857.2,142.6 -854.2,141.5 -851.9,139.4C-851.3,141.4 -849.4,142.7 -847.4,142.6C-845.6,142.6 -843.9,142.1 -842.4,141.2C-842.2,141.1 -842.1,140.9 -842.2,140.7L-842.5,137.8ZM-877.5,138.7C-878.1,138.7 -878.8,138.5 -879.3,138.2L-879.3,134.5C-879.3,131.6 -878.2,130 -876.4,130C-874.8,130 -873.9,131.1 -873.7,133.2C-873.6,135.5 -873.8,138.7 -877.5,138.7ZM-863.9,132.7C-863.6,131.1 -862.4,129.6 -860.9,129.6C-860.2,129.6 -859.4,129.9 -859.3,130.7C-859.3,131.2 -859.4,131.8 -860.7,132.3C-861.7,132.6 -862.8,132.8 -863.9,132.7Z" style="fill:white;"/>
                </g>
            </g>
        </g>
    </g>
</svg>
