<?xml version="1.0" encoding="UTF-8" standalone="no"?>
<!DOCTYPE svg PUBLIC "-//W3C//DTD SVG 1.1//EN" "http://www.w3.org/Graphics/SVG/1.1/DTD/svg11.dtd">
<svg width="100%" height="100%" viewBox="0 0 210 39" version="1.1" xmlns="http://www.w3.org/2000/svg" xmlns:xlink="http://www.w3.org/1999/xlink" xml:space="preserve" xmlns:serif="http://www.serif.com/" style="fill-rule:evenodd;clip-rule:evenodd;stroke-linejoin:round;stroke-miterlimit:2;">
    <g id="solax_logo_purple.svg" transform="matrix(0.0244636,0,0,0.0244636,105,19.5)">
        <g transform="matrix(1,0,0,1,-2058.85,-797.104)">
            <clipPath id="_clip1">
                <rect x="0" y="0" width="4117.71" height="1594.21"/>
            </clipPath>
            <g clip-path="url(#_clip1)">
                <g id="Layer_2" transform="matrix(4.16667,0,0,4.16667,0,0)">
                    <g id="Layer_1-2">
                        <path d="M248.27,47.68L165.67,0L156.18,5.48L115.05,29.23L71.05,54.62L24.25,81.62L0,95.65L0,287L29.91,304.27L78,332L122.8,357.87L164.1,381.71L165.63,382.6L272.63,320.82L331.35,287L331.35,95.65L248.27,47.68ZM303.51,215L297.71,211.67L233.93,175.04L165.19,135.57L135.7,118.64L156.23,106.79L163.82,102.41L227.21,138.82L264.94,160.48L275.45,166.48L275.45,127.58L271.7,125.77L210.57,90.48L165.67,64.55L143.67,77.24L94.79,105.48L69.24,120.23L105.24,141L173,180.05L235.89,216.29L294.75,250.21L303.5,255.21L303.5,270.85L288.5,279.53L206.7,326.78L165.7,350.47L139,335.08L91,307.4L39.82,277.81L27.82,270.89L27.82,168.89L50.1,181.68L112.3,217.4L170.58,250.87L194.58,264.65L166.47,280.87C165.76,280.46 164.89,279.95 163.95,279.42L109.08,247.91L55.91,217.34L55.91,254.67L101.19,280.82L152.31,310.33L165.68,318.05L224.83,283.9L260.83,263.09L233.11,247.09L174.17,213.09L111.17,176.75L43.29,137.69L27.83,128.78L27.83,111.71L34.63,107.79L84,79.32L130.38,52.54L165.77,32.11C169.13,34.11 174.94,37.45 184.95,43.23L220.63,63.83L273,94.09L303.53,111.71L303.51,215Z" style="fill:white;fill-rule:nonzero;"/>
                        <g transform="matrix(9.81051,-0,-0,9.81051,-535.979,-3.13685e-13)">
                        </g>
                        <path d="M394.19,214.19C400.857,217.571 408.205,219.397 415.68,219.53C424.58,219.53 429.28,215.84 429.28,210.25C429.28,204.91 425.21,201.85 414.92,198.17C400.68,193.17 391.4,185.33 391.4,172.87C391.4,158.25 403.6,147.06 423.81,147.06C431.326,146.92 438.785,148.396 445.68,151.39L441.36,167C435.765,164.322 429.633,162.954 423.43,163C415,163 411,166.77 411,171.22C411,176.68 415.83,179.1 426.89,183.29C442.02,188.89 449.14,196.77 449.14,208.85C449.14,223.21 438.08,235.42 414.56,235.42C404.77,235.42 395.11,232.87 390.28,230.2L394.19,214.19Z" style="fill:white;fill-rule:nonzero;"/>
                        <path d="M539.37,190.41C539.37,218.51 522.37,235.54 497.29,235.54C471.87,235.54 456.99,216.35 456.99,191.94C456.99,166.26 473.39,147.06 498.69,147.06C525,147.06 539.37,166.77 539.37,190.41ZM477.46,191.56C477.46,208.34 485.34,220.16 498.31,220.16C511.28,220.16 518.9,207.7 518.9,191.05C518.9,175.67 511.53,162.45 498.18,162.45C485.09,162.45 477.46,174.9 477.46,191.56Z" style="fill:white;fill-rule:nonzero;"/>
                        <path d="M550.81,148.46L570.26,148.46L570.26,217.87L604.33,217.87L604.33,234.14L550.81,234.14L550.81,148.46Z" style="fill:white;fill-rule:nonzero;"/>
                        <path d="M635.22,212.15L629.11,234.15L609,234.15L635.19,148.47L660.61,148.47L687.18,234.15L666.36,234.15L659.75,212.15L635.22,212.15ZM657,197.66L651.67,179.48C650.14,174.39 648.61,168.04 647.34,162.95L647,162.95C645.73,168.04 644.46,174.52 643.06,179.48L638,197.66L657,197.66Z" style="fill:white;fill-rule:nonzero;"/>
                        <path d="M739.46,234.14L731.7,218.63C728.53,212.63 726.49,208.21 724.08,203.25L723.82,203.25C722.04,208.25 719.88,212.66 717.21,218.63L710.09,234.14L688,234.14L712.79,190.79L688.89,148.46L711.14,148.46L718.64,164.1C721.18,169.31 723.09,173.51 725.12,178.34L725.38,178.34C727.38,172.87 729.06,169.06 731.23,164.1L738.47,148.46L760.59,148.46L736.44,190.29L761.86,234.14L739.46,234.14Z" style="fill:white;fill-rule:nonzero;"/>
                        <path d="M795.39,149.61C803.936,148.362 812.564,147.766 821.2,147.83C833.91,147.83 842.81,149.73 848.91,154.56C853.99,158.63 856.79,164.61 856.79,172.49C856.79,183.42 849.04,190.92 841.66,193.59L841.66,194C847.66,196.42 850.94,202.14 853.11,210C855.78,219.66 858.45,230.85 860.11,234.15L840.27,234.15C838.87,231.74 836.83,224.75 834.27,214.2C831.98,203.52 828.27,200.59 820.41,200.47L814.57,200.47L814.57,234.15L795.37,234.15L795.39,149.61ZM814.59,186.47L822.21,186.47C831.87,186.47 837.6,181.64 837.6,174.14C837.6,166.26 832.26,162.32 823.36,162.19C820.423,162.132 817.487,162.346 814.59,162.83L814.59,186.47Z" style="fill:white;fill-rule:nonzero;"/>
                        <path d="M869.5,149.61C878.166,148.293 886.926,147.698 895.69,147.83C907.64,147.83 916.16,150.11 921.88,154.69C927.786,159.556 931.149,166.869 931,174.52C931,182.91 928.2,190.03 923.12,194.86C916.51,201.09 906.72,203.86 895.28,203.86C893.071,203.881 890.862,203.754 888.67,203.48L888.67,234.11L869.5,234.11L869.5,149.61ZM888.7,188.51C890.835,188.917 893.008,189.088 895.18,189.02C905.48,189.02 911.83,183.8 911.83,175.02C911.83,167.14 906.37,162.44 896.71,162.44C894.022,162.368 891.336,162.623 888.71,163.2L888.7,188.51Z" style="fill:white;fill-rule:nonzero;"/>
                        <path d="M924.6,230.69C925.938,231.524 927.474,231.987 929.05,232.03C931.51,232.03 932.66,230.8 932.66,229.27C932.66,227.74 931.66,226.77 929.21,225.85C925.87,224.66 924.29,222.85 924.29,220.59C924.29,217.59 926.71,215.14 930.7,215.14C932.296,215.126 933.87,215.522 935.27,216.29L934.43,218.75C933.287,218.049 931.971,217.679 930.63,217.68C928.63,217.68 927.52,218.83 927.52,220.21C927.52,221.74 928.63,222.44 931.05,223.36C934.27,224.59 935.92,226.2 935.92,228.96C935.92,232.22 933.39,234.53 928.97,234.53C927.15,234.562 925.352,234.125 923.75,233.26L924.6,230.69Z" style="fill:white;fill-rule:nonzero;"/>
                        <path d="M938.65,232.15C938.647,232.1 938.645,232.05 938.645,232C938.645,230.754 939.67,229.73 940.915,229.73C940.927,229.73 940.938,229.73 940.95,229.73C940.99,229.728 941.03,229.727 941.07,229.727C942.398,229.727 943.49,230.819 943.49,232.147C943.49,233.475 942.398,234.567 941.07,234.567C939.744,234.567 938.652,233.476 938.65,232.15Z" style="fill:white;fill-rule:nonzero;"/>
                        <path d="M947,221.36C947,219.17 947,217.29 946.85,215.56L949.85,215.56L949.97,219.21L950.12,219.21C950.774,216.888 952.86,215.24 955.27,215.14C955.607,215.131 955.944,215.171 956.27,215.26L956.27,218.44C955.892,218.363 955.506,218.326 955.12,218.33C952.74,218.33 951.05,220.13 950.59,222.67C950.5,223.189 950.449,223.714 950.44,224.24L950.44,234.14L947,234.14L947,221.36Z" style="fill:white;fill-rule:nonzero;"/>
                        <path d="M956.35,232.15C956.347,232.1 956.345,232.05 956.345,232C956.345,230.754 957.37,229.73 958.615,229.73C958.627,229.73 958.638,229.73 958.65,229.73C958.69,229.728 958.73,229.727 958.77,229.727C960.098,229.727 961.19,230.819 961.19,232.147C961.19,233.475 960.098,234.567 958.77,234.567C957.444,234.567 956.352,233.476 956.35,232.15Z" style="fill:white;fill-rule:nonzero;"/>
                        <path d="M981.53,224.7C981.53,231.57 976.77,234.57 972.28,234.57C967.28,234.57 963.38,230.88 963.38,225.01C963.38,218.79 967.44,215.14 972.59,215.14C977.92,215.14 981.53,219 981.53,224.7ZM966.79,224.89C966.79,228.96 969.13,232.03 972.44,232.03C975.75,232.03 978.08,229.03 978.08,224.82C978.08,221.67 976.5,217.68 972.51,217.68C968.52,217.68 966.79,221.36 966.79,224.89Z" style="fill:white;fill-rule:nonzero;"/>
                        <path d="M983.68,232.15C983.677,232.103 983.676,232.057 983.676,232.01C983.676,230.759 984.705,229.73 985.956,229.73C985.967,229.73 985.979,229.73 985.99,229.73C987.318,229.73 988.41,230.822 988.41,232.15C988.41,233.478 987.318,234.57 985.99,234.57C985.975,234.57 985.96,234.57 985.945,234.57C984.7,234.57 983.675,233.546 983.675,232.3C983.675,232.25 983.677,232.2 983.68,232.15Z" style="fill:white;fill-rule:nonzero;"/>
                    </g>
                </g>
            </g>
        </g>
    </g>
</svg>
